<?xml version="1.0" encoding="UTF-8" standalone="no"?>
<!-- Generator: Adobe Illustrator 23.0.1, SVG Export Plug-In . SVG Version: 6.00 Build 0)  -->

<svg
   xmlns:dc="http://purl.org/dc/elements/1.1/"
   xmlns:cc="http://creativecommons.org/ns#"
   xmlns:rdf="http://www.w3.org/1999/02/22-rdf-syntax-ns#"
   xmlns:svg="http://www.w3.org/2000/svg"
   xmlns="http://www.w3.org/2000/svg"
   xmlns:sodipodi="http://sodipodi.sourceforge.net/DTD/sodipodi-0.dtd"
   xmlns:inkscape="http://www.inkscape.org/namespaces/inkscape"
   version="1.1"
   id="Layer_1"
   x="0px"
   y="0px"
   viewBox="0 0 38 38.000002"
   xml:space="preserve"
   sodipodi:docname="onibus.svg"
   width="38"
   height="38"
   inkscape:version="0.92.4 (unknown)"><metadata
   id="metadata10"><rdf:RDF><cc:Work
       rdf:about=""><dc:format>image/svg+xml</dc:format><dc:type
         rdf:resource="http://purl.org/dc/dcmitype/StillImage" /><dc:title></dc:title></cc:Work></rdf:RDF></metadata><defs
   id="defs8" /><sodipodi:namedview
   pagecolor="#ffffff"
   bordercolor="#666666"
   borderopacity="1"
   objecttolerance="10"
   gridtolerance="10"
   guidetolerance="10"
   inkscape:pageopacity="0"
   inkscape:pageshadow="2"
   inkscape:window-width="1366"
   inkscape:window-height="707"
   id="namedview6"
   showgrid="false"
   inkscape:zoom="6.3611862"
   inkscape:cx="19"
   inkscape:cy="18.549999"
   inkscape:window-x="0"
   inkscape:window-y="24"
   inkscape:window-maximized="1"
   inkscape:current-layer="Layer_1" />
<g
   id="noun_Bus_2226129"
   transform="translate(-5,-5.0999925)">
	<g
   id="Grupo_7"
   transform="translate(5,6)">
		<path
   id="Caminho_61"
   d="M 5.9,0 C 4.5,0 3.4,1.1 3.4,2.5 V 7.1 H 1.7 C 0.8,7.2 0,7.9 0,8.9 v 5.9 c 0,0.9 0.8,1.7 1.7,1.7 h 1.7 v 14.8 c 0,0.5 0.4,0.8 0.8,0.8 H 5 v 2.5 c 0,1.4 1.1,2.5 2.5,2.5 h 1.7 c 1.4,0 2.5,-1.1 2.5,-2.5 v -2.5 h 14.4 v 2.5 c 0,1.4 1.1,2.5 2.5,2.5 h 1.7 c 1.4,0 2.5,-1.1 2.5,-2.5 v -2.5 h 0.8 c 0.5,0 0.8,-0.4 0.8,-0.8 V 16.5 h 1.7 c 0.9,0 1.7,-0.8 1.7,-1.7 V 8.9 C 37.8,8 37,7.2 36.1,7.2 H 34.4 V 2.5 C 34.4,1.1 33.3,0 31.9,0 Z m 0,1.7 h 26.2 c 0.5,0 0.8,0.4 0.8,0.8 0,0 0,0 0,0 V 4.2 H 5.1 V 2.5 c 0,-0.4 0.3,-0.8 0.8,-0.8 0,0 0,0 0,0 z M 5.1,5.9 H 18.2 V 17.7 H 5.1 Z m 14.7,0 H 32.9 V 17.7 H 19.8 Z m -18.1,3 h 1.7 v 5.9 H 1.7 Z m 32.9,0 h 1.7 v 5.9 H 34.6 Z M 5.1,19.4 H 33 v 11 H 5.1 Z M 9.7,22 c -1.6,0 -3,1.3 -3,3 0,1.6 1.3,3 3,3 1.6,0 3,-1.3 3,-3 0,-1.7 -1.4,-3 -3,-3 z m 18.6,0 c -1.6,0 -3,1.3 -3,3 0,1.6 1.3,3 3,3 1.6,0 3,-1.3 3,-3 -0.1,-1.7 -1.4,-3 -3,-3 z M 9.7,23.6 c 0.7,0 1.3,0.6 1.3,1.3 0,0.7 -0.6,1.3 -1.3,1.3 -0.7,0 -1.3,-0.6 -1.3,-1.3 v 0 c 0,-0.7 0.6,-1.3 1.3,-1.3 0,0 0,0 0,0 z m 18.6,0 c 0.7,0 1.3,0.6 1.3,1.3 0,0.7 -0.6,1.3 -1.3,1.3 -0.7,0 -1.3,-0.6 -1.3,-1.3 v 0 c 0,-0.7 0.6,-1.3 1.3,-1.3 0,0 0,0 0,0 z m -13.5,0.5 c -0.5,0 -0.8,0.4 -0.8,0.8 v 3.4 c 0,0.5 0.4,0.8 0.8,0.8 h 8.4 c 0.5,0 0.8,-0.4 0.8,-0.8 v -3.4 c 0,-0.5 -0.4,-0.8 -0.8,-0.8 z m 0.8,1.6 h 6.8 v 1.7 h -6.8 z m -8.8,6.4 h 3.4 v 2.5 c 0,0.5 -0.4,0.8 -0.8,0.8 0,0 0,0 0,0 H 7.6 c -0.5,0 -0.8,-0.4 -0.8,-0.8 0,0 0,0 0,0 z m 21.1,0 h 3.4 v 2.5 c 0,0.5 -0.4,0.8 -0.8,0.8 0,0 0,0 0,0 H 28.8 C 28.3,35.4 28,35 28,34.6 c 0,0 0,0 0,0 z"
   inkscape:connector-curvature="0" />
	</g>
</g>
</svg>