<?xml version="1.0" encoding="utf-8"?>
<!-- Generator: Adobe Illustrator 23.0.1, SVG Export Plug-In . SVG Version: 6.00 Build 0)  -->
<svg version="1.1" id="Layer_1" xmlns="http://www.w3.org/2000/svg" xmlns:xlink="http://www.w3.org/1999/xlink" x="0px" y="0px"
	 viewBox="0 0 35.9 35.9" style="enable-background:new 0 0 35.9 35.9;" xml:space="preserve">
<g id="Grupo_54" transform="translate(6.785 -520.215)">
	<path id="Caminho_1016" d="M5.2,547.5c0.4-0.4,0.4-0.9,0-1.3c0,0,0,0,0,0l-0.4-0.5l2.5-2.4c5.4,4.8,13.6,4.4,18.4-1
		c4.8-5.4,4.4-13.6-1-18.4s-13.6-4.4-18.4,1C1.9,529.8,1.8,537,5.9,542l-2.5,2.4L3,543.9c-0.4-0.4-0.9-0.4-1.3,0c0,0,0,0,0,0
		l-7.7,7.4c-1,0.9-1.1,2.5-0.1,3.5c0.9,1,2.5,1.1,3.5,0.1c0,0,0,0,0.1-0.1L5.2,547.5z M16.1,522.5c6.1,0.1,11,5.2,10.9,11.3
		c-0.1,6.1-5.2,11-11.3,10.9c-6.1-0.1-11-5.2-10.9-11.3C4.8,527.3,9.9,522.4,16.1,522.5C16.1,522.5,16.1,522.5,16.1,522.5z
		 M-4.7,553.6c-0.2-0.3-0.2-0.7,0-0.9l7-6.8l0.9,0.9l-7,6.8C-4.1,553.8-4.5,553.8-4.7,553.6L-4.7,553.6z"/>
	<path id="Caminho_1019" d="M23.7,531.4c0.4-1.6-0.6-3.3-2.2-3.7c-1.6-0.4-3.3,0.6-3.7,2.2c-0.3,1.3,0.2,2.6,1.4,3.3l-0.7,2.2
		c-0.9-0.1-1.7,0.2-2.4,0.8l-2.4-1.6c0.5-1.6-0.4-3.3-2-3.8c-1.6-0.5-3.3,0.4-3.8,2c-0.3,1-0.1,2.1,0.6,2.9l-2,2.2
		c0.1,0.5,0.3,0.9,0.5,1.4l2.6-2.8c1.2,0.6,2.6,0.3,3.5-0.7l2.3,1.6c-0.6,1.5,0.1,3.3,1.7,3.9c1.5,0.6,3.3-0.1,3.9-1.7
		c0.6-1.4,0-3-1.3-3.7l0.7-2.2c1,0.1,2-0.3,2.7-1.1l3.7,1.8c0-0.5-0.1-1-0.2-1.5L23.7,531.4z"/>
</g>
</svg>
