<?xml version="1.0" encoding="UTF-8" standalone="no"?>
<!-- Created with Inkscape (http://www.inkscape.org/) -->

<svg
   version="1.1"
   id="svg2"
   xml:space="preserve"
   width="464.0224"
   height="464.01999"
   viewBox="0 0 464.0224 464.01999"
   sodipodi:docname="LogoUniteve.svg"
   inkscape:version="1.2.1 (9c6d41e410, 2022-07-14)"
   xmlns:inkscape="http://www.inkscape.org/namespaces/inkscape"
   xmlns:sodipodi="http://sodipodi.sourceforge.net/DTD/sodipodi-0.dtd"
   xmlns="http://www.w3.org/2000/svg"
   xmlns:svg="http://www.w3.org/2000/svg"><defs
     id="defs6" /><sodipodi:namedview
     id="namedview4"
     pagecolor="#ffffff"
     bordercolor="#666666"
     borderopacity="1.0"
     inkscape:pageshadow="2"
     inkscape:pageopacity="0.0"
     inkscape:pagecheckerboard="0"
     inkscape:showpageshadow="2"
     inkscape:deskcolor="#d1d1d1"
     showgrid="false"
     inkscape:zoom="1.3826788"
     inkscape:cx="234.32775"
     inkscape:cy="245.17625"
     inkscape:window-width="1920"
     inkscape:window-height="1017"
     inkscape:window-x="-8"
     inkscape:window-y="-8"
     inkscape:window-maximized="1"
     inkscape:current-layer="g10" /><g
     id="g8"
     inkscape:groupmode="layer"
     inkscape:label="ink_ext_XXXXXX"
     transform="matrix(1.3333333,0,0,-1.3333333,-7.9895865,605.34265)"><g
       id="g10"
       transform="scale(0.1)"><path
         d="m 59.9219,2799.98 c 0,-961 779.0551,-1740.06 1740.0781,-1740.06 961.03,0 1740.09,779.06 1740.09,1740.06 0,961.03 -779.06,1740.09 -1740.09,1740.09 -961.023,0 -1740.0781,-779.06 -1740.0781,-1740.09"
         style="fill:#2b56ae;fill-opacity:1;fill-rule:nonzero;stroke:none"
         id="path26" /><path
         d="M 3012.43,3354.39 V 2260.5 h -309.81 v 1093.89 h 309.81"
         style="fill:#ffffff;fill-opacity:1;fill-rule:evenodd;stroke:none"
         id="path28" /><path
         d="m 1640.41,2259.39 h 309.81 v 626.11 c 0,85.14 70.55,155.73 155.77,155.73 85.21,0 154.72,-69.43 154.72,-154.56 0,-2.27 -0.06,-4.52 -0.15,-6.77 v -620.51 h 312.07 v 630.38 h -1.05 c -0.71,111.59 -41.06,214.11 -107.59,294.1 -0.03,0.05 -0.05,0.1 -0.09,0.14 -19,22.8 -40.09,43.77 -63.05,62.63 -0.02,0.01 -0.06,0.05 -0.08,0.07 -2.83,2.33 -5.7,4.62 -8.6,6.89 -0.09,0.04 -0.18,0.12 -0.25,0.19 -2.83,2.21 -5.72,4.41 -8.63,6.59 -0.05,0.04 -0.15,0.11 -0.19,0.15 -2.95,2.19 -5.88,4.31 -8.86,6.42 -3.03,2.15 -6.06,4.25 -9.13,6.31 -0.2,0.14 -0.37,0.27 -0.56,0.38 -15.28,10.26 -31.22,19.64 -47.68,28.05 -0.14,0.07 -0.24,0.14 -0.38,0.2 -6.56,3.35 -13.21,6.56 -19.96,9.6 -0.04,0.02 -0.11,0.04 -0.15,0.08 -3.37,1.48 -6.7,2.95 -10.08,4.41 -0.03,0.02 -0.08,0.04 -0.1,0.06 -3.26,1.35 -6.56,2.69 -9.84,4.01 -0.07,0.02 -0.12,0.02 -0.22,0.07 -2.46,0.99 -4.97,1.92 -7.48,2.85 -1.03,0.39 -2.09,0.8 -3.12,1.19 -2.21,0.81 -4.46,1.59 -6.7,2.38 -1.37,0.46 -2.75,0.99 -4.12,1.43 -1.45,0.48 -2.93,0.97 -4.38,1.44 -2.24,0.73 -4.41,1.45 -6.64,2.14 -0.72,0.24 -1.46,0.44 -2.17,0.66 -2.91,0.89 -5.86,1.79 -8.81,2.63 -0.02,0 -0.03,0 -0.07,0 -3.52,1 -7.05,1.98 -10.61,2.89 -0.04,0.02 -0.11,0.02 -0.16,0.04 -1.66,0.42 -3.37,0.82 -5.07,1.23 -2.09,0.51 -4.2,1.06 -6.35,1.55 0,0 0,0 -0.04,0 -3.58,0.86 -7.25,1.64 -10.88,2.39 -0.13,0.04 -0.22,0.06 -0.37,0.09 -3.67,0.74 -7.32,1.43 -11.02,2.11 -0.1,0.01 -0.21,0.05 -0.32,0.08 -3.74,0.64 -7.46,1.27 -11.18,1.83 -0.08,0.01 -0.19,0.03 -0.27,0.03 -3.75,0.59 -7.52,1.11 -11.31,1.59 -0.08,0 -0.16,0.03 -0.23,0.03 -3.8,0.5 -7.64,0.93 -11.45,1.32 -0.08,0 -0.14,0 -0.2,0.02 -3.84,0.41 -7.7,0.74 -11.56,1.03 -0.06,0 -0.1,0 -0.14,0.02 -3.88,0.28 -7.79,0.54 -11.71,0.75 -0.04,0 -0.04,0 -0.08,0 -3.93,0.19 -7.89,0.33 -11.84,0.45 h -0.04 c -3.97,0.08 -7.95,0.13 -11.93,0.13 -256.54,0 -465.75,-209.19 -465.75,-465.7 v -3.65 h 0.27"
         style="fill:#ffffff;fill-opacity:1;fill-rule:evenodd;stroke:none"
         id="path30" /><path
         d="m 1520.24,3354.39 h -312.78 l -0.25,-643.03 -0.02,-0.02 c -2.29,-82.9 -71.47,-149.81 -154.9,-149.81 -83.45,0 -151.755,66.92 -154.009,149.83 h -0.066 v 4.25 638.78 H 637.727 v 0 h -50.161 v -316.93 h 0.2 v -326.1 l -0.024,-0.06 c 0,-256.53 208.899,-465.68 465.408,-465.68 3.99,0 7.98,0.05 11.95,0.15 0,0 0.04,0 0.06,0 3.94,0.09 7.89,0.29 11.81,0.44 0.03,0 0.06,0.02 0.1,0.02 3.91,0.21 7.8,0.46 11.68,0.75 0.06,0 0.1,0 0.16,0 3.85,0.32 7.72,0.65 11.55,1.03 0.07,0 0.14,0.03 0.21,0.03 0.97,0.09 1.94,0.2 2.89,0.32 2.93,0.33 5.87,0.67 8.78,1.03 3.78,0.47 7.52,0.98 11.28,1.55 0.1,0.03 0.21,0.03 0.33,0.06 3.71,0.57 7.43,1.2 11.12,1.86 0.04,0.02 0.07,0.02 0.11,0.02 2.1,0.37 4.17,0.81 6.24,1.19 1.67,0.32 3.33,0.62 5,0.99 0.13,0.02 0.27,0.04 0.42,0.06 3.61,0.72 7.24,1.54 10.84,2.37 0.07,0.02 0.13,0.04 0.2,0.06 1.71,0.39 3.41,0.81 5.1,1.25 2.06,0.46 4.11,0.97 6.15,1.49 1.33,0.34 2.65,0.7 3.97,1.07 2.39,0.62 4.77,1.27 7.13,1.93 1.46,0.41 2.92,0.87 4.37,1.29 2.16,0.64 4.33,1.28 6.46,1.94 2.13,0.67 4.22,1.36 6.32,2.03 1.51,0.52 3.02,1 4.5,1.49 2.07,0.69 4.11,1.45 6.15,2.15 1.52,0.56 3.06,1.08 4.6,1.62 2.24,0.84 4.45,1.69 6.69,2.53 1.28,0.51 2.57,1 3.85,1.5 2.44,0.94 4.83,1.95 7.23,2.94 1.06,0.45 2.15,0.88 3.2,1.3 2.44,1.05 4.88,2.14 7.3,3.19 1.01,0.46 2.06,0.89 3.08,1.36 2.48,1.12 4.95,2.28 7.42,3.45 0.9,0.45 1.83,0.86 2.75,1.3 2.49,1.2 4.95,2.43 7.43,3.69 0.9,0.42 1.8,0.88 2.68,1.33 2.71,1.39 5.4,2.79 8.07,4.27 0.59,0.29 1.18,0.58 1.76,0.9 2.79,1.51 5.58,3.09 8.35,4.67 0.49,0.27 0.98,0.51 1.45,0.82 2.81,1.57 5.55,3.22 8.31,4.87 0.44,0.28 0.89,0.52 1.33,0.8 6.05,3.66 12.02,7.47 17.91,11.4 0.29,0.21 0.61,0.4 0.9,0.62 2.94,1.97 5.84,3.99 8.73,6.03 0.13,0.08 0.28,0.17 0.41,0.27 2.81,2 5.57,4.02 8.33,6.04 0.25,0.2 0.48,0.34 0.74,0.56 2.44,1.79 4.84,3.67 7.24,5.53 0.59,0.44 1.19,0.89 1.78,1.36 2.49,1.97 4.97,3.95 7.42,5.95 0.37,0.3 0.76,0.61 1.16,0.92 8.53,7.01 16.81,14.32 24.84,21.92 0.04,0.03 0.08,0.07 0.11,0.09 2.65,2.55 5.27,5.08 7.87,7.66 0.04,0.03 0.07,0.06 0.11,0.08 7.8,7.76 15.32,15.78 22.56,24.06 0.11,0.12 0.22,0.24 0.33,0.37 2.19,2.51 4.34,5.05 6.49,7.59 0.26,0.34 0.55,0.67 0.82,0.97 2.29,2.77 4.56,5.57 6.79,8.36 0.05,0.07 0.08,0.14 0.13,0.19 2.1,2.64 4.18,5.34 6.22,8.03 0.25,0.3 0.47,0.6 0.7,0.92 24.57,32.56 44.96,68.42 60.4,106.8 0.01,0.05 0.05,0.08 0.07,0.14 21.05,52.45 35.17,109.58 35.61,169.31 l 0.03,-0.01"
         style="fill:#ffffff;fill-opacity:1;fill-rule:evenodd;stroke:none"
         id="path32" /><path
         d="m 2857.53,3287.82 c -62.74,0 -113.61,-50.86 -113.61,-113.6 0,-62.74 50.87,-113.6 113.61,-113.6 62.75,0 113.6,50.86 113.6,113.6 0,62.74 -50.85,113.6 -113.6,113.6"
         style="fill:#44ba3b;fill-opacity:1;fill-rule:evenodd;stroke:none"
         id="path34" /></g></g></svg>
