<?xml version="1.0" standalone="no"?>
<!DOCTYPE svg PUBLIC "-//W3C//DTD SVG 20010904//EN"
 "http://www.w3.org/TR/2001/REC-SVG-20010904/DTD/svg10.dtd">
<svg version="1.0" xmlns="http://www.w3.org/2000/svg"
 width="512.000000pt" height="512.000000pt" viewBox="0 0 512.000000 512.000000"
 preserveAspectRatio="xMidYMid meet">

<g transform="translate(0.000000,512.000000) scale(0.100000,-0.100000)"
fill="#000000" stroke="none">
<path d="M2906 5109 c-109 -26 -210 -110 -263 -218 l-28 -56 0 -395 c0 -389 0
-396 23 -444 48 -105 130 -178 240 -215 56 -19 85 -21 314 -21 l253 0 125
-332 c69 -183 134 -345 145 -362 62 -91 209 -84 263 13 11 20 75 181 142 357
l122 321 46 6 c178 21 315 157 343 341 7 42 9 190 7 384 -4 301 -5 320 -27
375 -41 104 -124 189 -228 232 -46 19 -75 20 -743 22 -399 1 -712 -3 -734 -8z
m1384 -329 c11 -11 22 -30 25 -42 3 -13 5 -157 3 -321 l-3 -299 -24 -19 c-18
-15 -40 -19 -105 -19 -96 0 -156 -23 -184 -69 -10 -17 -49 -112 -87 -211 -37
-100 -71 -177 -75 -173 -4 4 -38 89 -75 188 -41 109 -78 191 -94 209 -49 54
-64 56 -396 56 -292 0 -306 1 -325 20 -19 19 -20 33 -20 340 0 307 1 321 20
340 20 20 33 20 670 20 634 0 650 0 670 -20z"/>
<path d="M3215 4586 c-67 -29 -105 -106 -91 -181 9 -47 59 -102 104 -115 24
-7 166 -10 414 -8 364 3 378 4 405 24 98 73 98 195 0 268 -28 20 -40 21 -415
23 -307 2 -393 0 -417 -11z"/>
<path d="M2070 3570 c-161 -22 -332 -77 -470 -151 -242 -130 -466 -367 -579
-610 -89 -193 -119 -328 -128 -571 l-6 -177 -37 -6 c-53 -9 -153 -58 -205
-100 -56 -46 -109 -124 -136 -200 -17 -49 -22 -91 -26 -235 -9 -301 20 -414
135 -529 112 -112 206 -141 467 -141 157 0 174 2 215 23 25 12 55 37 67 56
l23 34 0 489 c0 431 -2 494 -16 524 -22 46 -66 76 -120 82 l-44 5 0 116 c0
215 37 373 124 537 151 283 423 477 741 529 553 90 1079 -292 1170 -850 8 -49
15 -145 15 -211 l0 -121 -44 -5 c-54 -6 -98 -37 -120 -82 -15 -32 -16 -87 -14
-530 3 -483 3 -495 24 -523 11 -15 38 -37 60 -48 21 -11 41 -21 43 -22 11 -7
-62 -93 -119 -140 -130 -107 -344 -197 -558 -234 -147 -25 -202 -25 -202 -1 0
9 -9 32 -20 50 -60 97 -210 97 -270 0 -19 -31 -20 -47 -18 -233 3 -227 6 -237
86 -276 76 -38 170 -7 208 68 10 21 23 41 27 44 5 3 46 9 92 13 193 14 423 76
602 161 242 115 416 280 497 472 l32 77 61 12 c179 36 323 189 352 374 14 82
14 343 1 434 -27 182 -168 336 -348 377 l-49 12 -6 176 c-8 251 -40 387 -137
586 -180 372 -543 651 -953 730 -98 19 -326 27 -417 15z m-1000 -2116 l0 -286
-87 4 c-98 5 -133 20 -161 72 -13 25 -18 64 -20 192 -4 189 4 229 53 273 34
30 39 31 125 31 l90 0 0 -286z m2530 270 c59 -35 65 -60 65 -269 0 -167 -2
-193 -18 -217 -33 -48 -65 -62 -159 -66 l-88 -4 0 286 0 286 86 0 c62 0 94 -5
114 -16z"/>
</g>
</svg>
