<?xml version="1.0" standalone="no"?>
<!DOCTYPE svg PUBLIC "-//W3C//DTD SVG 20010904//EN"
 "http://www.w3.org/TR/2001/REC-SVG-20010904/DTD/svg10.dtd">
<svg version="1.0" xmlns="http://www.w3.org/2000/svg"
 width="512.000000pt" height="512.000000pt" viewBox="0 0 512.000000 512.000000"
 preserveAspectRatio="xMidYMid meet">

<g transform="translate(0.000000,512.000000) scale(0.100000,-0.100000)"
fill="#000000" stroke="none">
<path d="M1840 5027 c-49 -16 -133 -102 -148 -153 -17 -60 -17 -3128 0 -3188
16 -55 99 -138 154 -154 31 -9 267 -12 956 -12 1038 0 975 -5 1051 80 57 64
67 101 67 264 l0 136 58 0 c87 0 144 23 195 80 52 58 67 103 67 202 0 80 -11
126 -42 171 -19 27 -19 27 0 55 31 44 42 90 42 172 0 82 -11 128 -42 173 -19
27 -19 27 0 55 31 44 42 90 42 170 0 99 -15 144 -67 202 -51 57 -108 80 -195
80 l-58 0 0 93 0 92 96 35 c147 53 209 119 221 235 6 61 -30 185 -72 247 -40
58 -106 92 -182 93 l-63 0 0 339 c0 233 -4 351 -12 378 -6 22 -31 62 -55 88
-76 85 -12 80 -1057 79 -641 -1 -932 -4 -956 -12z m1895 -172 l25 -24 0 -746
c0 -669 -2 -745 -16 -745 -8 0 -39 -24 -67 -52 -62 -62 -77 -104 -77 -210 0
-80 11 -126 42 -170 19 -28 19 -28 0 -55 -31 -45 -42 -91 -42 -173 0 -82 11
-128 42 -172 19 -28 19 -28 0 -55 -31 -45 -42 -91 -42 -171 0 -106 15 -148 77
-209 28 -29 59 -53 67 -53 14 0 16 -20 16 -145 0 -142 -1 -147 -25 -170 l-24
-25 -911 0 -911 0 -24 25 -25 24 0 1551 0 1551 25 24 24 25 911 0 911 0 24
-25z m282 -870 c22 -15 63 -110 63 -145 0 -52 -50 -94 -134 -116 l-26 -6 0
135 c0 121 2 136 18 140 34 9 58 7 79 -8z m38 -810 c22 -21 25 -33 25 -95 0
-62 -3 -74 -25 -95 -23 -24 -31 -25 -135 -25 -104 0 -112 1 -135 25 -22 21
-25 33 -25 95 0 62 3 74 25 95 23 24 31 25 135 25 104 0 112 -1 135 -25z m0
-400 c22 -21 25 -33 25 -95 0 -62 -3 -74 -25 -95 -23 -24 -31 -25 -135 -25
-104 0 -112 1 -135 25 -22 21 -25 33 -25 95 0 62 3 74 25 95 23 24 31 25 135
25 104 0 112 -1 135 -25z m0 -400 c22 -21 25 -33 25 -95 0 -62 -3 -74 -25 -95
-23 -24 -31 -25 -135 -25 -104 0 -112 1 -135 25 -22 21 -25 33 -25 95 0 62 3
74 25 95 23 24 31 25 135 25 104 0 112 -1 135 -25z"/>
<path d="M2000 4640 l0 -80 800 0 800 0 0 80 0 80 -800 0 -800 0 0 -80z"/>
<path d="M2160 3920 l0 -160 80 0 80 0 0 80 0 80 80 0 80 0 0 80 0 80 -160 0
-160 0 0 -160z"/>
<path d="M3120 4000 l0 -80 80 0 80 0 0 -80 0 -80 80 0 80 0 0 160 0 160 -160
0 -160 0 0 -80z"/>
<path d="M2480 3640 l0 -120 120 0 120 0 0 120 0 120 -120 0 -120 0 0 -120z
m160 0 l0 -40 -40 0 -40 0 0 40 0 40 40 0 40 0 0 -40z"/>
<path d="M2880 3640 l0 -120 120 0 120 0 0 120 0 120 -120 0 -120 0 0 -120z
m160 0 l0 -40 -40 0 -40 0 0 40 0 40 40 0 40 0 0 -40z"/>
<path d="M2480 3240 l0 -120 120 0 120 0 0 120 0 120 -120 0 -120 0 0 -120z
m160 0 l0 -40 -40 0 -40 0 0 40 0 40 40 0 40 0 0 -40z"/>
<path d="M2880 3320 l0 -40 40 0 40 0 0 -40 0 -40 -40 0 -40 0 0 -40 0 -40 40
0 40 0 0 40 0 40 40 0 40 0 0 -40 0 -40 40 0 40 0 0 40 0 40 -40 0 -40 0 0 40
0 40 40 0 40 0 0 40 0 40 -40 0 -40 0 0 -40 0 -40 -40 0 -40 0 0 40 0 40 -40
0 -40 0 0 -40z"/>
<path d="M2160 2960 l0 -160 160 0 160 0 0 80 0 80 -80 0 -80 0 0 80 0 80 -80
0 -80 0 0 -160z"/>
<path d="M3280 3040 l0 -80 -80 0 -80 0 0 -80 0 -80 160 0 160 0 0 160 0 160
-80 0 -80 0 0 -80z"/>
<path d="M2000 2080 l0 -80 720 0 720 0 0 80 0 80 -720 0 -720 0 0 -80z"/>
<path d="M2585 1895 c-16 -15 -25 -36 -25 -55 0 -19 9 -40 25 -55 24 -25 26
-25 215 -25 189 0 191 0 215 25 16 15 25 36 25 55 0 19 -9 40 -25 55 -24 25
-26 25 -215 25 -189 0 -191 0 -215 -25z"/>
<path d="M1437 3638 c-15 -19 -33 -50 -42 -71 -43 -103 -254 -699 -264 -745
-7 -36 -11 -275 -11 -754 l0 -700 -27 5 -28 5 -101 -354 c-56 -195 -99 -356
-95 -358 10 -7 1984 -606 1986 -603 1 1 46 158 100 348 l98 345 61 40 c146 94
277 238 351 384 l34 68 -71 31 c-39 18 -71 31 -73 29 -1 -2 -17 -30 -35 -63
-94 -168 -224 -290 -395 -372 l-75 -35 -785 238 -785 239 0 726 c0 632 2 732
16 779 29 97 243 680 261 710 l17 30 -55 56 -56 56 -26 -34z m593 -2719 c454
-138 826 -252 828 -254 8 -7 -113 -405 -123 -402 -5 2 -383 118 -840 257 -456
138 -831 253 -833 255 -1 1 23 93 55 204 46 162 60 200 72 196 9 -2 387 -118
841 -256z"/>
</g>
</svg>
