<?xml version="1.0" standalone="no"?>
<!DOCTYPE svg PUBLIC "-//W3C//DTD SVG 20010904//EN"
 "http://www.w3.org/TR/2001/REC-SVG-20010904/DTD/svg10.dtd">
<svg version="1.0" xmlns="http://www.w3.org/2000/svg"
 width="256.000000pt" height="256.000000pt" viewBox="0 0 256.000000 256.000000"
 preserveAspectRatio="xMidYMid meet">

<g transform="translate(0.000000,256.000000) scale(0.100000,-0.100000)"
fill="#000000" stroke="none">
<path d="M530 2545 c-7 -8 -54 -169 -104 -357 l-92 -343 -95 -5 c-101 -6 -136
-19 -181 -67 -60 -63 -58 -35 -58 -831 0 -821 -3 -790 75 -867 79 -80 6 -75
1205 -75 1199 0 1126 -5 1205 75 78 77 75 48 75 845 0 797 3 768 -75 845 -47
47 -115 75 -184 75 l-46 0 -360 360 c-236 236 -367 360 -380 360 -12 0 -58
-37 -115 -95 -52 -52 -100 -95 -107 -95 -7 0 -172 43 -367 95 -195 52 -361 95
-369 95 -8 0 -20 -7 -27 -15z m515 -215 c88 -24 162 -45 164 -47 3 -2 -6 -15
-20 -28 l-24 -25 -169 46 c-93 25 -175 43 -182 40 -7 -3 -25 -23 -38 -45 -32
-49 -57 -64 -111 -63 -29 1 -48 -4 -58 -16 -11 -13 -187 -639 -187 -667 0 -3
-16 -5 -36 -5 -29 0 -34 3 -30 18 3 10 53 195 111 412 58 217 112 418 120 447
l15 51 143 -38 c78 -20 214 -57 302 -80z m993 -677 c-130 -131 -134 -133 -177
-133 l-44 0 66 69 c37 38 67 74 67 79 0 6 -11 32 -25 58 -31 58 -31 60 0 119
14 26 23 55 20 64 -7 22 -298 311 -313 311 -6 0 -32 -11 -58 -25 -26 -14 -52
-25 -59 -25 -7 0 -33 11 -59 25 -26 14 -52 25 -59 25 -6 0 -169 -157 -362
-350 l-350 -350 -45 0 -45 0 460 460 460 460 327 -327 328 -328 -132 -132z
m-962 495 c2 -2 -116 -123 -263 -268 -146 -146 -263 -256 -261 -245 37 150
124 462 131 466 6 4 28 10 49 13 28 5 53 20 86 50 l46 43 104 -28 c57 -15 106
-30 108 -31z m406 -70 c28 -8 49 -6 90 6 l53 15 102 -102 102 -102 -15 -54
c-15 -49 -15 -59 -1 -110 l16 -56 -77 -77 -77 -78 -117 0 -117 0 -19 43 c-56
127 -207 181 -330 118 -47 -24 -97 -82 -113 -128 -10 -33 -11 -33 -75 -33 -35
0 -64 3 -64 7 0 5 127 135 283 291 228 229 286 282 302 277 11 -4 36 -11 57
-17z m-1182 -349 c0 -6 -12 -55 -27 -110 -26 -96 -27 -99 -55 -99 -61 0 -118
53 -118 110 0 33 28 78 58 94 31 18 142 21 142 5z m2080 -9 c26 -13 47 -34 60
-61 20 -38 21 -54 18 -279 l-3 -240 -32 -31 c-24 -25 -42 -33 -82 -37 l-51 -5
0 120 c0 147 -15 199 -76 260 -32 31 -59 47 -103 60 l-61 18 107 108 c99 99
111 107 146 107 21 0 56 -9 77 -20z m-1127 -121 c27 -14 77 -60 77 -71 0 -4
-56 -8 -125 -8 -69 0 -125 3 -125 8 0 4 7 18 16 31 31 43 111 64 157 40z
m-130 -179 c930 0 949 0 987 -20 64 -33 80 -76 80 -215 l0 -115 -186 0 c-109
0 -193 -4 -205 -10 -23 -13 -25 -53 -3 -74 13 -14 54 -16 297 -16 220 1 291 4
322 15 22 8 41 15 43 15 2 0 2 -81 0 -179 -3 -201 -9 -218 -79 -254 -31 -16
-76 -17 -605 -15 l-570 3 -42 28 c-112 74 -134 217 -49 314 51 58 95 73 219
73 116 0 138 9 138 55 0 40 -30 47 -164 43 -102 -3 -128 -7 -166 -27 -61 -31
-116 -86 -148 -146 -35 -67 -38 -186 -5 -256 30 -66 86 -124 151 -156 l57 -28
498 -3 497 -3 0 -115 c0 -138 -16 -181 -80 -214 -38 -20 -57 -20 -905 -20
l-865 0 0 286 c0 177 -4 293 -10 305 -14 26 -66 26 -80 0 -6 -12 -10 -128 -10
-305 0 -191 -3 -286 -10 -286 -31 0 -91 44 -110 80 -19 38 -20 58 -20 653 l0
615 38 -14 c30 -11 219 -13 985 -14z m1337 -1066 c0 -120 -2 -141 -21 -174
-28 -50 -83 -80 -147 -80 l-49 0 21 42 c17 36 22 65 24 174 l4 131 48 6 c27 3
62 13 77 21 15 8 31 15 36 16 4 0 7 -61 7 -136z"/>
<path d="M1595 1046 c-13 -19 -14 -29 -6 -45 25 -45 91 -33 91 17 0 54 -56 72
-85 28z"/>
<path d="M255 890 c-35 -39 3 -91 55 -75 28 9 37 51 15 75 -10 11 -26 20 -35
20 -9 0 -25 -9 -35 -20z"/>
<path d="M1203 870 c-62 -37 -81 -116 -43 -178 21 -34 71 -62 111 -62 61 0
129 70 129 132 0 37 -34 90 -71 110 -44 23 -86 23 -126 -2z m87 -95 c10 -12
10 -18 0 -30 -25 -30 -61 -7 -46 30 3 8 12 15 19 15 8 0 20 -7 27 -15z"/>
</g>
</svg>
