<?xml version="1.0" encoding="UTF-8" standalone="no"?>
<svg
   width="500"
   zoomAndPan="magnify"
   viewBox="0 0 375 374.999991"
   height="500"
   preserveAspectRatio="xMidYMid meet"
   version="1.0"
   id="svg256"
   sodipodi:docname="catalogo.svg"
   inkscape:version="1.1.2 (0a00cf5339, 2022-02-04)"
   xmlns:inkscape="http://www.inkscape.org/namespaces/inkscape"
   xmlns:sodipodi="http://sodipodi.sourceforge.net/DTD/sodipodi-0.dtd"
   xmlns="http://www.w3.org/2000/svg"
   xmlns:svg="http://www.w3.org/2000/svg">
  <sodipodi:namedview
     id="namedview258"
     pagecolor="#ffffff"
     bordercolor="#000000"
     borderopacity="0.25"
     inkscape:pageshadow="2"
     inkscape:pageopacity="0.0"
     inkscape:pagecheckerboard="0"
     showgrid="false"
     inkscape:zoom="1.1935962"
     inkscape:cx="278.56991"
     inkscape:cy="181.38462"
     inkscape:window-width="1920"
     inkscape:window-height="1016"
     inkscape:window-x="1920"
     inkscape:window-y="27"
     inkscape:window-maximized="1"
     inkscape:current-layer="svg256" />
  <defs
     id="defs10">
    <g
       id="g2" />
    <clipPath
       id="f145e7545b">
      <path
         d="M 51.898438 173 L 143 173 L 143 309 L 51.898438 309 Z M 51.898438 173 "
         clip-rule="nonzero"
         id="path4" />
    </clipPath>
    <clipPath
       id="4e31a55acf">
      <path
         d="M 178 37.5 L 323.398438 37.5 L 323.398438 156 L 178 156 Z M 178 37.5 "
         clip-rule="nonzero"
         id="path7" />
    </clipPath>
  </defs>
  <path
     fill="#004aad"
     d="M 160.960938 254.457031 L 164.351562 227.335938 L 210.644531 227.335938 L 214.035156 254.457031 Z M 282.414062 164.058594 L 282.414062 182.136719 L 151.339844 182.136719 L 151.339844 191.175781 L 282.414062 191.175781 L 282.414062 204.738281 C 282.414062 212.207031 276.324219 218.296875 268.855469 218.296875 L 151.339844 218.296875 L 151.339844 227.335938 L 155.277344 227.335938 L 151.886719 254.457031 L 151.339844 254.457031 L 151.339844 263.496094 L 228.175781 263.496094 C 230.667969 263.496094 232.695312 265.527344 232.695312 268.015625 C 232.695312 270.503906 230.667969 272.535156 228.175781 272.535156 L 151.339844 272.535156 L 151.339844 281.574219 L 228.175781 281.574219 C 235.644531 281.574219 241.738281 275.46875 241.738281 268.015625 C 241.738281 260.546875 235.644531 254.457031 228.175781 254.457031 L 223.109375 254.457031 L 219.71875 227.335938 L 268.855469 227.335938 C 281.339844 227.335938 291.457031 217.21875 291.457031 204.738281 L 291.457031 164.058594 L 282.414062 164.058594 "
     fill-opacity="1"
     fill-rule="nonzero"
     id="path16" />
  <path
     fill="#004aad"
     d="M 92.578125 96.257812 C 92.578125 88.773438 98.652344 82.699219 106.140625 82.699219 L 169.417969 82.699219 L 169.417969 73.660156 L 106.140625 73.660156 C 93.675781 73.660156 83.539062 83.792969 83.539062 96.257812 L 83.539062 164.058594 L 92.578125 164.058594 L 92.578125 96.257812 "
     fill-opacity="1"
     fill-rule="nonzero"
     id="path18" />
  <path
     fill="#004aad"
     d="M 255.296875 200.21875 L 255.296875 209.257812 L 264.335938 209.257812 L 264.335938 200.21875 L 255.296875 200.21875 "
     fill-opacity="1"
     fill-rule="nonzero"
     id="path20" />
  <path
     fill="#004aad"
     d="M 110.660156 91.738281 L 110.660156 100.777344 L 119.699219 100.777344 L 119.699219 91.738281 L 110.660156 91.738281 "
     fill-opacity="1"
     fill-rule="nonzero"
     id="path22" />
  <path
     fill="#004aad"
     d="M 164.898438 91.738281 L 128.738281 91.738281 L 128.738281 100.777344 L 164.898438 100.777344 L 164.898438 91.738281 "
     fill-opacity="1"
     fill-rule="nonzero"
     id="path24" />
  <path
     fill="#004aad"
     d="M 164.898438 109.820312 L 110.660156 109.820312 L 110.660156 118.859375 L 164.898438 118.859375 L 164.898438 109.820312 "
     fill-opacity="1"
     fill-rule="nonzero"
     id="path26" />
  <path
     fill="#004aad"
     d="M 164.898438 127.898438 L 110.660156 127.898438 L 110.660156 136.9375 L 164.898438 136.9375 L 164.898438 127.898438 "
     fill-opacity="1"
     fill-rule="nonzero"
     id="path28" />
  <path
     fill="#004aad"
     d="M 110.660156 155.019531 L 164.898438 155.019531 L 164.898438 145.976562 L 110.660156 145.976562 L 110.660156 155.019531 "
     fill-opacity="1"
     fill-rule="nonzero"
     id="path30" />
  <g
     clip-path="url(#f145e7545b)"
     id="g34">
    <path
       fill="#004aad"
       d="M 133.257812 286.09375 C 133.257812 293.582031 127.183594 299.65625 119.699219 299.65625 L 74.5 299.65625 C 67.011719 299.65625 60.941406 293.582031 60.941406 286.09375 L 60.941406 195.695312 C 60.941406 188.210938 67.011719 182.136719 74.5 182.136719 L 119.699219 182.136719 C 127.183594 182.136719 133.257812 188.210938 133.257812 195.695312 Z M 119.699219 173.097656 L 74.5 173.097656 C 62.035156 173.097656 51.898438 183.230469 51.898438 195.695312 L 51.898438 286.09375 C 51.898438 298.5625 62.035156 308.695312 74.5 308.695312 L 119.699219 308.695312 C 132.164062 308.695312 142.296875 298.5625 142.296875 286.09375 L 142.296875 195.695312 C 142.296875 183.230469 132.164062 173.097656 119.699219 173.097656 "
       fill-opacity="1"
       fill-rule="nonzero"
       id="path32" />
  </g>
  <path
     fill="#004aad"
     d="M 88.058594 200.21875 L 106.140625 200.21875 L 106.140625 191.175781 L 88.058594 191.175781 L 88.058594 200.21875 "
     fill-opacity="1"
     fill-rule="nonzero"
     id="path36" />
  <path
     fill="#004aad"
     d="M 79.019531 191.175781 L 69.980469 191.175781 L 69.980469 200.21875 L 79.019531 200.21875 L 79.019531 191.175781 "
     fill-opacity="1"
     fill-rule="nonzero"
     id="path38" />
  <path
     fill="#004aad"
     d="M 88.058594 290.617188 L 106.140625 290.617188 L 106.140625 281.574219 L 88.058594 281.574219 L 88.058594 290.617188 "
     fill-opacity="1"
     fill-rule="nonzero"
     id="path40" />
  <path
     fill="#004aad"
     d="M 92.578125 236.375 L 92.578125 245.417969 L 101.617188 245.417969 L 101.617188 236.375 L 92.578125 236.375 "
     fill-opacity="1"
     fill-rule="nonzero"
     id="path42" />
  <path
     fill="#004aad"
     d="M 110.660156 245.417969 L 119.699219 245.417969 L 119.699219 236.375 L 110.660156 236.375 L 110.660156 245.417969 "
     fill-opacity="1"
     fill-rule="nonzero"
     id="path44" />
  <path
     fill="#004aad"
     d="M 74.5 245.417969 L 83.539062 245.417969 L 83.539062 236.375 L 74.5 236.375 L 74.5 245.417969 "
     fill-opacity="1"
     fill-rule="nonzero"
     id="path46" />
  <g
     clip-path="url(#4e31a55acf)"
     id="g50">
    <path
       fill="#004aad"
       d="M 314.054688 127.898438 L 268.855469 127.898438 C 263.753906 127.898438 259.09375 129.664062 255.296875 132.558594 L 255.296875 60.097656 C 255.296875 52.632812 261.386719 46.539062 268.855469 46.539062 L 314.054688 46.539062 Z M 314.054688 145.976562 L 256.054688 145.976562 C 257.925781 140.734375 262.976562 136.9375 268.855469 136.9375 L 314.054688 136.9375 Z M 246.257812 132.558594 C 242.460938 129.664062 237.800781 127.898438 232.695312 127.898438 L 187.496094 127.898438 L 187.496094 46.539062 L 232.695312 46.539062 C 240.164062 46.539062 246.257812 52.632812 246.257812 60.097656 Z M 187.496094 145.976562 L 187.496094 136.9375 L 232.695312 136.9375 C 238.578125 136.9375 243.625 140.734375 245.496094 145.976562 Z M 318.574219 37.5 L 268.855469 37.5 C 261.441406 37.5 254.890625 41.15625 250.777344 46.679688 C 246.664062 41.15625 240.113281 37.5 232.695312 37.5 L 182.976562 37.5 C 180.488281 37.5 178.457031 39.53125 178.457031 42.019531 L 178.457031 150.496094 C 178.457031 152.988281 180.488281 155.019531 182.976562 155.019531 L 318.574219 155.019531 C 321.066406 155.019531 323.09375 152.988281 323.09375 150.496094 L 323.09375 42.019531 C 323.09375 39.53125 321.066406 37.5 318.574219 37.5 "
       fill-opacity="1"
       fill-rule="nonzero"
       id="path48" />
  </g>
  <path
     fill="#004aad"
     d="M 237.214844 55.578125 L 196.539062 55.578125 L 196.539062 64.621094 L 237.214844 64.621094 L 237.214844 55.578125 "
     fill-opacity="1"
     fill-rule="nonzero"
     id="path52" />
  <path
     fill="#004aad"
     d="M 237.214844 91.738281 L 196.539062 91.738281 L 196.539062 100.777344 L 237.214844 100.777344 L 237.214844 91.738281 "
     fill-opacity="1"
     fill-rule="nonzero"
     id="path54" />
  <path
     fill="#004aad"
     d="M 237.214844 109.820312 L 196.539062 109.820312 L 196.539062 118.859375 L 237.214844 118.859375 L 237.214844 109.820312 "
     fill-opacity="1"
     fill-rule="nonzero"
     id="path56" />
  <path
     fill="#004aad"
     d="M 305.015625 55.578125 L 264.335938 55.578125 L 264.335938 64.621094 L 305.015625 64.621094 L 305.015625 55.578125 "
     fill-opacity="1"
     fill-rule="nonzero"
     id="path58" />
  <path
     fill="#004aad"
     d="M 305.015625 91.738281 L 264.335938 91.738281 L 264.335938 100.777344 L 305.015625 100.777344 L 305.015625 91.738281 "
     fill-opacity="1"
     fill-rule="nonzero"
     id="path60" />
  <path
     fill="#004aad"
     d="M 237.214844 73.660156 L 196.539062 73.660156 L 196.539062 82.699219 L 237.214844 82.699219 L 237.214844 73.660156 "
     fill-opacity="1"
     fill-rule="nonzero"
     id="path62" />
  <path
     fill="#004aad"
     d="M 305.015625 73.660156 L 264.335938 73.660156 L 264.335938 82.699219 L 305.015625 82.699219 L 305.015625 73.660156 "
     fill-opacity="1"
     fill-rule="nonzero"
     id="path64" />
  <path
     fill="#004aad"
     d="M 305.015625 109.820312 L 264.335938 109.820312 L 264.335938 118.859375 L 305.015625 118.859375 L 305.015625 109.820312 "
     fill-opacity="1"
     fill-rule="nonzero"
     id="path66" />
  <g
     fill="#004aad"
     fill-opacity="1"
     id="g74">
    <g
       transform="translate(37.22564, 342.374978)"
       id="g72">
      <g
         id="g70">
        <path
           d="M 0.941406 -7 C 0.960938 -2.238281 4.558594 0.160156 8.117188 0.140625 C 11.097656 0.140625 14.238281 -1.417969 14.757812 -5.378906 C 13.535156 -5.378906 12.4375 -5.378906 11.238281 -5.378906 C 10.855469 -3.878906 9.636719 -3.121094 8.117188 -3.121094 C 6 -3.140625 4.640625 -4.9375 4.640625 -7 C 4.640625 -9.316406 6.019531 -10.898438 8.117188 -10.898438 C 9.617188 -10.898438 10.675781 -10.257812 11.175781 -8.835938 C 12.398438 -8.835938 13.476562 -8.835938 14.695312 -8.835938 C 14.15625 -12.578125 11.015625 -14.15625 8.117188 -14.15625 C 4.558594 -14.15625 0.960938 -11.757812 0.941406 -7 Z M 0.941406 -7 "
           id="path68" />
      </g>
    </g>
  </g>
  <g
     fill="#004aad"
     fill-opacity="1"
     id="g82">
    <g
       transform="translate(52.939441, 342.374978)"
       id="g80">
      <g
         id="g78">
        <path
           d="M 10.675781 0 L 14.175781 0 L 14.175781 -0.519531 L 7.859375 -14.175781 L 6.320312 -14.175781 L 0.0195312 -0.519531 L 0.0195312 0 L 3.519531 0 L 4.339844 -1.757812 L 9.859375 -1.757812 Z M 8.699219 -4.820312 L 5.5 -4.820312 L 7.078125 -8.496094 Z M 8.699219 -4.820312 "
           id="path76" />
      </g>
    </g>
  </g>
  <g
     fill="#004aad"
     fill-opacity="1"
     id="g90">
    <g
       transform="translate(67.173831, 342.374978)"
       id="g88">
      <g
         id="g86">
        <path
           d="M 3.839844 -10.796875 L 3.839844 0 C 5.019531 0 6.199219 0 7.378906 0 L 7.378906 -10.796875 L 10.796875 -10.796875 C 10.796875 -11.878906 10.796875 -12.9375 10.796875 -13.996094 L 0.398438 -13.996094 C 0.398438 -12.9375 0.398438 -11.878906 0.398438 -10.796875 Z M 3.839844 -10.796875 "
           id="path84" />
      </g>
    </g>
  </g>
  <g
     fill="#004aad"
     fill-opacity="1"
     id="g98">
    <g
       transform="translate(78.409399, 342.374978)"
       id="g96">
      <g
         id="g94">
        <path
           d="M 10.675781 0 L 14.175781 0 L 14.175781 -0.519531 L 7.859375 -14.175781 L 6.320312 -14.175781 L 0.0195312 -0.519531 L 0.0195312 0 L 3.519531 0 L 4.339844 -1.757812 L 9.859375 -1.757812 Z M 8.699219 -4.820312 L 5.5 -4.820312 L 7.078125 -8.496094 Z M 8.078125 -15.015625 L 10.136719 -17.355469 L 10.136719 -17.65625 L 7.097656 -18.675781 L 5.578125 -15.335938 L 5.578125 -15.015625 Z M 8.078125 -15.015625 "
           id="path92" />
      </g>
    </g>
  </g>
  <g
     fill="#004aad"
     fill-opacity="1"
     id="g106">
    <g
       transform="translate(92.643788, 342.374978)"
       id="g104">
      <g
         id="g102">
        <path
           d="M 5.359375 -13.996094 C 4.140625 -13.996094 2.960938 -13.996094 1.757812 -13.996094 L 1.757812 0 C 4.597656 0 7.558594 0 10.4375 0 C 10.4375 -1.199219 10.4375 -2.019531 10.4375 -3.21875 L 5.359375 -3.21875 C 5.359375 -9.175781 5.359375 -6.757812 5.359375 -13.996094 Z M 5.359375 -13.996094 "
           id="path100" />
      </g>
    </g>
  </g>
  <g
     fill="#004aad"
     fill-opacity="1"
     id="g114">
    <g
       transform="translate(103.7594, 342.374978)"
       id="g112">
      <g
         id="g110">
        <path
           d="M 15.277344 -6.976562 C 15.277344 -16.65625 0.917969 -16.65625 0.917969 -6.976562 C 0.917969 2.71875 15.277344 2.71875 15.277344 -6.976562 Z M 4.597656 -6.976562 C 4.597656 -12.015625 11.617188 -12.015625 11.617188 -6.976562 C 11.617188 -1.898438 4.597656 -1.898438 4.597656 -6.976562 Z M 4.597656 -6.976562 "
           id="path108" />
      </g>
    </g>
  </g>
  <g
     fill="#004aad"
     fill-opacity="1"
     id="g122">
    <g
       transform="translate(119.953005, 342.374978)"
       id="g120">
      <g
         id="g118">
        <path
           d="M 0.917969 -7 C 0.941406 -2.21875 4.539062 0.160156 8.097656 0.160156 C 10.675781 0.160156 13.335938 -0.960938 14.335938 -3.878906 C 14.816406 -5.238281 14.816406 -6.578125 14.734375 -7.976562 L 8.117188 -7.976562 L 8.117188 -4.878906 L 11.097656 -4.878906 C 10.457031 -3.539062 9.539062 -3.160156 8.097656 -3.160156 C 5.976562 -3.160156 4.617188 -4.679688 4.617188 -7 C 4.617188 -9.136719 5.839844 -10.898438 8.097656 -10.898438 C 9.519531 -10.898438 10.4375 -10.417969 11.015625 -9.21875 L 14.535156 -9.21875 C 13.855469 -12.695312 10.917969 -14.15625 8.097656 -14.175781 C 4.539062 -14.175781 0.941406 -11.777344 0.917969 -7 Z M 0.917969 -7 "
           id="path116" />
      </g>
    </g>
  </g>
  <g
     fill="#004aad"
     fill-opacity="1"
     id="g130">
    <g
       transform="translate(135.746778, 342.374978)"
       id="g128">
      <g
         id="g126">
        <path
           d="M 15.277344 -6.976562 C 15.277344 -16.65625 0.917969 -16.65625 0.917969 -6.976562 C 0.917969 2.71875 15.277344 2.71875 15.277344 -6.976562 Z M 4.597656 -6.976562 C 4.597656 -12.015625 11.617188 -12.015625 11.617188 -6.976562 C 11.617188 -1.898438 4.597656 -1.898438 4.597656 -6.976562 Z M 4.597656 -6.976562 "
           id="path124" />
      </g>
    </g>
  </g>
  <g
     fill="#004aad"
     fill-opacity="1"
     id="g136">
    <g
       transform="translate(151.940384, 342.374978)"
       id="g134">
      <g
         id="g132" />
    </g>
  </g>
  <g
     fill="#004aad"
     fill-opacity="1"
     id="g144">
    <g
       transform="translate(157.438217, 342.374978)"
       id="g142">
      <g
         id="g140">
        <path
           d="M 12.117188 -9.699219 C 12.117188 -12.117188 10.175781 -13.996094 7.757812 -13.996094 L 1.78125 -13.996094 L 1.78125 0 L 8.339844 0 C 11.195312 0 12.675781 -1.980469 12.695312 -4.417969 C 12.695312 -5.660156 12.15625 -6.699219 11.015625 -7.277344 C 11.695312 -7.839844 12.117188 -8.859375 12.117188 -9.699219 Z M 8.078125 -5.558594 C 9.519531 -5.558594 9.539062 -3.179688 8.097656 -3.179688 L 5.238281 -3.179688 L 5.238281 -5.558594 Z M 7.476562 -10.796875 C 8.917969 -10.796875 8.917969 -8.539062 7.5 -8.539062 L 5.238281 -8.539062 L 5.238281 -10.796875 Z M 7.476562 -10.796875 "
           id="path138" />
      </g>
    </g>
  </g>
  <g
     fill="#004aad"
     fill-opacity="1"
     id="g152">
    <g
       transform="translate(171.152805, 342.374978)"
       id="g150">
      <g
         id="g148">
        <path
           d="M 5.9375 -3.140625 L 5.9375 -10.878906 L 7.578125 -10.878906 L 7.578125 -13.996094 L 0.761719 -13.996094 L 0.761719 -10.878906 L 2.398438 -10.878906 L 2.398438 -3.140625 L 0.621094 -3.140625 L 0.621094 0 L 7.71875 0 L 7.71875 -3.140625 Z M 5.9375 -3.140625 "
           id="path146" />
      </g>
    </g>
  </g>
  <g
     fill="#004aad"
     fill-opacity="1"
     id="g160">
    <g
       transform="translate(179.429537, 342.374978)"
       id="g158">
      <g
         id="g156">
        <path
           d="M 12.117188 -9.699219 C 12.117188 -12.117188 10.175781 -13.996094 7.757812 -13.996094 L 1.78125 -13.996094 L 1.78125 0 L 8.339844 0 C 11.195312 0 12.675781 -1.980469 12.695312 -4.417969 C 12.695312 -5.660156 12.15625 -6.699219 11.015625 -7.277344 C 11.695312 -7.839844 12.117188 -8.859375 12.117188 -9.699219 Z M 8.078125 -5.558594 C 9.519531 -5.558594 9.539062 -3.179688 8.097656 -3.179688 L 5.238281 -3.179688 L 5.238281 -5.558594 Z M 7.476562 -10.796875 C 8.917969 -10.796875 8.917969 -8.539062 7.5 -8.539062 L 5.238281 -8.539062 L 5.238281 -10.796875 Z M 7.476562 -10.796875 "
           id="path154" />
      </g>
    </g>
  </g>
  <g
     fill="#004aad"
     fill-opacity="1"
     id="g168">
    <g
       transform="translate(193.144125, 342.374978)"
       id="g166">
      <g
         id="g164">
        <path
           d="M 5.359375 -13.996094 C 4.140625 -13.996094 2.960938 -13.996094 1.757812 -13.996094 L 1.757812 0 C 4.597656 0 7.558594 0 10.4375 0 C 10.4375 -1.199219 10.4375 -2.019531 10.4375 -3.21875 L 5.359375 -3.21875 C 5.359375 -9.175781 5.359375 -6.757812 5.359375 -13.996094 Z M 5.359375 -13.996094 "
           id="path162" />
      </g>
    </g>
  </g>
  <g
     fill="#004aad"
     fill-opacity="1"
     id="g176">
    <g
       transform="translate(204.259736, 342.374978)"
       id="g174">
      <g
         id="g172">
        <path
           d="M 5.9375 -3.140625 L 5.9375 -10.878906 L 7.578125 -10.878906 L 7.578125 -13.996094 L 0.761719 -13.996094 L 0.761719 -10.878906 L 2.398438 -10.878906 L 2.398438 -3.140625 L 0.621094 -3.140625 L 0.621094 0 L 7.71875 0 L 7.71875 -3.140625 Z M 5.9375 -3.140625 "
           id="path170" />
      </g>
    </g>
  </g>
  <g
     fill="#004aad"
     fill-opacity="1"
     id="g184">
    <g
       transform="translate(212.536469, 342.374978)"
       id="g182">
      <g
         id="g180">
        <path
           d="M 15.277344 -6.976562 C 15.277344 -16.65625 0.917969 -16.65625 0.917969 -6.976562 C 0.917969 2.71875 15.277344 2.71875 15.277344 -6.976562 Z M 4.597656 -6.976562 C 4.597656 -12.015625 11.617188 -12.015625 11.617188 -6.976562 C 11.617188 -1.898438 4.597656 -1.898438 4.597656 -6.976562 Z M 4.597656 -6.976562 "
           id="path178" />
      </g>
    </g>
  </g>
  <g
     fill="#004aad"
     fill-opacity="1"
     id="g192">
    <g
       transform="translate(228.730075, 342.374978)"
       id="g190">
      <g
         id="g188">
        <path
           d="M 3.839844 -10.796875 L 3.839844 0 C 5.019531 0 6.199219 0 7.378906 0 L 7.378906 -10.796875 L 10.796875 -10.796875 C 10.796875 -11.878906 10.796875 -12.9375 10.796875 -13.996094 L 0.398438 -13.996094 C 0.398438 -12.9375 0.398438 -11.878906 0.398438 -10.796875 Z M 3.839844 -10.796875 "
           id="path186" />
      </g>
    </g>
  </g>
  <g
     fill="#004aad"
     fill-opacity="1"
     id="g200">
    <g
       transform="translate(239.965632, 342.374978)"
       id="g198">
      <g
         id="g196">
        <path
           d="M 10.515625 -13.996094 C 7.238281 -13.996094 5.019531 -13.996094 1.78125 -13.996094 C 1.78125 -9.359375 1.78125 -4.679688 1.78125 0 C 5.019531 0 7.417969 0 10.699219 0 C 10.699219 -1.058594 10.699219 -2.140625 10.699219 -3.179688 C 8.597656 -3.179688 7.398438 -3.179688 5.339844 -3.179688 C 5.339844 -4.019531 5.339844 -4.820312 5.339844 -5.636719 L 10.097656 -5.636719 C 10.097656 -6.699219 10.097656 -7.757812 10.097656 -8.816406 L 5.339844 -8.816406 L 5.339844 -10.796875 C 7.398438 -10.796875 8.4375 -10.796875 10.515625 -10.796875 C 10.515625 -11.878906 10.515625 -12.957031 10.515625 -13.996094 Z M 10.515625 -13.996094 "
           id="path194" />
      </g>
    </g>
  </g>
  <g
     fill="#004aad"
     fill-opacity="1"
     id="g208">
    <g
       transform="translate(251.960916, 342.374978)"
       id="g206">
      <g
         id="g204">
        <path
           d="M 0.941406 -7 C 0.960938 -2.238281 4.558594 0.160156 8.117188 0.140625 C 11.097656 0.140625 14.238281 -1.417969 14.757812 -5.378906 C 13.535156 -5.378906 12.4375 -5.378906 11.238281 -5.378906 C 10.855469 -3.878906 9.636719 -3.121094 8.117188 -3.121094 C 6 -3.140625 4.640625 -4.9375 4.640625 -7 C 4.640625 -9.316406 6.019531 -10.898438 8.117188 -10.898438 C 9.617188 -10.898438 10.675781 -10.257812 11.175781 -8.835938 C 12.398438 -8.835938 13.476562 -8.835938 14.695312 -8.835938 C 14.15625 -12.578125 11.015625 -14.15625 8.117188 -14.15625 C 4.558594 -14.15625 0.960938 -11.757812 0.941406 -7 Z M 0.941406 -7 "
           id="path202" />
      </g>
    </g>
  </g>
  <g
     fill="#004aad"
     fill-opacity="1"
     id="g216">
    <g
       transform="translate(267.674706, 342.374978)"
       id="g214">
      <g
         id="g212">
        <path
           d="M 10.675781 0 L 14.175781 0 L 14.175781 -0.519531 L 7.859375 -14.175781 L 6.320312 -14.175781 L 0.0195312 -0.519531 L 0.0195312 0 L 3.519531 0 L 4.339844 -1.757812 L 9.859375 -1.757812 Z M 8.699219 -4.820312 L 5.5 -4.820312 L 7.078125 -8.496094 Z M 8.699219 -4.820312 "
           id="path210" />
      </g>
    </g>
  </g>
  <g
     fill="#004aad"
     fill-opacity="1"
     id="g224">
    <g
       transform="translate(281.909095, 342.374978)"
       id="g222">
      <g
         id="g220">
        <path
           d="M 4.257812 -4.277344 C 3.039062 -4.277344 2 -4.277344 0.800781 -4.277344 C 0.71875 1.878906 12.117188 1.78125 12.117188 -4.097656 C 12.117188 -7.597656 9.398438 -8.019531 6.617188 -8.316406 C 5.359375 -8.457031 4.320312 -8.679688 4.398438 -9.738281 C 4.519531 -11.398438 8.277344 -11.558594 8.277344 -9.699219 C 9.496094 -9.699219 10.417969 -9.699219 11.675781 -9.699219 C 11.757812 -15.734375 0.878906 -15.734375 1 -9.699219 C 1.039062 -6.660156 3.039062 -5.617188 6.078125 -5.398438 C 7.476562 -5.320312 8.636719 -5.097656 8.636719 -4.117188 C 8.636719 -2.480469 4.257812 -2.5 4.257812 -4.277344 Z M 4.257812 -4.277344 "
           id="path218" />
      </g>
    </g>
  </g>
  <g
     fill="#004aad"
     fill-opacity="1"
     id="g230">
    <g
       transform="translate(294.863989, 342.374978)"
       id="g228">
      <g
         id="g226" />
    </g>
  </g>
  <g
     fill="#004aad"
     fill-opacity="1"
     id="g238">
    <g
       transform="translate(300.361822, 342.374978)"
       id="g236">
      <g
         id="g234">
        <path
           d="M 7.199219 -3.019531 C 6.160156 -3.019531 5.058594 -3.578125 5.058594 -4.71875 L 5.058594 -13.996094 C 3.9375 -13.996094 2.757812 -13.996094 1.640625 -13.996094 L 1.640625 -4.660156 C 1.640625 -1.578125 4.339844 0.199219 7.199219 0.199219 C 10.078125 0.199219 12.738281 -1.578125 12.738281 -4.660156 L 12.738281 -13.996094 C 11.617188 -13.996094 10.457031 -13.996094 9.316406 -13.996094 L 9.316406 -4.71875 C 9.316406 -3.578125 8.238281 -3.019531 7.199219 -3.019531 Z M 7.199219 -3.019531 "
           id="path232" />
      </g>
    </g>
  </g>
  <g
     fill="#004aad"
     fill-opacity="1"
     id="g246">
    <g
       transform="translate(314.796117, 342.374978)"
       id="g244">
      <g
         id="g242">
        <path
           d="M 9.917969 -4.539062 C 9.917969 -5.777344 9.917969 -6.539062 9.917969 -7.738281 L 5.417969 -7.738281 L 5.417969 -10.796875 L 10.496094 -10.796875 C 10.496094 -11.996094 10.496094 -12.816406 10.496094 -13.996094 C 7.636719 -13.996094 4.640625 -13.996094 1.78125 -13.996094 L 1.78125 0 C 3 0 4.21875 0 5.417969 0 L 5.417969 -4.539062 Z M 9.917969 -4.539062 "
           id="path240" />
      </g>
    </g>
  </g>
  <g
     fill="#004aad"
     fill-opacity="1"
     id="g254">
    <g
       transform="translate(326.271588, 342.374978)"
       id="g252">
      <g
         id="g250">
        <path
           d="M 9.917969 -4.539062 C 9.917969 -5.777344 9.917969 -6.539062 9.917969 -7.738281 L 5.417969 -7.738281 L 5.417969 -10.796875 L 10.496094 -10.796875 C 10.496094 -11.996094 10.496094 -12.816406 10.496094 -13.996094 C 7.636719 -13.996094 4.640625 -13.996094 1.78125 -13.996094 L 1.78125 0 C 3 0 4.21875 0 5.417969 0 L 5.417969 -4.539062 Z M 9.917969 -4.539062 "
           id="path248" />
      </g>
    </g>
  </g>
</svg>
