<?xml version="1.0" encoding="UTF-8" standalone="no"?>
<svg
   width="500"
   zoomAndPan="magnify"
   viewBox="0 0 375 374.999991"
   height="500"
   preserveAspectRatio="xMidYMid meet"
   version="1.0"
   id="svg72"
   sodipodi:docname="ebooks.svg"
   inkscape:version="1.1.2 (0a00cf5339, 2022-02-04)"
   xmlns:inkscape="http://www.inkscape.org/namespaces/inkscape"
   xmlns:sodipodi="http://sodipodi.sourceforge.net/DTD/sodipodi-0.dtd"
   xmlns="http://www.w3.org/2000/svg"
   xmlns:svg="http://www.w3.org/2000/svg">
  <sodipodi:namedview
     id="namedview74"
     pagecolor="#ffffff"
     bordercolor="#000000"
     borderopacity="0.25"
     inkscape:pageshadow="2"
     inkscape:pageopacity="0.0"
     inkscape:pagecheckerboard="0"
     showgrid="false"
     inkscape:zoom="1.688"
     inkscape:cx="249.70379"
     inkscape:cy="250.29621"
     inkscape:window-width="1920"
     inkscape:window-height="1016"
     inkscape:window-x="1920"
     inkscape:window-y="27"
     inkscape:window-maximized="1"
     inkscape:current-layer="svg72" />
  <defs
     id="defs10">
    <g
       id="g2" />
    <clipPath
       id="03243a6756">
      <path
         d="M 97.375 37.5 L 276 37.5 L 276 302.25 L 97.375 302.25 Z M 97.375 37.5 "
         clip-rule="nonzero"
         id="path4" />
    </clipPath>
    <clipPath
       id="d8c73ce416">
      <path
         d="M 149 84 L 329.875 84 L 329.875 225 L 149 225 Z M 149 84 "
         clip-rule="nonzero"
         id="path7" />
    </clipPath>
  </defs>
  <g
     clip-path="url(#03243a6756)"
     id="g18">
    <path
       fill="#004aad"
       d="M 266.230469 271.851562 C 266.230469 283.625 256.644531 293.210938 244.871094 293.210938 L 201.441406 293.210938 C 205.59375 289.246094 208.214844 283.6875 208.214844 277.507812 C 208.214844 265.507812 198.445312 255.746094 186.445312 255.746094 C 174.441406 255.746094 164.683594 265.507812 164.683594 277.507812 C 164.683594 283.6875 167.300781 289.246094 171.453125 293.210938 L 128.023438 293.210938 C 116.25 293.210938 106.664062 283.625 106.664062 271.851562 L 106.664062 244.492188 L 266.230469 244.492188 Z M 173.980469 277.507812 C 173.980469 270.636719 179.570312 265.042969 186.445312 265.042969 C 193.324219 265.042969 198.917969 270.636719 198.917969 277.507812 C 198.917969 284.390625 193.324219 289.980469 186.445312 289.980469 C 179.570312 289.980469 173.980469 284.390625 173.980469 277.507812 Z M 270.878906 235.195312 L 106.664062 235.195312 L 106.664062 68.1875 C 106.664062 56.40625 116.25 46.828125 128.023438 46.828125 L 244.871094 46.828125 C 256.644531 46.828125 266.230469 56.40625 266.230469 68.1875 C 266.230469 70.757812 268.3125 72.835938 270.878906 72.835938 C 273.449219 72.835938 275.527344 70.757812 275.527344 68.1875 C 275.527344 51.285156 261.773438 37.53125 244.871094 37.53125 L 128.023438 37.53125 C 111.121094 37.53125 97.367188 51.285156 97.367188 68.1875 L 97.367188 271.851562 C 97.367188 288.757812 111.121094 302.507812 128.023438 302.507812 L 244.871094 302.507812 C 261.773438 302.507812 275.527344 288.757812 275.527344 271.851562 L 275.527344 239.84375 C 275.527344 237.273438 273.449219 235.195312 270.878906 235.195312 "
       fill-opacity="1"
       fill-rule="nonzero"
       id="path16" />
  </g>
  <g
     clip-path="url(#d8c73ce416)"
     id="g22">
    <path
       fill="#004aad"
       d="M 320.265625 215.695312 L 248.570312 215.695312 C 253.882812 210.628906 260.789062 207.796875 268.167969 207.796875 L 309.363281 207.796875 C 311.933594 207.796875 314.011719 205.71875 314.011719 203.148438 L 314.011719 106.988281 L 320.265625 106.988281 Z M 158.945312 106.988281 L 165.203125 106.988281 L 165.203125 203.148438 C 165.203125 205.71875 167.28125 207.796875 169.851562 207.796875 L 211.046875 207.796875 C 218.421875 207.796875 225.328125 210.628906 230.640625 215.695312 L 158.945312 215.695312 Z M 174.496094 94.265625 L 211.046875 94.265625 C 218.652344 94.265625 225.796875 97.222656 231.171875 102.601562 L 234.957031 106.390625 L 234.957031 207.035156 C 228.230469 201.503906 219.871094 198.5 211.046875 198.5 L 174.496094 198.5 Z M 268.167969 94.265625 L 304.714844 94.265625 L 304.714844 198.5 L 268.167969 198.5 C 259.34375 198.5 250.980469 201.503906 244.253906 207.035156 L 244.253906 106.390625 L 248.039062 102.601562 C 253.414062 97.222656 260.558594 94.265625 268.167969 94.265625 Z M 324.914062 97.691406 L 314.011719 97.691406 L 314.011719 89.617188 C 314.011719 87.046875 311.933594 84.96875 309.363281 84.96875 L 268.167969 84.96875 C 258.078125 84.96875 248.59375 88.894531 241.46875 96.027344 L 239.605469 97.890625 L 237.746094 96.027344 C 230.617188 88.894531 221.128906 84.96875 211.046875 84.96875 L 169.851562 84.96875 C 167.28125 84.96875 165.203125 87.046875 165.203125 89.617188 L 165.203125 97.691406 L 154.300781 97.691406 C 151.730469 97.691406 149.648438 99.769531 149.648438 102.339844 L 149.648438 220.34375 C 149.648438 222.910156 151.730469 224.988281 154.300781 224.988281 L 324.914062 224.988281 C 327.480469 224.988281 329.5625 222.910156 329.5625 220.34375 L 329.5625 102.339844 C 329.5625 99.769531 327.480469 97.691406 324.914062 97.691406 "
       fill-opacity="1"
       fill-rule="nonzero"
       id="path20" />
  </g>
  <g
     fill="#004aad"
     fill-opacity="1"
     id="g30">
    <g
       transform="translate(144.88579, 342.399998)"
       id="g28">
      <g
         id="g26">
        <path
           d="M 10.515625 -13.996094 C 7.238281 -13.996094 5.019531 -13.996094 1.78125 -13.996094 C 1.78125 -9.359375 1.78125 -4.679688 1.78125 0 C 5.019531 0 7.417969 0 10.699219 0 C 10.699219 -1.058594 10.699219 -2.140625 10.699219 -3.179688 C 8.597656 -3.179688 7.398438 -3.179688 5.339844 -3.179688 C 5.339844 -4.019531 5.339844 -4.820312 5.339844 -5.636719 L 10.097656 -5.636719 C 10.097656 -6.699219 10.097656 -7.757812 10.097656 -8.816406 L 5.339844 -8.816406 L 5.339844 -10.796875 C 7.398438 -10.796875 8.4375 -10.796875 10.515625 -10.796875 C 10.515625 -11.878906 10.515625 -12.957031 10.515625 -13.996094 Z M 10.515625 -13.996094 "
           id="path24" />
      </g>
    </g>
  </g>
  <g
     fill="#004aad"
     fill-opacity="1"
     id="g38">
    <g
       transform="translate(156.881062, 342.399998)"
       id="g36">
      <g
         id="g34">
        <path
           d="M 12.117188 -9.699219 C 12.117188 -12.117188 10.175781 -13.996094 7.757812 -13.996094 L 1.78125 -13.996094 L 1.78125 0 L 8.339844 0 C 11.195312 0 12.675781 -1.980469 12.695312 -4.417969 C 12.695312 -5.660156 12.15625 -6.699219 11.015625 -7.277344 C 11.695312 -7.839844 12.117188 -8.859375 12.117188 -9.699219 Z M 8.078125 -5.558594 C 9.519531 -5.558594 9.539062 -3.179688 8.097656 -3.179688 L 5.238281 -3.179688 L 5.238281 -5.558594 Z M 7.476562 -10.796875 C 8.917969 -10.796875 8.917969 -8.496094 7.5 -8.496094 L 5.238281 -8.496094 L 5.238281 -10.796875 Z M 7.476562 -10.796875 "
           id="path32" />
      </g>
    </g>
  </g>
  <g
     fill="#004aad"
     fill-opacity="1"
     id="g46">
    <g
       transform="translate(170.59565, 342.399998)"
       id="g44">
      <g
         id="g42">
        <path
           d="M 15.277344 -6.976562 C 15.277344 -16.65625 0.917969 -16.65625 0.917969 -6.976562 C 0.917969 2.71875 15.277344 2.71875 15.277344 -6.976562 Z M 4.597656 -6.976562 C 4.597656 -12.015625 11.617188 -12.015625 11.617188 -6.976562 C 11.617188 -1.898438 4.597656 -1.898438 4.597656 -6.976562 Z M 4.597656 -6.976562 "
           id="path40" />
      </g>
    </g>
  </g>
  <g
     fill="#004aad"
     fill-opacity="1"
     id="g54">
    <g
       transform="translate(186.789256, 342.399998)"
       id="g52">
      <g
         id="g50">
        <path
           d="M 15.277344 -6.976562 C 15.277344 -16.65625 0.917969 -16.65625 0.917969 -6.976562 C 0.917969 2.71875 15.277344 2.71875 15.277344 -6.976562 Z M 4.597656 -6.976562 C 4.597656 -12.015625 11.617188 -12.015625 11.617188 -6.976562 C 11.617188 -1.898438 4.597656 -1.898438 4.597656 -6.976562 Z M 4.597656 -6.976562 "
           id="path48" />
      </g>
    </g>
  </g>
  <g
     fill="#004aad"
     fill-opacity="1"
     id="g62">
    <g
       transform="translate(202.982862, 342.399998)"
       id="g60">
      <g
         id="g58">
        <path
           d="M 5.4375 0 L 5.4375 -5.339844 C 5.898438 -5.339844 6.339844 -5.339844 6.816406 -5.417969 L 9.898438 0 L 13.875 0 L 13.875 -0.558594 L 10.078125 -6.71875 C 12.855469 -8.496094 12.777344 -11.136719 12.777344 -13.996094 C 11.539062 -13.996094 10.316406 -13.996094 9.097656 -13.996094 C 9.097656 -11.378906 9.277344 -8.699219 5.699219 -8.699219 L 5.4375 -8.699219 L 5.4375 -13.996094 C 4.199219 -13.996094 3 -13.996094 1.800781 -13.996094 L 1.800781 0 C 3 0 4.199219 0 5.4375 0 Z M 5.4375 0 "
           id="path56" />
      </g>
    </g>
  </g>
  <g
     fill="#004aad"
     fill-opacity="1"
     id="g70">
    <g
       transform="translate(217.13728, 342.399998)"
       id="g68">
      <g
         id="g66">
        <path
           d="M 4.257812 -4.277344 C 3.039062 -4.277344 2 -4.277344 0.800781 -4.277344 C 0.71875 1.878906 12.117188 1.71875 12.117188 -4.160156 C 12.117188 -7.65625 9.398438 -8.019531 6.617188 -8.316406 C 5.359375 -8.457031 4.320312 -8.679688 4.398438 -9.738281 C 4.519531 -11.398438 8.277344 -11.558594 8.277344 -9.699219 C 9.496094 -9.699219 10.417969 -9.699219 11.675781 -9.699219 C 11.757812 -15.734375 0.878906 -15.734375 1 -9.699219 C 1.039062 -6.660156 3.039062 -5.617188 6.078125 -5.398438 C 7.476562 -5.320312 8.636719 -5.160156 8.636719 -4.179688 C 8.636719 -2.539062 4.257812 -2.5 4.257812 -4.277344 Z M 4.257812 -4.277344 "
           id="path64" />
      </g>
    </g>
  </g>
</svg>
