<?xml version="1.0" encoding="UTF-8" standalone="no"?>
<svg
   width="500"
   zoomAndPan="magnify"
   viewBox="0 0 375 374.999991"
   height="500"
   preserveAspectRatio="xMidYMid meet"
   version="1.0"
   id="svg213"
   sodipodi:docname="ferramentas.svg"
   inkscape:version="1.1.2 (0a00cf5339, 2022-02-04)"
   xmlns:inkscape="http://www.inkscape.org/namespaces/inkscape"
   xmlns:sodipodi="http://sodipodi.sourceforge.net/DTD/sodipodi-0.dtd"
   xmlns="http://www.w3.org/2000/svg"
   xmlns:svg="http://www.w3.org/2000/svg">
  <sodipodi:namedview
     id="namedview215"
     pagecolor="#ffffff"
     bordercolor="#000000"
     borderopacity="0.25"
     inkscape:pageshadow="2"
     inkscape:pageopacity="0.0"
     inkscape:pagecheckerboard="0"
     showgrid="false"
     inkscape:zoom="1.688"
     inkscape:cx="249.70379"
     inkscape:cy="250.29621"
     inkscape:window-width="1920"
     inkscape:window-height="1016"
     inkscape:window-x="1920"
     inkscape:window-y="27"
     inkscape:window-maximized="1"
     inkscape:current-layer="svg213" />
  <defs
     id="defs7">
    <g
       id="g2" />
    <clipPath
       id="2b84ea6792">
      <path
         d="M 52.320312 37.5 L 322.679688 37.5 L 322.679688 290.214844 L 52.320312 290.214844 Z M 52.320312 37.5 "
         clip-rule="nonzero"
         id="path4" />
    </clipPath>
  </defs>
  <g
     clip-path="url(#2b84ea6792)"
     id="g15">
    <path
       fill="#004aad"
       d="M 314.230469 277.113281 C 314.230469 279.65625 312.117188 281.769531 309.574219 281.769531 L 147.296875 281.769531 C 144.777344 281.769531 142.664062 279.65625 142.664062 277.113281 L 142.664062 249.222656 C 156.609375 247.949219 169.28125 242.042969 179.410156 231.890625 C 214.910156 196.394531 192.515625 135.140625 142.664062 130.890625 L 142.664062 50.605469 C 142.664062 48.085938 144.777344 45.972656 147.296875 45.972656 L 309.574219 45.972656 C 312.117188 45.972656 314.230469 48.085938 314.230469 50.605469 Z M 77.570312 264.007812 C 73.777344 267.824219 67.441406 267.824219 63.625 264.007812 C 59.832031 260.214844 59.832031 253.878906 63.625 250.0625 L 89.402344 224.285156 C 93.628906 229.78125 97.445312 234.003906 103.347656 238.226562 Z M 137.574219 138.933594 C 182.796875 138.933594 205.621094 193.871094 173.507812 225.988281 C 153.632812 245.835938 121.519531 245.835938 101.667969 225.988281 C 69.554688 194.28125 92.355469 138.933594 137.574219 138.933594 Z M 309.574219 37.523438 L 147.296875 37.523438 C 140.121094 37.523438 134.191406 43.429688 134.191406 50.605469 L 134.191406 130.914062 C 91.515625 133.027344 65.304688 179.085938 84.746094 217.105469 L 57.695312 244.15625 C 50.519531 251.332031 50.519531 262.757812 57.695312 269.933594 C 64.898438 277.113281 76.296875 277.113281 83.5 269.933594 L 110.527344 242.886719 C 117.726562 246.699219 125.742188 248.8125 134.191406 249.222656 L 134.191406 277.113281 C 134.191406 284.3125 140.121094 290.214844 147.296875 290.214844 L 309.574219 290.214844 C 316.75 290.214844 322.679688 284.3125 322.679688 277.113281 L 322.679688 50.605469 C 322.679688 43.429688 316.75 37.5 309.574219 37.5 L 309.574219 37.523438 "
       fill-opacity="1"
       fill-rule="nonzero"
       id="path13" />
  </g>
  <path
     fill="#004aad"
     d="M 291.8125 200.640625 L 214.910156 200.640625 C 212.367188 200.640625 210.6875 202.320312 210.6875 204.867188 C 210.6875 207.386719 212.367188 209.089844 214.910156 209.089844 L 291.835938 209.089844 C 294.378906 209.089844 296.0625 207.386719 296.0625 204.867188 C 296.0625 202.320312 294.378906 200.640625 291.8125 200.640625 "
     fill-opacity="1"
     fill-rule="nonzero"
     id="path17" />
  <path
     fill="#004aad"
     d="M 291.8125 118.652344 L 165.035156 118.652344 C 162.515625 118.652344 160.808594 120.332031 160.808594 122.875 C 160.808594 125.417969 162.515625 127.097656 165.035156 127.097656 L 291.8125 127.097656 C 294.355469 127.097656 296.035156 125.417969 296.035156 122.875 C 296.035156 120.332031 294.355469 118.652344 291.8125 118.652344 "
     fill-opacity="1"
     fill-rule="nonzero"
     id="path19" />
  <path
     fill="#004aad"
     d="M 291.8125 227.667969 L 198.851562 227.667969 C 196.308594 227.667969 194.628906 229.371094 194.628906 231.890625 C 194.628906 234.4375 196.308594 236.140625 198.851562 236.140625 L 291.8125 236.140625 C 294.355469 236.140625 296.035156 234.4375 296.035156 231.890625 C 296.035156 229.371094 294.355469 227.667969 291.8125 227.667969 "
     fill-opacity="1"
     fill-rule="nonzero"
     id="path21" />
  <path
     fill="#004aad"
     d="M 291.8125 146.109375 L 198.851562 146.109375 C 196.308594 146.109375 194.628906 147.8125 194.628906 150.332031 C 194.628906 152.878906 196.308594 154.558594 198.851562 154.558594 L 291.8125 154.558594 C 294.355469 154.558594 296.035156 152.878906 296.035156 150.332031 C 296.035156 147.8125 294.355469 146.109375 291.8125 146.109375 "
     fill-opacity="1"
     fill-rule="nonzero"
     id="path23" />
  <path
     fill="#004aad"
     d="M 291.8125 173.160156 L 214.910156 173.160156 C 212.367188 173.160156 210.6875 174.863281 210.6875 177.382812 C 210.6875 179.925781 212.367188 181.609375 214.910156 181.609375 L 291.835938 181.609375 C 294.378906 181.609375 296.0625 179.925781 296.0625 177.382812 C 296.0625 174.863281 294.378906 173.160156 291.8125 173.160156 "
     fill-opacity="1"
     fill-rule="nonzero"
     id="path25" />
  <path
     fill="#004aad"
     d="M 291.8125 255.148438 L 165.035156 255.148438 C 162.515625 255.148438 160.808594 256.828125 160.808594 259.375 C 160.808594 261.894531 162.515625 263.597656 165.035156 263.597656 L 291.8125 263.597656 C 294.355469 263.597656 296.035156 261.894531 296.035156 259.375 C 296.035156 256.828125 294.355469 255.148438 291.8125 255.148438 "
     fill-opacity="1"
     fill-rule="nonzero"
     id="path27" />
  <path
     fill="#004aad"
     d="M 291.8125 91.601562 L 165.035156 91.601562 C 162.515625 91.601562 160.808594 93.304688 160.808594 95.824219 C 160.808594 98.367188 162.515625 100.050781 165.035156 100.050781 L 291.8125 100.050781 C 294.355469 100.050781 296.035156 98.367188 296.035156 95.824219 C 296.035156 93.304688 294.355469 91.601562 291.8125 91.601562 "
     fill-opacity="1"
     fill-rule="nonzero"
     id="path29" />
  <path
     fill="#004aad"
     d="M 291.8125 64.140625 L 165.035156 64.140625 C 162.515625 64.140625 160.808594 65.824219 160.808594 68.367188 C 160.808594 70.886719 162.515625 72.589844 165.035156 72.589844 L 291.8125 72.589844 C 294.355469 72.589844 296.035156 70.886719 296.035156 68.367188 C 296.035156 65.824219 294.355469 64.140625 291.8125 64.140625 "
     fill-opacity="1"
     fill-rule="nonzero"
     id="path31" />
  <g
     fill="#004aad"
     fill-opacity="1"
     id="g39">
    <g
       transform="translate(41.643609, 342.374978)"
       id="g37">
      <g
         id="g35">
        <path
           d="M 9.917969 -4.539062 C 9.917969 -5.777344 9.917969 -6.539062 9.917969 -7.738281 L 5.417969 -7.738281 L 5.417969 -10.796875 L 10.496094 -10.796875 C 10.496094 -11.996094 10.496094 -12.816406 10.496094 -13.996094 C 7.636719 -13.996094 4.640625 -13.996094 1.78125 -13.996094 L 1.78125 0 C 3 0 4.21875 0 5.417969 0 L 5.417969 -4.539062 Z M 9.917969 -4.539062 "
           id="path33" />
      </g>
    </g>
  </g>
  <g
     fill="#004aad"
     fill-opacity="1"
     id="g47">
    <g
       transform="translate(53.11908, 342.374978)"
       id="g45">
      <g
         id="g43">
        <path
           d="M 10.515625 -13.996094 C 7.238281 -13.996094 5.019531 -13.996094 1.78125 -13.996094 C 1.78125 -9.359375 1.78125 -4.679688 1.78125 0 C 5.019531 0 7.417969 0 10.699219 0 C 10.699219 -1.058594 10.699219 -2.140625 10.699219 -3.179688 C 8.597656 -3.179688 7.398438 -3.179688 5.339844 -3.179688 C 5.339844 -4.019531 5.339844 -4.820312 5.339844 -5.636719 L 10.097656 -5.636719 C 10.097656 -6.699219 10.097656 -7.757812 10.097656 -8.816406 L 5.339844 -8.816406 L 5.339844 -10.796875 C 7.398438 -10.796875 8.4375 -10.796875 10.515625 -10.796875 C 10.515625 -11.878906 10.515625 -12.957031 10.515625 -13.996094 Z M 10.515625 -13.996094 "
           id="path41" />
      </g>
    </g>
  </g>
  <g
     fill="#004aad"
     fill-opacity="1"
     id="g55">
    <g
       transform="translate(65.114352, 342.374978)"
       id="g53">
      <g
         id="g51">
        <path
           d="M 10.855469 -4.957031 C 14.394531 -7.359375 13.398438 -13.976562 7.898438 -13.996094 C 5.859375 -13.996094 3.777344 -13.996094 1.757812 -13.996094 C 1.757812 -9.316406 1.757812 -4.660156 1.757812 0 C 2.917969 0 4.140625 0 5.339844 0 L 5.339844 -4.117188 L 7.199219 -4.117188 L 9.597656 0 L 13.597656 0 L 13.597656 -0.519531 Z M 7.898438 -7.296875 L 5.339844 -7.296875 C 5.339844 -8.417969 5.339844 -9.65625 5.339844 -10.796875 C 6.179688 -10.796875 7.058594 -10.816406 7.898438 -10.796875 C 9.9375 -10.777344 9.835938 -7.296875 7.898438 -7.296875 Z M 7.898438 -7.296875 "
           id="path49" />
      </g>
    </g>
  </g>
  <g
     fill="#004aad"
     fill-opacity="1"
     id="g63">
    <g
       transform="translate(79.088835, 342.374978)"
       id="g61">
      <g
         id="g59">
        <path
           d="M 10.855469 -4.957031 C 14.394531 -7.359375 13.398438 -13.976562 7.898438 -13.996094 C 5.859375 -13.996094 3.777344 -13.996094 1.757812 -13.996094 C 1.757812 -9.316406 1.757812 -4.660156 1.757812 0 C 2.917969 0 4.140625 0 5.339844 0 L 5.339844 -4.117188 L 7.199219 -4.117188 L 9.597656 0 L 13.597656 0 L 13.597656 -0.519531 Z M 7.898438 -7.296875 L 5.339844 -7.296875 C 5.339844 -8.417969 5.339844 -9.65625 5.339844 -10.796875 C 6.179688 -10.796875 7.058594 -10.816406 7.898438 -10.796875 C 9.9375 -10.777344 9.835938 -7.296875 7.898438 -7.296875 Z M 7.898438 -7.296875 "
           id="path57" />
      </g>
    </g>
  </g>
  <g
     fill="#004aad"
     fill-opacity="1"
     id="g71">
    <g
       transform="translate(93.063318, 342.374978)"
       id="g69">
      <g
         id="g67">
        <path
           d="M 10.675781 0 L 14.175781 0 L 14.175781 -0.519531 L 7.859375 -14.175781 L 6.320312 -14.175781 L 0.0195312 -0.519531 L 0.0195312 0 L 3.519531 0 L 4.339844 -1.757812 L 9.859375 -1.757812 Z M 8.699219 -4.820312 L 5.5 -4.820312 L 7.078125 -8.496094 Z M 8.699219 -4.820312 "
           id="path65" />
      </g>
    </g>
  </g>
  <g
     fill="#004aad"
     fill-opacity="1"
     id="g79">
    <g
       transform="translate(107.297707, 342.374978)"
       id="g77">
      <g
         id="g75">
        <path
           d="M 8.558594 -7.957031 L 3.078125 -14.035156 L 1.757812 -14.035156 L 1.757812 0 C 2.980469 0 4.199219 0 5.417969 0 L 5.417969 -6.238281 L 8.378906 -3.121094 L 8.777344 -3.121094 L 11.757812 -6.238281 L 11.757812 0 C 12.976562 0 14.195312 0 15.417969 0 L 15.417969 -14.035156 L 14.136719 -14.035156 Z M 8.558594 -7.957031 "
           id="path73" />
      </g>
    </g>
  </g>
  <g
     fill="#004aad"
     fill-opacity="1"
     id="g87">
    <g
       transform="translate(124.490921, 342.374978)"
       id="g85">
      <g
         id="g83">
        <path
           d="M 10.515625 -13.996094 C 7.238281 -13.996094 5.019531 -13.996094 1.78125 -13.996094 C 1.78125 -9.359375 1.78125 -4.679688 1.78125 0 C 5.019531 0 7.417969 0 10.699219 0 C 10.699219 -1.058594 10.699219 -2.140625 10.699219 -3.179688 C 8.597656 -3.179688 7.398438 -3.179688 5.339844 -3.179688 C 5.339844 -4.019531 5.339844 -4.820312 5.339844 -5.636719 L 10.097656 -5.636719 C 10.097656 -6.699219 10.097656 -7.757812 10.097656 -8.816406 L 5.339844 -8.816406 L 5.339844 -10.796875 C 7.398438 -10.796875 8.4375 -10.796875 10.515625 -10.796875 C 10.515625 -11.878906 10.515625 -12.957031 10.515625 -13.996094 Z M 10.515625 -13.996094 "
           id="path81" />
      </g>
    </g>
  </g>
  <g
     fill="#004aad"
     fill-opacity="1"
     id="g95">
    <g
       transform="translate(136.486194, 342.374978)"
       id="g93">
      <g
         id="g91">
        <path
           d="M 12.535156 0.0195312 L 13.816406 0.0195312 L 13.816406 -13.996094 C 12.597656 -13.996094 11.378906 -13.996094 10.15625 -13.996094 L 10.15625 -7.136719 L 3.078125 -14.054688 L 1.78125 -14.054688 L 1.78125 0 C 3 0 4.238281 0 5.480469 0 L 5.480469 -6.878906 Z M 12.535156 0.0195312 "
           id="path89" />
      </g>
    </g>
  </g>
  <g
     fill="#004aad"
     fill-opacity="1"
     id="g103">
    <g
       transform="translate(152.080038, 342.374978)"
       id="g101">
      <g
         id="g99">
        <path
           d="M 3.839844 -10.796875 L 3.839844 0 C 5.019531 0 6.199219 0 7.378906 0 L 7.378906 -10.796875 L 10.796875 -10.796875 C 10.796875 -11.878906 10.796875 -12.9375 10.796875 -13.996094 L 0.398438 -13.996094 C 0.398438 -12.9375 0.398438 -11.878906 0.398438 -10.796875 Z M 3.839844 -10.796875 "
           id="path97" />
      </g>
    </g>
  </g>
  <g
     fill="#004aad"
     fill-opacity="1"
     id="g111">
    <g
       transform="translate(163.315606, 342.374978)"
       id="g109">
      <g
         id="g107">
        <path
           d="M 10.675781 0 L 14.175781 0 L 14.175781 -0.519531 L 7.859375 -14.175781 L 6.320312 -14.175781 L 0.0195312 -0.519531 L 0.0195312 0 L 3.519531 0 L 4.339844 -1.757812 L 9.859375 -1.757812 Z M 8.699219 -4.820312 L 5.5 -4.820312 L 7.078125 -8.496094 Z M 8.699219 -4.820312 "
           id="path105" />
      </g>
    </g>
  </g>
  <g
     fill="#004aad"
     fill-opacity="1"
     id="g119">
    <g
       transform="translate(177.549996, 342.374978)"
       id="g117">
      <g
         id="g115">
        <path
           d="M 4.257812 -4.277344 C 3.039062 -4.277344 2 -4.277344 0.800781 -4.277344 C 0.71875 1.878906 12.117188 1.78125 12.117188 -4.097656 C 12.117188 -7.597656 9.398438 -8.019531 6.617188 -8.316406 C 5.359375 -8.457031 4.320312 -8.679688 4.398438 -9.738281 C 4.519531 -11.398438 8.277344 -11.558594 8.277344 -9.699219 C 9.496094 -9.699219 10.417969 -9.699219 11.675781 -9.699219 C 11.757812 -15.734375 0.878906 -15.734375 1 -9.699219 C 1.039062 -6.660156 3.039062 -5.617188 6.078125 -5.398438 C 7.476562 -5.320312 8.636719 -5.097656 8.636719 -4.117188 C 8.636719 -2.480469 4.257812 -2.5 4.257812 -4.277344 Z M 4.257812 -4.277344 "
           id="path113" />
      </g>
    </g>
  </g>
  <g
     fill="#004aad"
     fill-opacity="1"
     id="g125">
    <g
       transform="translate(190.50489, 342.374978)"
       id="g123">
      <g
         id="g121" />
    </g>
  </g>
  <g
     fill="#004aad"
     fill-opacity="1"
     id="g133">
    <g
       transform="translate(196.002722, 342.374978)"
       id="g131">
      <g
         id="g129">
        <path
           d="M 7.058594 -13.996094 L 1.78125 -13.996094 L 1.78125 0 L 7.058594 0 C 16.175781 -0.0390625 16.175781 -13.957031 7.058594 -13.996094 Z M 5.359375 -10.738281 L 7.058594 -10.738281 C 11.515625 -10.738281 11.515625 -3.257812 7.058594 -3.257812 L 5.359375 -3.257812 Z M 5.359375 -10.738281 "
           id="path127" />
      </g>
    </g>
  </g>
  <g
     fill="#004aad"
     fill-opacity="1"
     id="g141">
    <g
       transform="translate(210.836874, 342.374978)"
       id="g139">
      <g
         id="g137">
        <path
           d="M 10.515625 -13.996094 C 7.238281 -13.996094 5.019531 -13.996094 1.78125 -13.996094 C 1.78125 -9.359375 1.78125 -4.679688 1.78125 0 C 5.019531 0 7.417969 0 10.699219 0 C 10.699219 -1.058594 10.699219 -2.140625 10.699219 -3.179688 C 8.597656 -3.179688 7.398438 -3.179688 5.339844 -3.179688 C 5.339844 -4.019531 5.339844 -4.820312 5.339844 -5.636719 L 10.097656 -5.636719 C 10.097656 -6.699219 10.097656 -7.757812 10.097656 -8.816406 L 5.339844 -8.816406 L 5.339844 -10.796875 C 7.398438 -10.796875 8.4375 -10.796875 10.515625 -10.796875 C 10.515625 -11.878906 10.515625 -12.957031 10.515625 -13.996094 Z M 10.515625 -13.996094 "
           id="path135" />
      </g>
    </g>
  </g>
  <g
     fill="#004aad"
     fill-opacity="1"
     id="g147">
    <g
       transform="translate(222.832147, 342.374978)"
       id="g145">
      <g
         id="g143" />
    </g>
  </g>
  <g
     fill="#004aad"
     fill-opacity="1"
     id="g155">
    <g
       transform="translate(228.32998, 342.374978)"
       id="g153">
      <g
         id="g151">
        <path
           d="M 5.359375 0 L 5.359375 -3.578125 L 7.9375 -3.578125 C 14.636719 -3.578125 14.636719 -13.976562 7.9375 -13.996094 C 5.878906 -13.996094 3.800781 -13.996094 1.78125 -13.996094 C 1.78125 -9.316406 1.78125 -4.660156 1.78125 0 C 2.960938 0 4.160156 0 5.359375 0 Z M 7.917969 -6.796875 L 5.359375 -6.796875 C 5.359375 -7.9375 5.359375 -9.65625 5.359375 -10.796875 C 6.179688 -10.796875 7.078125 -10.816406 7.917969 -10.796875 C 9.996094 -10.777344 9.878906 -6.796875 7.917969 -6.796875 Z M 7.917969 -6.796875 "
           id="path149" />
      </g>
    </g>
  </g>
  <g
     fill="#004aad"
     fill-opacity="1"
     id="g163">
    <g
       transform="translate(242.204509, 342.374978)"
       id="g161">
      <g
         id="g159">
        <path
           d="M 10.515625 -13.996094 C 7.238281 -13.996094 5.019531 -13.996094 1.78125 -13.996094 C 1.78125 -9.359375 1.78125 -4.679688 1.78125 0 C 5.019531 0 7.417969 0 10.699219 0 C 10.699219 -1.058594 10.699219 -2.140625 10.699219 -3.179688 C 8.597656 -3.179688 7.398438 -3.179688 5.339844 -3.179688 C 5.339844 -4.019531 5.339844 -4.820312 5.339844 -5.636719 L 10.097656 -5.636719 C 10.097656 -6.699219 10.097656 -7.757812 10.097656 -8.816406 L 5.339844 -8.816406 L 5.339844 -10.796875 C 7.398438 -10.796875 8.4375 -10.796875 10.515625 -10.796875 C 10.515625 -11.878906 10.515625 -12.957031 10.515625 -13.996094 Z M 10.515625 -13.996094 "
           id="path157" />
      </g>
    </g>
  </g>
  <g
     fill="#004aad"
     fill-opacity="1"
     id="g171">
    <g
       transform="translate(254.199793, 342.374978)"
       id="g169">
      <g
         id="g167">
        <path
           d="M 4.257812 -4.277344 C 3.039062 -4.277344 2 -4.277344 0.800781 -4.277344 C 0.71875 1.878906 12.117188 1.78125 12.117188 -4.097656 C 12.117188 -7.597656 9.398438 -8.019531 6.617188 -8.316406 C 5.359375 -8.457031 4.320312 -8.679688 4.398438 -9.738281 C 4.519531 -11.398438 8.277344 -11.558594 8.277344 -9.699219 C 9.496094 -9.699219 10.417969 -9.699219 11.675781 -9.699219 C 11.757812 -15.734375 0.878906 -15.734375 1 -9.699219 C 1.039062 -6.660156 3.039062 -5.617188 6.078125 -5.398438 C 7.476562 -5.320312 8.636719 -5.097656 8.636719 -4.117188 C 8.636719 -2.480469 4.257812 -2.5 4.257812 -4.277344 Z M 4.257812 -4.277344 "
           id="path165" />
      </g>
    </g>
  </g>
  <g
     fill="#004aad"
     fill-opacity="1"
     id="g179">
    <g
       transform="translate(267.154687, 342.374978)"
       id="g177">
      <g
         id="g175">
        <path
           d="M 15.617188 0 L 15.617188 -0.460938 L 14.175781 -2.839844 C 14.875 -3.9375 15.296875 -5.320312 15.296875 -6.976562 C 15.296875 -16.65625 0.941406 -16.65625 0.941406 -6.976562 C 0.941406 -0.519531 7.398438 1.621094 11.636719 -0.640625 L 11.976562 0 Z M 4.617188 -6.976562 C 4.617188 -12.015625 11.617188 -12.015625 11.617188 -6.976562 C 11.617188 -1.898438 4.617188 -1.898438 4.617188 -6.976562 Z M 4.617188 -6.976562 "
           id="path173" />
      </g>
    </g>
  </g>
  <g
     fill="#004aad"
     fill-opacity="1"
     id="g187">
    <g
       transform="translate(283.428276, 342.374978)"
       id="g185">
      <g
         id="g183">
        <path
           d="M 7.199219 -3.019531 C 6.160156 -3.019531 5.058594 -3.578125 5.058594 -4.71875 L 5.058594 -13.996094 C 3.9375 -13.996094 2.757812 -13.996094 1.640625 -13.996094 L 1.640625 -4.660156 C 1.640625 -1.578125 4.339844 0.199219 7.199219 0.199219 C 10.078125 0.199219 12.738281 -1.578125 12.738281 -4.660156 L 12.738281 -13.996094 C 11.617188 -13.996094 10.457031 -13.996094 9.316406 -13.996094 L 9.316406 -4.71875 C 9.316406 -3.578125 8.238281 -3.019531 7.199219 -3.019531 Z M 7.199219 -3.019531 "
           id="path181" />
      </g>
    </g>
  </g>
  <g
     fill="#004aad"
     fill-opacity="1"
     id="g195">
    <g
       transform="translate(297.862571, 342.374978)"
       id="g193">
      <g
         id="g191">
        <path
           d="M 5.9375 -3.140625 L 5.9375 -10.878906 L 7.578125 -10.878906 L 7.578125 -13.996094 L 0.761719 -13.996094 L 0.761719 -10.878906 L 2.398438 -10.878906 L 2.398438 -3.140625 L 0.621094 -3.140625 L 0.621094 0 L 7.71875 0 L 7.71875 -3.140625 Z M 5.9375 -3.140625 "
           id="path189" />
      </g>
    </g>
  </g>
  <g
     fill="#004aad"
     fill-opacity="1"
     id="g203">
    <g
       transform="translate(306.139304, 342.374978)"
       id="g201">
      <g
         id="g199">
        <path
           d="M 4.257812 -4.277344 C 3.039062 -4.277344 2 -4.277344 0.800781 -4.277344 C 0.71875 1.878906 12.117188 1.78125 12.117188 -4.097656 C 12.117188 -7.597656 9.398438 -8.019531 6.617188 -8.316406 C 5.359375 -8.457031 4.320312 -8.679688 4.398438 -9.738281 C 4.519531 -11.398438 8.277344 -11.558594 8.277344 -9.699219 C 9.496094 -9.699219 10.417969 -9.699219 11.675781 -9.699219 C 11.757812 -15.734375 0.878906 -15.734375 1 -9.699219 C 1.039062 -6.660156 3.039062 -5.617188 6.078125 -5.398438 C 7.476562 -5.320312 8.636719 -5.097656 8.636719 -4.117188 C 8.636719 -2.480469 4.257812 -2.5 4.257812 -4.277344 Z M 4.257812 -4.277344 "
           id="path197" />
      </g>
    </g>
  </g>
  <g
     fill="#004aad"
     fill-opacity="1"
     id="g211">
    <g
       transform="translate(319.094198, 342.374978)"
       id="g209">
      <g
         id="g207">
        <path
           d="M 10.675781 0 L 14.175781 0 L 14.175781 -0.519531 L 7.859375 -14.175781 L 6.320312 -14.175781 L 0.0195312 -0.519531 L 0.0195312 0 L 3.519531 0 L 4.339844 -1.757812 L 9.859375 -1.757812 Z M 8.699219 -4.820312 L 5.5 -4.820312 L 7.078125 -8.496094 Z M 8.699219 -4.820312 "
           id="path205" />
      </g>
    </g>
  </g>
</svg>
