<?xml version="1.0" encoding="UTF-8" standalone="no"?>
<!-- Generator: Adobe Illustrator 16.0.0, SVG Export Plug-In . SVG Version: 6.00 Build 0)  -->

<svg
   version="1.1"
   id="Camada_1"
   x="0px"
   y="0px"
   width="69.100693"
   height="52.192127"
   viewBox="0 0 69.100691 52.192127"
   enable-background="new 0 0 374.952 374.952"
   xml:space="preserve"
   sodipodi:docname="logo_pergamum_mobile.svg"
   inkscape:version="1.2.1 (9c6d41e410, 2022-07-14)"
   xmlns:inkscape="http://www.inkscape.org/namespaces/inkscape"
   xmlns:sodipodi="http://sodipodi.sourceforge.net/DTD/sodipodi-0.dtd"
   xmlns="http://www.w3.org/2000/svg"
   xmlns:svg="http://www.w3.org/2000/svg"><defs
   id="defs309" /><sodipodi:namedview
   id="namedview307"
   pagecolor="#ffffff"
   bordercolor="#000000"
   borderopacity="0.25"
   inkscape:showpageshadow="2"
   inkscape:pageopacity="0.0"
   inkscape:pagecheckerboard="0"
   inkscape:deskcolor="#d1d1d1"
   showgrid="false"
   inkscape:zoom="2.1709446"
   inkscape:cx="35.007803"
   inkscape:cy="69.554976"
   inkscape:window-width="1920"
   inkscape:window-height="1017"
   inkscape:window-x="-8"
   inkscape:window-y="-8"
   inkscape:window-maximized="1"
   inkscape:current-layer="g302" />


<g
   id="g304"
   transform="translate(-152.66371,-118.59858)">
	<g
   id="g302">
		
		
		
		
		
		
		
		
		
		
		
		
		
		
		
		
		
		
		
		
		
		
		
		
		
		
		
		
		
		
		
		
		
		
		
		
		
		
		
		
		
		
		
		
		
		
		
		
		
		
		
		
		
		
		
		
		
		
		
		
		
		
		
		
		<path
   fill-rule="evenodd"
   clip-rule="evenodd"
   fill="#07496b"
   d="m 158.98,136.1 c 7.972,5.177 16.102,3.729 24.116,1.999 5.059,-1.091 9.906,-3.159 14.962,-4.271 4.738,-1.043 9.629,-1.396 14.183,1.108 3.538,1.944 4.013,4.887 1.359,7.967 -1.353,1.57 -3.094,2.365 -5.026,2.937 -5.117,1.511 -6.008,0.842 -6.175,-4.301 -0.057,-1.75 1.319,-4.5 -2.523,-4.392 -3.817,0.106 -5.682,1.395 -5.724,4.744 -0.072,5.616 -0.017,11.233 -0.028,16.851 -0.002,1.204 0.342,2.556 -1.675,2.601 -10.096,0.223 -20.099,-0.006 -29.576,-4.237 -2.768,-1.235 -4.223,-2.741 -3.982,-6.088 0.348,-4.842 0.089,-9.728 0.089,-14.918 z"
   id="path292" />
		<path
   fill-rule="evenodd"
   clip-rule="evenodd"
   fill="#07496b"
   d="m 215.287,143.806 c 0,2.465 0,4.313 0,6.16 0.001,6.029 -0.231,6.247 -6.031,8.501 -3.718,1.444 -7.667,1.783 -11.485,2.734 -1.64,0.407 -2.126,-0.365 -2.094,-1.983 0.089,-4.603 0.031,-9.208 0.031,-14.101 6.611,3.317 13,4.251 19.579,-1.311 z"
   id="path294" />
		<path
   fill-rule="evenodd"
   clip-rule="evenodd"
   fill="#07496b"
   d="m 166.454,131.022 c -0.163,1.097 -0.193,1.465 -0.274,1.821 -0.334,1.474 0.969,3.644 -0.845,4.317 -1.412,0.524 -3.152,-0.684 -4.206,-1.923 -1.228,-1.446 -2.669,-2.895 -1.552,-5.233 0.752,-1.574 1.844,-2.575 3.317,-3.331 3.682,-1.891 7.574,-2.131 11.555,-1.411 2.621,0.474 3.875,2.563 3.759,4.814 -0.108,2.1 -1.946,3.25 -4.217,3.453 -2.724,0.246 -5.136,-0.439 -7.537,-2.507 z"
   id="path296" />
		<path
   fill-rule="evenodd"
   clip-rule="evenodd"
   fill="#07496b"
   d="m 168.13,134.482 c 3.56,0.789 6.914,1.179 10.088,-0.785 1.46,4.438 -1.537,4.252 -4.363,4.309 -5.883,0.118 -5.883,0.133 -5.725,-3.524 z"
   id="path298" />
		
	</g>
</g>
</svg>
