<?xml version="1.0" encoding="UTF-8" standalone="no"?>
<svg
   width="500"
   zoomAndPan="magnify"
   viewBox="0 0 375 374.999991"
   height="500"
   preserveAspectRatio="xMidYMid meet"
   version="1.0"
   id="svg1062"
   sodipodi:docname="pre-cadastro.svg"
   inkscape:version="1.1.2 (0a00cf5339, 2022-02-04)"
   xmlns:inkscape="http://www.inkscape.org/namespaces/inkscape"
   xmlns:sodipodi="http://sodipodi.sourceforge.net/DTD/sodipodi-0.dtd"
   xmlns="http://www.w3.org/2000/svg"
   xmlns:svg="http://www.w3.org/2000/svg">
  <sodipodi:namedview
     id="namedview1064"
     pagecolor="#ffffff"
     bordercolor="#666666"
     borderopacity="1.0"
     inkscape:pageshadow="2"
     inkscape:pageopacity="0.0"
     inkscape:pagecheckerboard="0"
     showgrid="false"
     inkscape:zoom="0.495"
     inkscape:cx="-55.555556"
     inkscape:cy="380.80808"
     inkscape:window-width="1366"
     inkscape:window-height="704"
     inkscape:window-x="0"
     inkscape:window-y="27"
     inkscape:window-maximized="1"
     inkscape:current-layer="svg1062" />
  <defs
     id="defs842">
    <g
       id="g834" />
    <clipPath
       id="d3a1f33d0f">
      <path
         d="M 51.898438 87 L 323.398438 87 L 323.398438 278 L 51.898438 278 Z M 51.898438 87 "
         clip-rule="nonzero"
         id="path836" />
    </clipPath>
    <clipPath
       id="4122d924f4">
      <path
         d="M 106 27.699219 L 243 27.699219 L 243 198 L 106 198 Z M 106 27.699219 "
         clip-rule="nonzero"
         id="path839" />
    </clipPath>
  </defs>
  <g
     id="g1686"
     transform="matrix(1.33698,0,0,1.33698,-63.17853,-30.824658)">
    <path
       fill="#004aad"
       d="m 187.49609,264.99609 c -1.90625,0 -8.68359,0 -16.94922,0.63672 v 7.83985 c 0,0.21093 0,0.42187 0,0.63281 5.08594,-0.42188 10.80469,-0.63281 16.94922,-0.63281 6.14453,0 11.86719,0.21093 16.95313,0.63281 0,-0.21094 0,-0.42188 0,-0.63281 v -7.83985 c -8.26563,-0.63672 -15.04297,-0.63672 -16.95313,-0.63672 z m 0,0"
       fill-opacity="1"
       fill-rule="nonzero"
       id="path848" />
    <path
       fill="#004aad"
       d="m 130.29297,281.94531 c 0,16.52735 51.27344,16.94922 57.20312,16.94922 5.9336,0 57.20703,-0.42187 57.20703,-16.94922 0,-5.71875 -6.35546,-9.53125 -14.83203,-12.07422 v 3.60157 c 0,1.69531 -0.42187,3.39062 -1.05859,4.87109 3.8125,1.27344 6.35547,2.54297 7.20312,3.60156 -2.7539,3.17969 -20.1289,8.47656 -48.51953,8.47656 -28.39062,0 -45.76172,-5.29687 -48.51562,-8.47656 0.84765,-1.05859 3.38672,-2.32812 7.20312,-3.60156 -0.63672,-1.48047 -1.05859,-3.17578 -1.05859,-4.87109 v -3.60157 c -8.47656,2.54297 -14.83203,6.35547 -14.83203,12.07422 z m 0,0"
       fill-opacity="1"
       fill-rule="nonzero"
       id="path850" />
    <path
       fill="#004aad"
       d="m 191.73437,239.57422 c 0,0.27734 -0.0273,0.55078 -0.082,0.82422 -0.0547,0.27343 -0.13281,0.53906 -0.23828,0.79687 -0.10937,0.25391 -0.23828,0.5 -0.39453,0.73047 -0.15234,0.23047 -0.32812,0.44531 -0.52734,0.64453 -0.19532,0.19531 -0.41016,0.3711 -0.64063,0.52344 -0.23047,0.15625 -0.47656,0.28516 -0.73047,0.39453 -0.25781,0.10547 -0.52343,0.1875 -0.79687,0.23828 -0.27344,0.0547 -0.54688,0.082 -0.82813,0.082 -0.27734,0 -0.55078,-0.0273 -0.82422,-0.082 -0.27343,-0.0508 -0.53906,-0.13281 -0.79687,-0.23828 -0.25781,-0.10937 -0.5,-0.23828 -0.73047,-0.39453 -0.23437,-0.15234 -0.44531,-0.32813 -0.64453,-0.52344 -0.19531,-0.19922 -0.37109,-0.41406 -0.52734,-0.64453 -0.15235,-0.23047 -0.28516,-0.47656 -0.39063,-0.73047 -0.10547,-0.25781 -0.1875,-0.52344 -0.24219,-0.79687 -0.0508,-0.27344 -0.0781,-0.54688 -0.0781,-0.82422 0,-0.28125 0.0273,-0.55469 0.0781,-0.82813 0.0547,-0.27343 0.13672,-0.53906 0.24219,-0.79687 0.10547,-0.25391 0.23828,-0.5 0.39063,-0.73047 0.15625,-0.23047 0.33203,-0.44531 0.52734,-0.64453 0.19922,-0.19531 0.41016,-0.3711 0.64453,-0.52344 0.23047,-0.15625 0.47266,-0.28516 0.73047,-0.39453 0.25781,-0.10547 0.52344,-0.1875 0.79687,-0.23828 0.27344,-0.0547 0.54688,-0.082 0.82422,-0.082 0.28125,0 0.55469,0.0273 0.82813,0.082 0.27344,0.0508 0.53906,0.13281 0.79687,0.23828 0.25391,0.10937 0.5,0.23828 0.73047,0.39453 0.23047,0.15234 0.44531,0.32813 0.64063,0.52344 0.19922,0.19922 0.375,0.41406 0.52734,0.64453 0.15625,0.23047 0.28516,0.47656 0.39453,0.73047 0.10547,0.25781 0.1836,0.52344 0.23828,0.79687 0.0547,0.27344 0.082,0.54688 0.082,0.82813 z m 0,0"
       fill-opacity="1"
       fill-rule="nonzero"
       id="path852" />
    <g
       clip-path="url(#d3a1f33d0f)"
       id="g856">
      <path
         fill="#004aad"
         d="M 310.38281,87.023438 H 251.05859 V 95.5 h 59.32422 c 2.33203,0 4.23828,1.90625 4.23828,4.238281 V 222.62109 H 60.375 V 99.738281 C 60.375,97.40625 62.28125,95.5 64.613281,95.5 H 98.511719 V 87.023438 H 64.613281 c -6.992187,0 -12.714843,5.722656 -12.714843,12.714843 V 243.80859 c 0,6.99219 5.722656,12.71485 12.714843,12.71485 h 88.984379 v 16.94922 c 0,2.32812 1.90625,4.23828 4.23828,4.23828 2.33203,0 4.23828,-1.91016 4.23828,-4.23828 v -16.94922 h 50.84765 v 16.94922 c 0,2.32812 1.90625,4.23828 4.23829,4.23828 2.32812,0 4.23828,-1.91016 4.23828,-4.23828 v -16.94922 h 88.98437 c 6.99219,0 12.71094,-5.72266 12.71094,-12.71485 V 99.738281 c 0,-6.992187 -5.71875,-12.714843 -12.71094,-12.714843 z m 0,161.023432 H 64.613281 c -2.332031,0 -4.238281,-1.90625 -4.238281,-4.23828 v -12.71093 h 254.24609 v 12.71093 c 0,2.33203 -1.90625,4.23828 -4.23828,4.23828 z m 0,0"
         fill-opacity="1"
         fill-rule="nonzero"
         id="path854" />
    </g>
    <path
       fill="#004aad"
       d="m 130.71484,75.371094 c -2.96484,3.816406 -4.66015,8.476562 -4.66015,13.773437 v 10.59375 c 0,2.328129 1.90625,4.238279 4.23828,4.238279 h 38.13672 c 2.33203,0 4.23828,-1.91015 4.23828,-4.238279 v -10.59375 c 0,-5.296875 -1.69531,-9.957031 -4.66406,-13.773437 -1.69532,2.332031 -3.8125,4.238281 -6.35547,5.722656 1.48437,2.328125 2.54297,5.082031 2.54297,8.261719 v 6.355469 h -29.66016 v -6.355469 c 0,-2.964844 0.84766,-5.933594 2.54297,-8.261719 -2.54297,-1.695312 -4.66406,-3.601562 -6.35938,-5.722656 z m 0,0"
       fill-opacity="1"
       fill-rule="nonzero"
       id="path858" />
    <path
       fill="#004aad"
       d="m 149.35937,76.007812 c 8.26563,0 15.04297,-6.566406 15.04297,-14.832031 0,-8.261719 -6.77734,-14.832031 -15.04297,-14.832031 -8.26171,0 -15.04296,6.570312 -15.04296,14.832031 0,8.265625 6.78125,14.832031 15.04296,14.832031 z m 0,-21.1875 c 3.60157,0 6.57032,2.753907 6.57032,6.355469 0,3.601563 -2.96875,6.355469 -6.57032,6.355469 -3.60156,0 -6.5664,-2.753906 -6.5664,-6.355469 0,-3.601562 2.96484,-6.355469 6.5664,-6.355469 z m 0,0"
       fill-opacity="1"
       fill-rule="nonzero"
       id="path860" />
    <path
       fill="#004aad"
       d="m 189.61719,59.480469 h 29.66015 c 2.33203,0 4.23828,-1.90625 4.23828,-4.234375 0,-2.332032 -1.90625,-4.238282 -4.23828,-4.238282 h -29.66015 c -2.33203,0 -4.23828,1.90625 -4.23828,4.238282 0,2.328125 1.90625,4.234375 4.23828,4.234375 z m 0,0"
       fill-opacity="1"
       fill-rule="nonzero"
       id="path862" />
    <path
       fill="#004aad"
       d="m 189.61719,77.492188 h 29.66015 c 2.33203,0 4.23828,-1.910157 4.23828,-4.238282 0,-2.332031 -1.90625,-4.238281 -4.23828,-4.238281 h -29.66015 c -2.33203,0 -4.23828,1.90625 -4.23828,4.238281 0,2.328125 1.90625,4.238282 4.23828,4.238282 z m 0,0"
       fill-opacity="1"
       fill-rule="nonzero"
       id="path864" />
    <path
       fill="#004aad"
       d="m 189.61719,95.5 h 29.66015 c 2.33203,0 4.23828,-1.90625 4.23828,-4.238281 0,-2.328125 -1.90625,-4.238281 -4.23828,-4.238281 h -29.66015 c -2.33203,0 -4.23828,1.910156 -4.23828,4.238281 0,2.332031 1.90625,4.238281 4.23828,4.238281 z m 0,0"
       fill-opacity="1"
       fill-rule="nonzero"
       id="path866" />
    <path
       fill="#004aad"
       d="m 225.42187,120.92578 c -0.84765,-3.60156 -4.23828,-6.35937 -8.26171,-6.35937 h -84.75 c -4.66016,0 -8.47266,3.8164 -8.47266,8.47656 v 8.47656 c 0,4.66016 3.8125,8.47266 8.47266,8.47266 h 80.51171 z m -93.01171,2.11719 h 84.75 v 8.47656 h -84.75 z m 0,0"
       fill-opacity="1"
       fill-rule="nonzero"
       id="path868" />
    <g
       clip-path="url(#4122d924f4)"
       id="g872">
      <path
         fill="#004aad"
         d="m 234.10937,110.11719 c 1.90625,-1.0586 4.02735,-1.69141 6.35547,-1.69141 0.63672,0 1.48438,0 2.1211,0.21094 V 36.175781 c 0,-4.660156 -3.81641,-8.476562 -8.47657,-8.476562 H 115.46094 c -4.66016,0 -8.47266,3.816406 -8.47266,8.476562 V 188.72266 c 0,4.66015 3.8125,8.47656 8.47266,8.47656 h 104.02734 c -0.42187,-1.27344 -0.84375,-2.75391 -0.84375,-4.44922 v -4.02734 H 115.46094 V 36.175781 h 118.64843 z m 0,0"
         fill-opacity="1"
         fill-rule="nonzero"
         id="path870" />
    </g>
    <path
       fill="#004aad"
       d="m 128.17187,150.58594 c -2.32812,0 -4.23437,1.90625 -4.23437,4.23828 0,2.33203 1.90625,4.23828 4.23437,4.23828 h 76.48829 c -0.42579,-2.96875 0,-5.93359 1.48046,-8.47656 z m 0,0"
       fill-opacity="1"
       fill-rule="nonzero"
       id="path874" />
    <path
       fill="#004aad"
       d="m 123.9375,173.89062 c 0,2.33204 1.90625,4.23829 4.23437,4.23829 h 90.47266 v -8.47266 h -90.47266 c -2.32812,0 -4.23437,1.90625 -4.23437,4.23437 z m 0,0"
       fill-opacity="1"
       fill-rule="nonzero"
       id="path876" />
    <path
       fill="#004aad"
       d="M 245.125,156.94141 V 192.75 c 0,2.32812 1.91016,4.23437 4.23828,4.23437 2.33203,0 4.23828,-1.90625 4.23828,-4.23437 v -31.57031 h 10.16797 c 1.48438,0 2.96875,-0.84766 3.81641,-2.11719 0.84765,-1.27344 0.63281,-2.96875 -0.21094,-4.23828 l -23.30859,-36.01953 c -0.84766,-1.26953 -2.11719,-1.90625 -3.60157,-1.90625 -1.48437,0 -2.7539,0.63672 -3.60156,1.90625 l -23.30469,35.80859 c -0.84765,1.26953 -0.84765,2.96484 -0.21093,4.23438 0.63281,1.27343 2.11718,2.12109 3.8125,2.12109 h 9.95703 v 31.56641 c 0,2.33203 1.90625,4.23828 4.23828,4.23828 2.33203,0 4.23828,-1.90625 4.23828,-4.23828 v -35.59375 c 0,-2.32813 -1.90625,-4.23438 -4.23828,-4.23438 H 225 l 15.46484,-23.94531 15.46875,23.94531 h -6.57031 c -2.32812,0 -4.23828,1.90625 -4.23828,4.23438 z m 0,0"
       fill-opacity="1"
       fill-rule="nonzero"
       id="path878" />
  </g>
  <g
     fill="#004aad"
     fill-opacity="1"
     id="g980">
    <g
       transform="translate(202.331888, 342.374978)"
       id="g978">
      <g
         id="g976" />
    </g>
  </g>
</svg>
