<?xml version="1.0" encoding="UTF-8" standalone="no"?>
<svg
   width="500"
   zoomAndPan="magnify"
   viewBox="0 0 375 374.999991"
   height="500"
   preserveAspectRatio="xMidYMid meet"
   version="1.0"
   id="svg269"
   sodipodi:docname="saber uff.svg"
   inkscape:version="1.1.2 (0a00cf5339, 2022-02-04)"
   xmlns:inkscape="http://www.inkscape.org/namespaces/inkscape"
   xmlns:sodipodi="http://sodipodi.sourceforge.net/DTD/sodipodi-0.dtd"
   xmlns="http://www.w3.org/2000/svg"
   xmlns:svg="http://www.w3.org/2000/svg">
  <sodipodi:namedview
     id="namedview271"
     pagecolor="#ffffff"
     bordercolor="#000000"
     borderopacity="0.25"
     inkscape:pageshadow="2"
     inkscape:pageopacity="0.0"
     inkscape:pagecheckerboard="0"
     showgrid="false"
     inkscape:zoom="1.688"
     inkscape:cx="249.70379"
     inkscape:cy="250.29621"
     inkscape:window-width="1920"
     inkscape:window-height="1016"
     inkscape:window-x="1920"
     inkscape:window-y="27"
     inkscape:window-maximized="1"
     inkscape:current-layer="svg269" />
  <defs
     id="defs7">
    <g
       id="g2" />
    <clipPath
       id="e251317bb8">
      <path
         d="M 65.925781 18.191406 L 308.925781 18.191406 L 308.925781 302 L 65.925781 302 Z M 65.925781 18.191406 "
         clip-rule="nonzero"
         id="path4" />
    </clipPath>
  </defs>
  <g
     clip-path="url(#e251317bb8)"
     id="g15">
    <path
       fill="#004aad"
       d="M 296.636719 301.816406 L 77.671875 301.816406 C 76.886719 301.816406 76.109375 301.738281 75.335938 301.585938 C 74.566406 301.429688 73.816406 301.203125 73.089844 300.902344 C 72.367188 300.601562 71.675781 300.230469 71.023438 299.796875 C 70.371094 299.359375 69.765625 298.863281 69.207031 298.304688 C 68.652344 297.75 68.15625 297.144531 67.71875 296.492188 C 67.28125 295.839844 66.914062 295.148438 66.613281 294.421875 C 66.3125 293.699219 66.082031 292.949219 65.929688 292.179688 C 65.777344 291.40625 65.699219 290.628906 65.699219 289.84375 L 65.699219 29.824219 C 65.699219 29.039062 65.777344 28.257812 65.929688 27.488281 C 66.082031 26.71875 66.3125 25.96875 66.613281 25.242188 C 66.914062 24.519531 67.28125 23.828125 67.71875 23.175781 C 68.15625 22.519531 68.652344 21.917969 69.207031 21.359375 C 69.765625 20.804688 70.371094 20.308594 71.023438 19.871094 C 71.675781 19.433594 72.367188 19.066406 73.089844 18.765625 C 73.816406 18.464844 74.566406 18.234375 75.335938 18.082031 C 76.109375 17.925781 76.886719 17.851562 77.671875 17.847656 L 296.636719 17.847656 C 297.421875 17.851562 298.199219 17.925781 298.972656 18.082031 C 299.742188 18.234375 300.488281 18.464844 301.214844 18.765625 C 301.941406 19.066406 302.632812 19.433594 303.285156 19.871094 C 303.9375 20.308594 304.542969 20.804688 305.097656 21.359375 C 305.65625 21.917969 306.152344 22.519531 306.589844 23.175781 C 307.023438 23.828125 307.394531 24.519531 307.695312 25.242188 C 307.996094 25.96875 308.222656 26.71875 308.378906 27.488281 C 308.53125 28.257812 308.609375 29.039062 308.609375 29.824219 L 308.609375 289.84375 C 308.609375 290.628906 308.53125 291.40625 308.378906 292.179688 C 308.222656 292.949219 307.996094 293.699219 307.695312 294.421875 C 307.394531 295.148438 307.023438 295.839844 306.589844 296.492188 C 306.152344 297.144531 305.65625 297.75 305.097656 298.304688 C 304.542969 298.863281 303.9375 299.359375 303.285156 299.796875 C 302.632812 300.230469 301.941406 300.601562 301.214844 300.902344 C 300.488281 301.203125 299.742188 301.429688 298.972656 301.585938 C 298.199219 301.738281 297.421875 301.816406 296.636719 301.816406 Z M 77.671875 28.113281 C 77.445312 28.113281 77.226562 28.15625 77.019531 28.246094 C 76.808594 28.332031 76.625 28.453125 76.464844 28.613281 C 76.304688 28.777344 76.179688 28.960938 76.09375 29.167969 C 76.003906 29.378906 75.960938 29.597656 75.960938 29.824219 L 75.960938 289.84375 C 75.960938 290.070312 76.003906 290.289062 76.09375 290.496094 C 76.179688 290.707031 76.304688 290.890625 76.464844 291.050781 C 76.625 291.210938 76.808594 291.335938 77.019531 291.421875 C 77.226562 291.511719 77.445312 291.554688 77.671875 291.554688 L 296.636719 291.554688 C 296.863281 291.554688 297.082031 291.511719 297.289062 291.421875 C 297.5 291.335938 297.683594 291.210938 297.84375 291.050781 C 298.003906 290.890625 298.128906 290.707031 298.214844 290.496094 C 298.300781 290.289062 298.347656 290.070312 298.347656 289.84375 L 298.347656 29.824219 C 298.347656 29.597656 298.300781 29.378906 298.214844 29.167969 C 298.128906 28.960938 298.003906 28.777344 297.84375 28.613281 C 297.683594 28.453125 297.5 28.332031 297.289062 28.246094 C 297.082031 28.15625 296.863281 28.113281 296.636719 28.113281 Z M 77.671875 28.113281 "
       fill-opacity="1"
       fill-rule="nonzero"
       id="path13" />
  </g>
  <path
     fill="#004aad"
     d="M 282.949219 253.917969 L 91.355469 253.917969 C 91.019531 253.917969 90.6875 253.886719 90.355469 253.820312 C 90.027344 253.753906 89.703125 253.65625 89.394531 253.527344 C 89.082031 253.398438 88.785156 253.242188 88.507812 253.054688 C 88.226562 252.867188 87.96875 252.65625 87.730469 252.417969 C 87.492188 252.179688 87.277344 251.917969 87.089844 251.636719 C 86.902344 251.359375 86.746094 251.0625 86.617188 250.75 C 86.488281 250.441406 86.390625 250.121094 86.324219 249.789062 C 86.257812 249.457031 86.226562 249.125 86.226562 248.789062 L 86.226562 43.507812 C 86.226562 43.171875 86.257812 42.839844 86.324219 42.507812 C 86.390625 42.175781 86.488281 41.855469 86.617188 41.546875 C 86.746094 41.234375 86.902344 40.9375 87.089844 40.660156 C 87.277344 40.378906 87.492188 40.117188 87.730469 39.878906 C 87.96875 39.640625 88.226562 39.429688 88.507812 39.242188 C 88.785156 39.054688 89.082031 38.898438 89.394531 38.769531 C 89.703125 38.640625 90.027344 38.542969 90.355469 38.476562 C 90.6875 38.410156 91.019531 38.378906 91.355469 38.378906 L 282.949219 38.378906 C 283.289062 38.378906 283.621094 38.410156 283.953125 38.476562 C 284.28125 38.542969 284.601562 38.640625 284.914062 38.769531 C 285.226562 38.898438 285.519531 39.054688 285.800781 39.242188 C 286.082031 39.429688 286.339844 39.640625 286.578125 39.878906 C 286.816406 40.117188 287.03125 40.378906 287.21875 40.660156 C 287.40625 40.9375 287.5625 41.234375 287.691406 41.546875 C 287.820312 41.855469 287.917969 42.175781 287.984375 42.507812 C 288.050781 42.839844 288.082031 43.171875 288.082031 43.507812 L 288.082031 248.789062 C 288.082031 249.125 288.050781 249.457031 287.984375 249.789062 C 287.917969 250.121094 287.820312 250.441406 287.691406 250.75 C 287.5625 251.0625 287.40625 251.359375 287.21875 251.636719 C 287.03125 251.917969 286.816406 252.179688 286.578125 252.417969 C 286.339844 252.65625 286.082031 252.867188 285.800781 253.054688 C 285.519531 253.242188 285.226562 253.398438 284.914062 253.527344 C 284.601562 253.65625 284.28125 253.753906 283.953125 253.820312 C 283.621094 253.886719 283.289062 253.917969 282.949219 253.917969 Z M 96.488281 243.65625 L 277.820312 243.65625 L 277.820312 48.640625 L 96.488281 48.640625 Z M 96.488281 243.65625 "
     fill-opacity="1"
     fill-rule="nonzero"
     id="path17" />
  <path
     fill="#004aad"
     d="M 200.839844 272.738281 C 200.839844 273.636719 200.75 274.523438 200.578125 275.40625 C 200.402344 276.289062 200.140625 277.144531 199.796875 277.972656 C 199.453125 278.804688 199.03125 279.59375 198.53125 280.339844 C 198.035156 281.085938 197.464844 281.777344 196.832031 282.414062 C 196.195312 283.050781 195.503906 283.617188 194.757812 284.117188 C 194.011719 284.613281 193.222656 285.035156 192.390625 285.378906 C 191.5625 285.722656 190.707031 285.984375 189.824219 286.160156 C 188.941406 286.335938 188.050781 286.421875 187.152344 286.421875 C 186.253906 286.421875 185.367188 286.335938 184.484375 286.160156 C 183.601562 285.984375 182.746094 285.722656 181.917969 285.378906 C 181.085938 285.035156 180.296875 284.613281 179.550781 284.117188 C 178.804688 283.617188 178.113281 283.050781 177.476562 282.414062 C 176.839844 281.777344 176.273438 281.085938 175.773438 280.339844 C 175.277344 279.59375 174.855469 278.804688 174.511719 277.972656 C 174.167969 277.144531 173.90625 276.289062 173.730469 275.40625 C 173.554688 274.523438 173.46875 273.636719 173.46875 272.738281 C 173.46875 271.839844 173.554688 270.949219 173.730469 270.066406 C 173.90625 269.1875 174.167969 268.328125 174.511719 267.5 C 174.855469 266.667969 175.277344 265.878906 175.773438 265.132812 C 176.273438 264.386719 176.839844 263.695312 177.476562 263.058594 C 178.113281 262.425781 178.804688 261.855469 179.550781 261.359375 C 180.296875 260.859375 181.085938 260.4375 181.917969 260.09375 C 182.746094 259.75 183.601562 259.488281 184.484375 259.316406 C 185.367188 259.140625 186.253906 259.050781 187.152344 259.050781 C 188.050781 259.050781 188.941406 259.140625 189.824219 259.316406 C 190.707031 259.488281 191.5625 259.75 192.390625 260.09375 C 193.222656 260.4375 194.011719 260.859375 194.757812 261.359375 C 195.503906 261.855469 196.195312 262.425781 196.832031 263.058594 C 197.464844 263.695312 198.035156 264.386719 198.53125 265.132812 C 199.03125 265.878906 199.453125 266.667969 199.796875 267.5 C 200.140625 268.328125 200.402344 269.1875 200.578125 270.066406 C 200.75 270.949219 200.839844 271.839844 200.839844 272.738281 Z M 200.839844 272.738281 "
     fill-opacity="1"
     fill-rule="nonzero"
     id="path19" />
  <path
     fill="#004aad"
     d="M 255.582031 110.226562 C 254.542969 110.222656 253.59375 109.9375 252.734375 109.363281 L 235.050781 97.574219 L 217.371094 109.363281 C 216.984375 109.621094 216.570312 109.820312 216.128906 109.964844 C 215.6875 110.113281 215.234375 110.195312 214.773438 110.21875 C 214.308594 110.242188 213.851562 110.199219 213.398438 110.097656 C 212.945312 109.996094 212.511719 109.835938 212.101562 109.617188 C 211.695312 109.398438 211.320312 109.128906 210.984375 108.808594 C 210.648438 108.488281 210.359375 108.128906 210.121094 107.730469 C 209.882812 107.332031 209.703125 106.910156 209.578125 106.460938 C 209.453125 106.011719 209.390625 105.558594 209.390625 105.09375 L 209.390625 43.507812 C 209.390625 43.171875 209.425781 42.839844 209.492188 42.507812 C 209.558594 42.175781 209.65625 41.855469 209.785156 41.546875 C 209.914062 41.234375 210.070312 40.9375 210.257812 40.660156 C 210.445312 40.378906 210.65625 40.117188 210.894531 39.878906 C 211.132812 39.640625 211.394531 39.429688 211.671875 39.242188 C 211.953125 39.054688 212.25 38.898438 212.5625 38.769531 C 212.871094 38.640625 213.191406 38.542969 213.523438 38.476562 C 213.855469 38.410156 214.1875 38.378906 214.523438 38.378906 L 255.582031 38.378906 C 255.917969 38.378906 256.25 38.410156 256.582031 38.476562 C 256.910156 38.542969 257.234375 38.640625 257.542969 38.769531 C 257.855469 38.898438 258.152344 39.054688 258.429688 39.242188 C 258.710938 39.429688 258.96875 39.640625 259.207031 39.878906 C 259.445312 40.117188 259.660156 40.378906 259.847656 40.660156 C 260.035156 40.9375 260.191406 41.234375 260.320312 41.546875 C 260.449219 41.855469 260.546875 42.175781 260.613281 42.507812 C 260.679688 42.839844 260.710938 43.171875 260.710938 43.507812 L 260.710938 105.09375 C 260.710938 105.429688 260.679688 105.761719 260.613281 106.09375 C 260.546875 106.425781 260.449219 106.746094 260.320312 107.054688 C 260.191406 107.367188 260.035156 107.664062 259.847656 107.945312 C 259.660156 108.222656 259.445312 108.484375 259.207031 108.722656 C 258.96875 108.960938 258.710938 109.171875 258.429688 109.359375 C 258.152344 109.546875 257.855469 109.703125 257.542969 109.832031 C 257.234375 109.960938 256.910156 110.058594 256.582031 110.125 C 256.25 110.191406 255.917969 110.222656 255.582031 110.226562 Z M 235.050781 86.277344 C 236.089844 86.273438 237.035156 86.5625 237.898438 87.136719 L 250.449219 95.503906 L 250.449219 48.640625 L 219.65625 48.640625 L 219.65625 95.503906 L 232.207031 87.136719 C 233.066406 86.5625 234.015625 86.273438 235.050781 86.277344 Z M 235.050781 86.277344 "
     fill-opacity="1"
     fill-rule="nonzero"
     id="path21" />
  <path
     fill="#004aad"
     d="M 255.582031 192.335938 L 118.726562 192.335938 C 118.390625 192.335938 118.058594 192.304688 117.726562 192.238281 C 117.394531 192.171875 117.074219 192.074219 116.765625 191.945312 C 116.453125 191.816406 116.15625 191.660156 115.875 191.472656 C 115.597656 191.285156 115.335938 191.070312 115.097656 190.832031 C 114.859375 190.59375 114.648438 190.335938 114.460938 190.054688 C 114.273438 189.773438 114.117188 189.480469 113.988281 189.167969 C 113.859375 188.855469 113.761719 188.535156 113.695312 188.207031 C 113.628906 187.875 113.597656 187.542969 113.597656 187.203125 C 113.597656 186.867188 113.628906 186.535156 113.695312 186.203125 C 113.761719 185.871094 113.859375 185.550781 113.988281 185.238281 C 114.117188 184.929688 114.273438 184.632812 114.460938 184.351562 C 114.648438 184.074219 114.859375 183.8125 115.097656 183.574219 C 115.335938 183.335938 115.597656 183.125 115.875 182.9375 C 116.15625 182.75 116.453125 182.589844 116.765625 182.460938 C 117.074219 182.332031 117.394531 182.238281 117.726562 182.171875 C 118.058594 182.105469 118.390625 182.070312 118.726562 182.070312 L 255.582031 182.070312 C 255.917969 182.070312 256.25 182.105469 256.582031 182.171875 C 256.910156 182.238281 257.234375 182.332031 257.542969 182.460938 C 257.855469 182.589844 258.152344 182.75 258.429688 182.9375 C 258.710938 183.125 258.96875 183.335938 259.207031 183.574219 C 259.445312 183.8125 259.660156 184.074219 259.847656 184.351562 C 260.035156 184.632812 260.191406 184.929688 260.320312 185.238281 C 260.449219 185.550781 260.546875 185.871094 260.613281 186.203125 C 260.679688 186.535156 260.710938 186.867188 260.710938 187.203125 C 260.710938 187.542969 260.679688 187.875 260.613281 188.207031 C 260.546875 188.535156 260.449219 188.855469 260.320312 189.167969 C 260.191406 189.480469 260.035156 189.773438 259.847656 190.054688 C 259.660156 190.335938 259.445312 190.59375 259.207031 190.832031 C 258.96875 191.070312 258.710938 191.285156 258.429688 191.472656 C 258.152344 191.660156 257.855469 191.816406 257.542969 191.945312 C 257.234375 192.074219 256.910156 192.171875 256.582031 192.238281 C 256.25 192.304688 255.917969 192.335938 255.582031 192.335938 Z M 255.582031 192.335938 "
     fill-opacity="1"
     fill-rule="nonzero"
     id="path23" />
  <path
     fill="#004aad"
     d="M 255.582031 219.707031 L 193.996094 219.707031 C 193.660156 219.707031 193.324219 219.671875 192.996094 219.609375 C 192.664062 219.542969 192.34375 219.445312 192.03125 219.316406 C 191.722656 219.1875 191.425781 219.027344 191.144531 218.839844 C 190.863281 218.65625 190.605469 218.441406 190.367188 218.203125 C 190.128906 217.964844 189.917969 217.707031 189.730469 217.425781 C 189.542969 217.144531 189.382812 216.851562 189.253906 216.539062 C 189.125 216.226562 189.027344 215.90625 188.964844 215.574219 C 188.898438 215.246094 188.863281 214.910156 188.863281 214.574219 C 188.863281 214.238281 188.898438 213.902344 188.964844 213.574219 C 189.027344 213.242188 189.125 212.921875 189.253906 212.609375 C 189.382812 212.300781 189.542969 212.003906 189.730469 211.722656 C 189.917969 211.441406 190.128906 211.183594 190.367188 210.945312 C 190.605469 210.707031 190.863281 210.496094 191.144531 210.308594 C 191.425781 210.121094 191.722656 209.960938 192.03125 209.832031 C 192.34375 209.703125 192.664062 209.605469 192.996094 209.542969 C 193.324219 209.476562 193.660156 209.441406 193.996094 209.441406 L 255.582031 209.441406 C 255.917969 209.441406 256.25 209.476562 256.582031 209.542969 C 256.910156 209.605469 257.234375 209.703125 257.542969 209.832031 C 257.855469 209.960938 258.152344 210.121094 258.429688 210.308594 C 258.710938 210.496094 258.96875 210.707031 259.207031 210.945312 C 259.445312 211.183594 259.660156 211.441406 259.847656 211.722656 C 260.035156 212.003906 260.191406 212.300781 260.320312 212.609375 C 260.449219 212.921875 260.546875 213.242188 260.613281 213.574219 C 260.679688 213.902344 260.710938 214.238281 260.710938 214.574219 C 260.710938 214.910156 260.679688 215.246094 260.613281 215.574219 C 260.546875 215.90625 260.449219 216.226562 260.320312 216.539062 C 260.191406 216.851562 260.035156 217.144531 259.847656 217.425781 C 259.660156 217.707031 259.445312 217.964844 259.207031 218.203125 C 258.96875 218.441406 258.710938 218.65625 258.429688 218.839844 C 258.152344 219.027344 257.855469 219.1875 257.542969 219.316406 C 257.234375 219.445312 256.910156 219.542969 256.582031 219.609375 C 256.25 219.671875 255.917969 219.707031 255.582031 219.707031 Z M 255.582031 219.707031 "
     fill-opacity="1"
     fill-rule="nonzero"
     id="path25" />
  <path
     fill="#004aad"
     d="M 255.582031 137.59375 L 118.726562 137.59375 C 118.390625 137.59375 118.058594 137.5625 117.726562 137.496094 C 117.394531 137.429688 117.074219 137.332031 116.765625 137.203125 C 116.453125 137.074219 116.15625 136.917969 115.875 136.730469 C 115.597656 136.542969 115.335938 136.332031 115.097656 136.09375 C 114.859375 135.855469 114.648438 135.59375 114.460938 135.3125 C 114.273438 135.035156 114.117188 134.738281 113.988281 134.425781 C 113.859375 134.117188 113.761719 133.792969 113.695312 133.464844 C 113.628906 133.132812 113.597656 132.800781 113.597656 132.464844 C 113.597656 132.125 113.628906 131.792969 113.695312 131.460938 C 113.761719 131.132812 113.859375 130.808594 113.988281 130.5 C 114.117188 130.1875 114.273438 129.890625 114.460938 129.613281 C 114.648438 129.332031 114.859375 129.074219 115.097656 128.835938 C 115.335938 128.597656 115.597656 128.382812 115.875 128.195312 C 116.15625 128.007812 116.453125 127.851562 116.765625 127.722656 C 117.074219 127.59375 117.394531 127.496094 117.726562 127.429688 C 118.058594 127.363281 118.390625 127.332031 118.726562 127.332031 L 255.582031 127.332031 C 255.917969 127.332031 256.25 127.363281 256.582031 127.429688 C 256.910156 127.496094 257.234375 127.59375 257.542969 127.722656 C 257.855469 127.851562 258.152344 128.007812 258.429688 128.195312 C 258.710938 128.382812 258.96875 128.597656 259.207031 128.835938 C 259.445312 129.074219 259.660156 129.332031 259.847656 129.613281 C 260.035156 129.890625 260.191406 130.1875 260.320312 130.5 C 260.449219 130.808594 260.546875 131.132812 260.613281 131.460938 C 260.679688 131.792969 260.710938 132.125 260.710938 132.464844 C 260.710938 132.800781 260.679688 133.132812 260.613281 133.464844 C 260.546875 133.792969 260.449219 134.117188 260.320312 134.425781 C 260.191406 134.738281 260.035156 135.035156 259.847656 135.3125 C 259.660156 135.59375 259.445312 135.855469 259.207031 136.09375 C 258.96875 136.332031 258.710938 136.542969 258.429688 136.730469 C 258.152344 136.917969 257.855469 137.074219 257.542969 137.203125 C 257.234375 137.332031 256.910156 137.429688 256.582031 137.496094 C 256.25 137.5625 255.917969 137.59375 255.582031 137.59375 Z M 255.582031 137.59375 "
     fill-opacity="1"
     fill-rule="nonzero"
     id="path27" />
  <path
     fill="#004aad"
     d="M 255.582031 164.964844 L 118.726562 164.964844 C 118.390625 164.964844 118.058594 164.933594 117.726562 164.867188 C 117.394531 164.800781 117.074219 164.703125 116.765625 164.574219 C 116.453125 164.445312 116.15625 164.289062 115.875 164.101562 C 115.597656 163.914062 115.335938 163.699219 115.097656 163.460938 C 114.859375 163.222656 114.648438 162.964844 114.460938 162.683594 C 114.273438 162.40625 114.117188 162.109375 113.988281 161.796875 C 113.859375 161.484375 113.761719 161.164062 113.695312 160.835938 C 113.628906 160.503906 113.597656 160.171875 113.597656 159.832031 C 113.597656 159.496094 113.628906 159.164062 113.695312 158.832031 C 113.761719 158.5 113.859375 158.179688 113.988281 157.871094 C 114.117188 157.558594 114.273438 157.261719 114.460938 156.980469 C 114.648438 156.703125 114.859375 156.441406 115.097656 156.203125 C 115.335938 155.964844 115.597656 155.753906 115.875 155.566406 C 116.15625 155.378906 116.453125 155.222656 116.765625 155.09375 C 117.074219 154.964844 117.394531 154.867188 117.726562 154.800781 C 118.058594 154.734375 118.390625 154.703125 118.726562 154.703125 L 255.582031 154.703125 C 255.917969 154.703125 256.25 154.734375 256.582031 154.800781 C 256.910156 154.867188 257.234375 154.964844 257.542969 155.09375 C 257.855469 155.222656 258.152344 155.378906 258.429688 155.566406 C 258.710938 155.753906 258.96875 155.964844 259.207031 156.203125 C 259.445312 156.441406 259.660156 156.703125 259.847656 156.980469 C 260.035156 157.261719 260.191406 157.558594 260.320312 157.871094 C 260.449219 158.179688 260.546875 158.5 260.613281 158.832031 C 260.679688 159.164062 260.710938 159.496094 260.710938 159.832031 C 260.710938 160.171875 260.679688 160.503906 260.613281 160.835938 C 260.546875 161.164062 260.449219 161.484375 260.320312 161.796875 C 260.191406 162.109375 260.035156 162.40625 259.847656 162.683594 C 259.660156 162.964844 259.445312 163.222656 259.207031 163.460938 C 258.96875 163.699219 258.710938 163.914062 258.429688 164.101562 C 258.152344 164.289062 257.855469 164.445312 257.542969 164.574219 C 257.234375 164.703125 256.910156 164.800781 256.582031 164.867188 C 256.25 164.933594 255.917969 164.964844 255.582031 164.964844 Z M 255.582031 164.964844 "
     fill-opacity="1"
     fill-rule="nonzero"
     id="path29" />
  <path
     fill="#004aad"
     d="M 180.3125 82.855469 L 118.726562 82.855469 C 118.390625 82.855469 118.058594 82.820312 117.726562 82.753906 C 117.394531 82.691406 117.074219 82.59375 116.765625 82.464844 C 116.453125 82.335938 116.15625 82.175781 115.875 81.988281 C 115.597656 81.800781 115.335938 81.589844 115.097656 81.351562 C 114.859375 81.113281 114.648438 80.851562 114.460938 80.574219 C 114.273438 80.292969 114.117188 79.996094 113.988281 79.6875 C 113.859375 79.375 113.761719 79.054688 113.695312 78.722656 C 113.628906 78.394531 113.597656 78.058594 113.597656 77.722656 C 113.597656 77.386719 113.628906 77.050781 113.695312 76.722656 C 113.761719 76.390625 113.859375 76.070312 113.988281 75.757812 C 114.117188 75.445312 114.273438 75.152344 114.460938 74.871094 C 114.648438 74.589844 114.859375 74.332031 115.097656 74.09375 C 115.335938 73.855469 115.597656 73.640625 115.875 73.457031 C 116.15625 73.269531 116.453125 73.109375 116.765625 72.980469 C 117.074219 72.851562 117.394531 72.753906 117.726562 72.6875 C 118.058594 72.625 118.390625 72.589844 118.726562 72.589844 L 180.3125 72.589844 C 180.648438 72.589844 180.980469 72.625 181.3125 72.6875 C 181.644531 72.753906 181.964844 72.851562 182.273438 72.980469 C 182.585938 73.109375 182.882812 73.269531 183.164062 73.457031 C 183.441406 73.640625 183.703125 73.855469 183.941406 74.09375 C 184.179688 74.332031 184.390625 74.589844 184.578125 74.871094 C 184.765625 75.152344 184.921875 75.445312 185.050781 75.757812 C 185.179688 76.070312 185.277344 76.390625 185.34375 76.722656 C 185.410156 77.050781 185.441406 77.386719 185.441406 77.722656 C 185.441406 78.058594 185.410156 78.394531 185.34375 78.722656 C 185.277344 79.054688 185.179688 79.375 185.050781 79.6875 C 184.921875 79.996094 184.765625 80.292969 184.578125 80.574219 C 184.390625 80.851562 184.179688 81.113281 183.941406 81.351562 C 183.703125 81.589844 183.441406 81.800781 183.164062 81.988281 C 182.882812 82.175781 182.585938 82.335938 182.273438 82.464844 C 181.964844 82.59375 181.644531 82.691406 181.3125 82.753906 C 180.980469 82.820312 180.648438 82.855469 180.3125 82.855469 Z M 180.3125 82.855469 "
     fill-opacity="1"
     fill-rule="nonzero"
     id="path31" />
  <path
     fill="#004aad"
     d="M 180.3125 110.226562 L 118.726562 110.226562 C 118.390625 110.226562 118.058594 110.191406 117.726562 110.125 C 117.394531 110.058594 117.074219 109.964844 116.765625 109.832031 C 116.453125 109.703125 116.15625 109.546875 115.875 109.359375 C 115.597656 109.171875 115.335938 108.960938 115.097656 108.722656 C 114.859375 108.484375 114.648438 108.222656 114.460938 107.945312 C 114.273438 107.664062 114.117188 107.367188 113.988281 107.054688 C 113.859375 106.746094 113.761719 106.425781 113.695312 106.09375 C 113.628906 105.761719 113.597656 105.429688 113.597656 105.09375 C 113.597656 104.753906 113.628906 104.421875 113.695312 104.089844 C 113.761719 103.761719 113.859375 103.441406 113.988281 103.128906 C 114.117188 102.816406 114.273438 102.523438 114.460938 102.242188 C 114.648438 101.960938 114.859375 101.703125 115.097656 101.464844 C 115.335938 101.226562 115.597656 101.011719 115.875 100.824219 C 116.15625 100.636719 116.453125 100.480469 116.765625 100.351562 C 117.074219 100.222656 117.394531 100.125 117.726562 100.058594 C 118.058594 99.992188 118.390625 99.960938 118.726562 99.960938 L 180.3125 99.960938 C 180.648438 99.960938 180.980469 99.992188 181.3125 100.058594 C 181.644531 100.125 181.964844 100.222656 182.273438 100.351562 C 182.585938 100.480469 182.882812 100.636719 183.164062 100.824219 C 183.441406 101.011719 183.703125 101.226562 183.941406 101.464844 C 184.179688 101.703125 184.390625 101.960938 184.578125 102.242188 C 184.765625 102.523438 184.921875 102.816406 185.050781 103.128906 C 185.179688 103.441406 185.277344 103.761719 185.34375 104.089844 C 185.410156 104.421875 185.441406 104.753906 185.441406 105.09375 C 185.441406 105.429688 185.410156 105.761719 185.34375 106.09375 C 185.277344 106.425781 185.179688 106.746094 185.050781 107.054688 C 184.921875 107.367188 184.765625 107.664062 184.578125 107.945312 C 184.390625 108.222656 184.179688 108.484375 183.941406 108.722656 C 183.703125 108.960938 183.441406 109.171875 183.164062 109.359375 C 182.882812 109.546875 182.585938 109.703125 182.273438 109.832031 C 181.964844 109.964844 181.644531 110.058594 181.3125 110.125 C 180.980469 110.191406 180.648438 110.226562 180.3125 110.226562 Z M 180.3125 110.226562 "
     fill-opacity="1"
     fill-rule="nonzero"
     id="path33" />
  <g
     fill="#004aad"
     fill-opacity="1"
     id="g41">
    <g
       transform="translate(132.616259, 342.399938)"
       id="g39">
      <g
         id="g37">
        <path
           d="M 4.257812 -4.277344 C 3.039062 -4.277344 2 -4.277344 0.800781 -4.277344 C 0.71875 1.878906 12.117188 1.71875 12.117188 -4.160156 C 12.117188 -7.65625 9.398438 -8.019531 6.617188 -8.316406 C 5.359375 -8.457031 4.320312 -8.679688 4.398438 -9.738281 C 4.519531 -11.398438 8.277344 -11.558594 8.277344 -9.699219 C 9.496094 -9.699219 10.417969 -9.699219 11.675781 -9.699219 C 11.757812 -15.734375 0.878906 -15.734375 1 -9.699219 C 1.039062 -6.660156 3.039062 -5.617188 6.078125 -5.398438 C 7.476562 -5.320312 8.636719 -5.160156 8.636719 -4.179688 C 8.636719 -2.539062 4.257812 -2.5 4.257812 -4.277344 Z M 4.257812 -4.277344 "
           id="path35" />
      </g>
    </g>
  </g>
  <g
     fill="#004aad"
     fill-opacity="1"
     id="g49">
    <g
       transform="translate(145.571153, 342.399938)"
       id="g47">
      <g
         id="g45">
        <path
           d="M 10.675781 0 L 14.175781 0 L 14.175781 -0.519531 L 7.859375 -14.175781 L 6.320312 -14.175781 L 0.0195312 -0.519531 L 0.0195312 0 L 3.519531 0 L 4.339844 -1.757812 L 9.859375 -1.757812 Z M 8.679688 -4.839844 L 5.519531 -4.839844 L 7.078125 -8.519531 Z M 8.679688 -4.839844 "
           id="path43" />
      </g>
    </g>
  </g>
  <g
     fill="#004aad"
     fill-opacity="1"
     id="g57">
    <g
       transform="translate(159.805542, 342.399938)"
       id="g55">
      <g
         id="g53">
        <path
           d="M 12.117188 -9.699219 C 12.117188 -12.117188 10.175781 -13.996094 7.757812 -13.996094 L 1.78125 -13.996094 L 1.78125 0 L 8.339844 0 C 11.195312 0 12.675781 -1.980469 12.695312 -4.417969 C 12.695312 -5.660156 12.15625 -6.699219 11.015625 -7.277344 C 11.695312 -7.839844 12.117188 -8.859375 12.117188 -9.699219 Z M 8.078125 -5.558594 C 9.519531 -5.558594 9.539062 -3.179688 8.097656 -3.179688 L 5.238281 -3.179688 L 5.238281 -5.558594 Z M 7.476562 -10.796875 C 8.917969 -10.796875 8.917969 -8.496094 7.5 -8.496094 L 5.238281 -8.496094 L 5.238281 -10.796875 Z M 7.476562 -10.796875 "
           id="path51" />
      </g>
    </g>
  </g>
  <g
     fill="#004aad"
     fill-opacity="1"
     id="g65">
    <g
       transform="translate(173.52013, 342.399938)"
       id="g63">
      <g
         id="g61">
        <path
           d="M 10.515625 -13.996094 C 7.238281 -13.996094 5.019531 -13.996094 1.78125 -13.996094 C 1.78125 -9.359375 1.78125 -4.679688 1.78125 0 C 5.019531 0 7.417969 0 10.699219 0 C 10.699219 -1.058594 10.699219 -2.140625 10.699219 -3.179688 C 8.597656 -3.179688 7.398438 -3.179688 5.339844 -3.179688 C 5.339844 -4.019531 5.339844 -4.820312 5.339844 -5.636719 L 10.097656 -5.636719 C 10.097656 -6.699219 10.097656 -7.757812 10.097656 -8.816406 L 5.339844 -8.816406 L 5.339844 -10.796875 C 7.398438 -10.796875 8.4375 -10.796875 10.515625 -10.796875 C 10.515625 -11.878906 10.515625 -12.957031 10.515625 -13.996094 Z M 10.515625 -13.996094 "
           id="path59" />
      </g>
    </g>
  </g>
  <g
     fill="#004aad"
     fill-opacity="1"
     id="g73">
    <g
       transform="translate(185.515403, 342.399938)"
       id="g71">
      <g
         id="g69">
        <path
           d="M 10.855469 -4.957031 C 14.394531 -7.359375 13.398438 -13.976562 7.898438 -13.996094 C 5.859375 -13.996094 3.777344 -13.996094 1.757812 -13.996094 C 1.757812 -9.316406 1.757812 -4.660156 1.757812 0 C 2.917969 0 4.140625 0 5.339844 0 L 5.339844 -4.117188 L 7.199219 -4.117188 L 9.597656 0 L 13.597656 0 L 13.597656 -0.519531 Z M 7.898438 -7.339844 L 5.339844 -7.339844 C 5.339844 -8.457031 5.339844 -9.65625 5.339844 -10.796875 C 6.179688 -10.796875 7.058594 -10.816406 7.898438 -10.796875 C 9.9375 -10.777344 9.835938 -7.339844 7.898438 -7.339844 Z M 7.898438 -7.339844 "
           id="path67" />
      </g>
    </g>
  </g>
  <g
     fill="#004aad"
     fill-opacity="1"
     id="g79">
    <g
       transform="translate(199.489886, 342.399938)"
       id="g77">
      <g
         id="g75" />
    </g>
  </g>
  <g
     fill="#004aad"
     fill-opacity="1"
     id="g87">
    <g
       transform="translate(204.987718, 342.399938)"
       id="g85">
      <g
         id="g83">
        <path
           d="M 7.199219 -3.019531 C 6.160156 -3.019531 5.058594 -3.578125 5.058594 -4.71875 L 5.058594 -13.996094 C 3.9375 -13.996094 2.757812 -13.996094 1.640625 -13.996094 L 1.640625 -4.660156 C 1.640625 -1.578125 4.339844 0.199219 7.199219 0.199219 C 10.078125 0.199219 12.777344 -1.578125 12.777344 -4.660156 L 12.777344 -13.996094 C 11.65625 -13.996094 10.457031 -13.996094 9.316406 -13.996094 L 9.316406 -4.71875 C 9.316406 -3.578125 8.238281 -3.019531 7.199219 -3.019531 Z M 7.199219 -3.019531 "
           id="path81" />
      </g>
    </g>
  </g>
  <g
     fill="#004aad"
     fill-opacity="1"
     id="g95">
    <g
       transform="translate(219.422025, 342.399938)"
       id="g93">
      <g
         id="g91">
        <path
           d="M 9.917969 -4.539062 C 9.917969 -5.777344 9.917969 -6.539062 9.917969 -7.738281 L 5.417969 -7.738281 L 5.417969 -10.796875 L 10.496094 -10.796875 C 10.496094 -11.996094 10.496094 -12.816406 10.496094 -13.996094 C 7.636719 -13.996094 4.640625 -13.996094 1.78125 -13.996094 L 1.78125 0 C 3 0 4.21875 0 5.417969 0 L 5.417969 -4.539062 Z M 9.917969 -4.539062 "
           id="path89" />
      </g>
    </g>
  </g>
  <g
     fill="#004aad"
     fill-opacity="1"
     id="g103">
    <g
       transform="translate(230.897495, 342.399938)"
       id="g101">
      <g
         id="g99">
        <path
           d="M 9.917969 -4.539062 C 9.917969 -5.777344 9.917969 -6.539062 9.917969 -7.738281 L 5.417969 -7.738281 L 5.417969 -10.796875 L 10.496094 -10.796875 C 10.496094 -11.996094 10.496094 -12.816406 10.496094 -13.996094 C 7.636719 -13.996094 4.640625 -13.996094 1.78125 -13.996094 L 1.78125 0 C 3 0 4.21875 0 5.417969 0 L 5.417969 -4.539062 Z M 9.917969 -4.539062 "
           id="path97" />
      </g>
    </g>
  </g>
  <g
     fill="#004aad"
     fill-opacity="1"
     id="g111">
    <g
       transform="translate(103.975636, 364.274976)"
       id="g109">
      <g
         id="g107">
        <path
           d="M 8.75 0 L 7.328125 -3.640625 L 2.75 -3.640625 L 1.34375 0 L 0 0 L 4.515625 -11.46875 L 5.640625 -11.46875 L 10.125 0 Z M 6.921875 -4.828125 L 5.59375 -8.375 C 5.414062 -8.820312 5.238281 -9.367188 5.0625 -10.015625 C 4.945312 -9.515625 4.78125 -8.96875 4.5625 -8.375 L 3.21875 -4.828125 Z M 6.921875 -4.828125 "
           id="path105" />
      </g>
    </g>
  </g>
  <g
     fill="#004aad"
     fill-opacity="1"
     id="g119">
    <g
       transform="translate(114.098163, 364.274976)"
       id="g117">
      <g
         id="g115">
        <path
           d="M 4.796875 0.15625 C 3.554688 0.15625 2.597656 -0.222656 1.921875 -0.984375 C 1.242188 -1.753906 0.90625 -2.835938 0.90625 -4.234375 C 0.90625 -5.660156 1.25 -6.765625 1.9375 -7.546875 C 2.625 -8.328125 3.609375 -8.71875 4.890625 -8.71875 C 5.296875 -8.71875 5.703125 -8.671875 6.109375 -8.578125 C 6.523438 -8.492188 6.851562 -8.394531 7.09375 -8.28125 L 6.6875 -7.171875 C 6.40625 -7.285156 6.09375 -7.378906 5.75 -7.453125 C 5.414062 -7.535156 5.117188 -7.578125 4.859375 -7.578125 C 3.117188 -7.578125 2.25 -6.46875 2.25 -4.25 C 2.25 -3.195312 2.457031 -2.390625 2.875 -1.828125 C 3.300781 -1.265625 3.929688 -0.984375 4.765625 -0.984375 C 5.484375 -0.984375 6.21875 -1.132812 6.96875 -1.4375 L 6.96875 -0.296875 C 6.394531 0.00390625 5.671875 0.15625 4.796875 0.15625 Z M 4.796875 0.15625 "
           id="path113" />
      </g>
    </g>
  </g>
  <g
     fill="#004aad"
     fill-opacity="1"
     id="g127">
    <g
       transform="translate(121.713496, 364.274976)"
       id="g125">
      <g
         id="g123">
        <path
           d="M 5 0.15625 C 3.726562 0.15625 2.726562 -0.226562 2 -1 C 1.269531 -1.769531 0.90625 -2.84375 0.90625 -4.21875 C 0.90625 -5.59375 1.242188 -6.6875 1.921875 -7.5 C 2.597656 -8.3125 3.507812 -8.71875 4.65625 -8.71875 C 5.726562 -8.71875 6.578125 -8.363281 7.203125 -7.65625 C 7.828125 -6.957031 8.140625 -6.03125 8.140625 -4.875 L 8.140625 -4.046875 L 2.25 -4.046875 C 2.269531 -3.046875 2.519531 -2.285156 3 -1.765625 C 3.488281 -1.242188 4.171875 -0.984375 5.046875 -0.984375 C 5.960938 -0.984375 6.875 -1.175781 7.78125 -1.5625 L 7.78125 -0.40625 C 7.320312 -0.207031 6.882812 -0.0664062 6.46875 0.015625 C 6.0625 0.109375 5.570312 0.15625 5 0.15625 Z M 4.640625 -7.640625 C 3.953125 -7.640625 3.40625 -7.414062 3 -6.96875 C 2.59375 -6.519531 2.351562 -5.898438 2.28125 -5.109375 L 6.75 -5.109375 C 6.75 -5.921875 6.566406 -6.546875 6.203125 -6.984375 C 5.835938 -7.421875 5.316406 -7.640625 4.640625 -7.640625 Z M 4.640625 -7.640625 "
           id="path121" />
      </g>
    </g>
  </g>
  <g
     fill="#004aad"
     fill-opacity="1"
     id="g135">
    <g
       transform="translate(130.687873, 364.274976)"
       id="g133">
      <g
         id="g131">
        <path
           d="M 6.90625 -2.34375 C 6.90625 -1.539062 6.609375 -0.921875 6.015625 -0.484375 C 5.421875 -0.0546875 4.585938 0.15625 3.515625 0.15625 C 2.378906 0.15625 1.492188 -0.0234375 0.859375 -0.390625 L 0.859375 -1.59375 C 1.265625 -1.382812 1.703125 -1.21875 2.171875 -1.09375 C 2.648438 -0.976562 3.109375 -0.921875 3.546875 -0.921875 C 4.222656 -0.921875 4.742188 -1.023438 5.109375 -1.234375 C 5.472656 -1.453125 5.65625 -1.785156 5.65625 -2.234375 C 5.65625 -2.566406 5.507812 -2.847656 5.21875 -3.078125 C 4.925781 -3.316406 4.363281 -3.597656 3.53125 -3.921875 C 2.726562 -4.222656 2.160156 -4.484375 1.828125 -4.703125 C 1.492188 -4.921875 1.242188 -5.171875 1.078125 -5.453125 C 0.910156 -5.734375 0.828125 -6.070312 0.828125 -6.46875 C 0.828125 -7.164062 1.109375 -7.710938 1.671875 -8.109375 C 2.242188 -8.515625 3.023438 -8.71875 4.015625 -8.71875 C 4.941406 -8.71875 5.84375 -8.53125 6.71875 -8.15625 L 6.265625 -7.109375 C 5.398438 -7.460938 4.617188 -7.640625 3.921875 -7.640625 C 3.304688 -7.640625 2.84375 -7.539062 2.53125 -7.34375 C 2.21875 -7.15625 2.0625 -6.890625 2.0625 -6.546875 C 2.0625 -6.316406 2.117188 -6.117188 2.234375 -5.953125 C 2.359375 -5.796875 2.550781 -5.644531 2.8125 -5.5 C 3.070312 -5.351562 3.570312 -5.144531 4.3125 -4.875 C 5.320312 -4.5 6.003906 -4.125 6.359375 -3.75 C 6.722656 -3.375 6.90625 -2.90625 6.90625 -2.34375 Z M 6.90625 -2.34375 "
           id="path129" />
      </g>
    </g>
  </g>
  <g
     fill="#004aad"
     fill-opacity="1"
     id="g143">
    <g
       transform="translate(138.318827, 364.274976)"
       id="g141">
      <g
         id="g139">
        <path
           d="M 6.90625 -2.34375 C 6.90625 -1.539062 6.609375 -0.921875 6.015625 -0.484375 C 5.421875 -0.0546875 4.585938 0.15625 3.515625 0.15625 C 2.378906 0.15625 1.492188 -0.0234375 0.859375 -0.390625 L 0.859375 -1.59375 C 1.265625 -1.382812 1.703125 -1.21875 2.171875 -1.09375 C 2.648438 -0.976562 3.109375 -0.921875 3.546875 -0.921875 C 4.222656 -0.921875 4.742188 -1.023438 5.109375 -1.234375 C 5.472656 -1.453125 5.65625 -1.785156 5.65625 -2.234375 C 5.65625 -2.566406 5.507812 -2.847656 5.21875 -3.078125 C 4.925781 -3.316406 4.363281 -3.597656 3.53125 -3.921875 C 2.726562 -4.222656 2.160156 -4.484375 1.828125 -4.703125 C 1.492188 -4.921875 1.242188 -5.171875 1.078125 -5.453125 C 0.910156 -5.734375 0.828125 -6.070312 0.828125 -6.46875 C 0.828125 -7.164062 1.109375 -7.710938 1.671875 -8.109375 C 2.242188 -8.515625 3.023438 -8.71875 4.015625 -8.71875 C 4.941406 -8.71875 5.84375 -8.53125 6.71875 -8.15625 L 6.265625 -7.109375 C 5.398438 -7.460938 4.617188 -7.640625 3.921875 -7.640625 C 3.304688 -7.640625 2.84375 -7.539062 2.53125 -7.34375 C 2.21875 -7.15625 2.0625 -6.890625 2.0625 -6.546875 C 2.0625 -6.316406 2.117188 -6.117188 2.234375 -5.953125 C 2.359375 -5.796875 2.550781 -5.644531 2.8125 -5.5 C 3.070312 -5.351562 3.570312 -5.144531 4.3125 -4.875 C 5.320312 -4.5 6.003906 -4.125 6.359375 -3.75 C 6.722656 -3.375 6.90625 -2.90625 6.90625 -2.34375 Z M 6.90625 -2.34375 "
           id="path137" />
      </g>
    </g>
  </g>
  <g
     fill="#004aad"
     fill-opacity="1"
     id="g151">
    <g
       transform="translate(145.949781, 364.274976)"
       id="g149">
      <g
         id="g147">
        <path
           d="M 8.765625 -4.296875 C 8.765625 -2.898438 8.410156 -1.804688 7.703125 -1.015625 C 7.003906 -0.234375 6.035156 0.15625 4.796875 0.15625 C 4.035156 0.15625 3.359375 -0.0195312 2.765625 -0.375 C 2.171875 -0.738281 1.710938 -1.253906 1.390625 -1.921875 C 1.066406 -2.597656 0.90625 -3.390625 0.90625 -4.296875 C 0.90625 -5.691406 1.253906 -6.773438 1.953125 -7.546875 C 2.648438 -8.328125 3.617188 -8.71875 4.859375 -8.71875 C 6.054688 -8.71875 7.003906 -8.316406 7.703125 -7.515625 C 8.410156 -6.722656 8.765625 -5.648438 8.765625 -4.296875 Z M 2.25 -4.296875 C 2.25 -3.203125 2.46875 -2.367188 2.90625 -1.796875 C 3.34375 -1.222656 3.984375 -0.9375 4.828125 -0.9375 C 5.679688 -0.9375 6.328125 -1.21875 6.765625 -1.78125 C 7.203125 -2.351562 7.421875 -3.191406 7.421875 -4.296875 C 7.421875 -5.378906 7.203125 -6.203125 6.765625 -6.765625 C 6.328125 -7.335938 5.675781 -7.625 4.8125 -7.625 C 3.96875 -7.625 3.328125 -7.34375 2.890625 -6.78125 C 2.460938 -6.226562 2.25 -5.398438 2.25 -4.296875 Z M 2.25 -4.296875 "
           id="path145" />
      </g>
    </g>
  </g>
  <g
     fill="#004aad"
     fill-opacity="1"
     id="g157">
    <g
       transform="translate(155.611489, 364.274976)"
       id="g155">
      <g
         id="g153" />
    </g>
  </g>
  <g
     fill="#004aad"
     fill-opacity="1"
     id="g165">
    <g
       transform="translate(159.766724, 364.274976)"
       id="g163">
      <g
         id="g161">
        <path
           d="M 5.28125 -8.71875 C 5.664062 -8.71875 6.007812 -8.6875 6.3125 -8.625 L 6.125 -7.421875 C 5.769531 -7.503906 5.457031 -7.546875 5.1875 -7.546875 C 4.5 -7.546875 3.90625 -7.265625 3.40625 -6.703125 C 2.914062 -6.140625 2.671875 -5.4375 2.671875 -4.59375 L 2.671875 0 L 1.375 0 L 1.375 -8.5625 L 2.453125 -8.5625 L 2.59375 -6.984375 L 2.65625 -6.984375 C 2.976562 -7.535156 3.363281 -7.960938 3.8125 -8.265625 C 4.257812 -8.566406 4.75 -8.71875 5.28125 -8.71875 Z M 5.28125 -8.71875 "
           id="path159" />
      </g>
    </g>
  </g>
  <g
     fill="#004aad"
     fill-opacity="1"
     id="g173">
    <g
       transform="translate(166.296379, 364.274976)"
       id="g171">
      <g
         id="g169">
        <path
           d="M 5 0.15625 C 3.726562 0.15625 2.726562 -0.226562 2 -1 C 1.269531 -1.769531 0.90625 -2.84375 0.90625 -4.21875 C 0.90625 -5.59375 1.242188 -6.6875 1.921875 -7.5 C 2.597656 -8.3125 3.507812 -8.71875 4.65625 -8.71875 C 5.726562 -8.71875 6.578125 -8.363281 7.203125 -7.65625 C 7.828125 -6.957031 8.140625 -6.03125 8.140625 -4.875 L 8.140625 -4.046875 L 2.25 -4.046875 C 2.269531 -3.046875 2.519531 -2.285156 3 -1.765625 C 3.488281 -1.242188 4.171875 -0.984375 5.046875 -0.984375 C 5.960938 -0.984375 6.875 -1.175781 7.78125 -1.5625 L 7.78125 -0.40625 C 7.320312 -0.207031 6.882812 -0.0664062 6.46875 0.015625 C 6.0625 0.109375 5.570312 0.15625 5 0.15625 Z M 4.640625 -7.640625 C 3.953125 -7.640625 3.40625 -7.414062 3 -6.96875 C 2.59375 -6.519531 2.351562 -5.898438 2.28125 -5.109375 L 6.75 -5.109375 C 6.75 -5.921875 6.566406 -6.546875 6.203125 -6.984375 C 5.835938 -7.421875 5.316406 -7.640625 4.640625 -7.640625 Z M 4.640625 -7.640625 "
           id="path167" />
      </g>
    </g>
  </g>
  <g
     fill="#004aad"
     fill-opacity="1"
     id="g181">
    <g
       transform="translate(175.270755, 364.274976)"
       id="g179">
      <g
         id="g177">
        <path
           d="M 12.296875 0 L 12.296875 -5.578125 C 12.296875 -6.253906 12.148438 -6.765625 11.859375 -7.109375 C 11.566406 -7.453125 11.113281 -7.625 10.5 -7.625 C 9.6875 -7.625 9.085938 -7.390625 8.703125 -6.921875 C 8.316406 -6.460938 8.125 -5.75 8.125 -4.78125 L 8.125 0 L 6.828125 0 L 6.828125 -5.578125 C 6.828125 -6.253906 6.679688 -6.765625 6.390625 -7.109375 C 6.097656 -7.453125 5.644531 -7.625 5.03125 -7.625 C 4.21875 -7.625 3.617188 -7.378906 3.234375 -6.890625 C 2.859375 -6.398438 2.671875 -5.601562 2.671875 -4.5 L 2.671875 0 L 1.375 0 L 1.375 -8.5625 L 2.4375 -8.5625 L 2.640625 -7.390625 L 2.703125 -7.390625 C 2.953125 -7.804688 3.296875 -8.128906 3.734375 -8.359375 C 4.179688 -8.597656 4.679688 -8.71875 5.234375 -8.71875 C 6.578125 -8.71875 7.453125 -8.234375 7.859375 -7.265625 L 7.921875 -7.265625 C 8.179688 -7.710938 8.550781 -8.066406 9.03125 -8.328125 C 9.519531 -8.585938 10.070312 -8.71875 10.6875 -8.71875 C 11.65625 -8.71875 12.378906 -8.46875 12.859375 -7.96875 C 13.347656 -7.476562 13.59375 -6.6875 13.59375 -5.59375 L 13.59375 0 Z M 12.296875 0 "
           id="path175" />
      </g>
    </g>
  </g>
  <g
     fill="#004aad"
     fill-opacity="1"
     id="g189">
    <g
       transform="translate(190.149939, 364.274976)"
       id="g187">
      <g
         id="g185">
        <path
           d="M 8.765625 -4.296875 C 8.765625 -2.898438 8.410156 -1.804688 7.703125 -1.015625 C 7.003906 -0.234375 6.035156 0.15625 4.796875 0.15625 C 4.035156 0.15625 3.359375 -0.0195312 2.765625 -0.375 C 2.171875 -0.738281 1.710938 -1.253906 1.390625 -1.921875 C 1.066406 -2.597656 0.90625 -3.390625 0.90625 -4.296875 C 0.90625 -5.691406 1.253906 -6.773438 1.953125 -7.546875 C 2.648438 -8.328125 3.617188 -8.71875 4.859375 -8.71875 C 6.054688 -8.71875 7.003906 -8.316406 7.703125 -7.515625 C 8.410156 -6.722656 8.765625 -5.648438 8.765625 -4.296875 Z M 2.25 -4.296875 C 2.25 -3.203125 2.46875 -2.367188 2.90625 -1.796875 C 3.34375 -1.222656 3.984375 -0.9375 4.828125 -0.9375 C 5.679688 -0.9375 6.328125 -1.21875 6.765625 -1.78125 C 7.203125 -2.351562 7.421875 -3.191406 7.421875 -4.296875 C 7.421875 -5.378906 7.203125 -6.203125 6.765625 -6.765625 C 6.328125 -7.335938 5.675781 -7.625 4.8125 -7.625 C 3.96875 -7.625 3.328125 -7.34375 2.890625 -6.78125 C 2.460938 -6.226562 2.25 -5.398438 2.25 -4.296875 Z M 2.25 -4.296875 "
           id="path183" />
      </g>
    </g>
  </g>
  <g
     fill="#004aad"
     fill-opacity="1"
     id="g197">
    <g
       transform="translate(199.811647, 364.274976)"
       id="g195">
      <g
         id="g193">
        <path
           d="M 4.140625 -0.921875 C 4.367188 -0.921875 4.585938 -0.9375 4.796875 -0.96875 C 5.015625 -1 5.1875 -1.035156 5.3125 -1.078125 L 5.3125 -0.078125 C 5.175781 -0.00390625 4.96875 0.0507812 4.6875 0.09375 C 4.414062 0.132812 4.171875 0.15625 3.953125 0.15625 C 2.296875 0.15625 1.46875 -0.71875 1.46875 -2.46875 L 1.46875 -7.5625 L 0.25 -7.5625 L 0.25 -8.1875 L 1.46875 -8.71875 L 2.015625 -10.546875 L 2.765625 -10.546875 L 2.765625 -8.5625 L 5.25 -8.5625 L 5.25 -7.5625 L 2.765625 -7.5625 L 2.765625 -2.515625 C 2.765625 -2.003906 2.882812 -1.609375 3.125 -1.328125 C 3.375 -1.054688 3.710938 -0.921875 4.140625 -0.921875 Z M 4.140625 -0.921875 "
           id="path191" />
      </g>
    </g>
  </g>
  <g
     fill="#004aad"
     fill-opacity="1"
     id="g205">
    <g
       transform="translate(205.458711, 364.274976)"
       id="g203">
      <g
         id="g201">
        <path
           d="M 8.765625 -4.296875 C 8.765625 -2.898438 8.410156 -1.804688 7.703125 -1.015625 C 7.003906 -0.234375 6.035156 0.15625 4.796875 0.15625 C 4.035156 0.15625 3.359375 -0.0195312 2.765625 -0.375 C 2.171875 -0.738281 1.710938 -1.253906 1.390625 -1.921875 C 1.066406 -2.597656 0.90625 -3.390625 0.90625 -4.296875 C 0.90625 -5.691406 1.253906 -6.773438 1.953125 -7.546875 C 2.648438 -8.328125 3.617188 -8.71875 4.859375 -8.71875 C 6.054688 -8.71875 7.003906 -8.316406 7.703125 -7.515625 C 8.410156 -6.722656 8.765625 -5.648438 8.765625 -4.296875 Z M 2.25 -4.296875 C 2.25 -3.203125 2.46875 -2.367188 2.90625 -1.796875 C 3.34375 -1.222656 3.984375 -0.9375 4.828125 -0.9375 C 5.679688 -0.9375 6.328125 -1.21875 6.765625 -1.78125 C 7.203125 -2.351562 7.421875 -3.191406 7.421875 -4.296875 C 7.421875 -5.378906 7.203125 -6.203125 6.765625 -6.765625 C 6.328125 -7.335938 5.675781 -7.625 4.8125 -7.625 C 3.96875 -7.625 3.328125 -7.34375 2.890625 -6.78125 C 2.460938 -6.226562 2.25 -5.398438 2.25 -4.296875 Z M 2.25 -4.296875 "
           id="path199" />
      </g>
    </g>
  </g>
  <g
     fill="#004aad"
     fill-opacity="1"
     id="g211">
    <g
       transform="translate(215.120419, 364.274976)"
       id="g209">
      <g
         id="g207" />
    </g>
  </g>
  <g
     fill="#004aad"
     fill-opacity="1"
     id="g219">
    <g
       transform="translate(219.275654, 364.274976)"
       id="g217">
      <g
         id="g215">
        <path
           d="M 0.640625 -4.390625 C 0.640625 -5.765625 0.84375 -7.050781 1.25 -8.25 C 1.65625 -9.457031 2.238281 -10.515625 3 -11.421875 L 4.265625 -11.421875 C 3.515625 -10.421875 2.945312 -9.316406 2.5625 -8.109375 C 2.1875 -6.910156 2 -5.675781 2 -4.40625 C 2 -3.15625 2.191406 -1.929688 2.578125 -0.734375 C 2.960938 0.460938 3.519531 1.550781 4.25 2.53125 L 3 2.53125 C 2.226562 1.644531 1.640625 0.613281 1.234375 -0.5625 C 0.835938 -1.75 0.640625 -3.023438 0.640625 -4.390625 Z M 0.640625 -4.390625 "
           id="path213" />
      </g>
    </g>
  </g>
  <g
     fill="#004aad"
     fill-opacity="1"
     id="g227">
    <g
       transform="translate(224.008873, 364.274976)"
       id="g225">
      <g
         id="g223">
        <path
           d="M 8.8125 -8.09375 C 8.8125 -6.9375 8.414062 -6.046875 7.625 -5.421875 C 6.84375 -4.804688 5.71875 -4.5 4.25 -4.5 L 2.90625 -4.5 L 2.90625 0 L 1.578125 0 L 1.578125 -11.421875 L 4.53125 -11.421875 C 7.382812 -11.421875 8.8125 -10.3125 8.8125 -8.09375 Z M 2.90625 -5.640625 L 4.09375 -5.640625 C 5.269531 -5.640625 6.117188 -5.828125 6.640625 -6.203125 C 7.171875 -6.585938 7.4375 -7.195312 7.4375 -8.03125 C 7.4375 -8.789062 7.1875 -9.351562 6.6875 -9.71875 C 6.195312 -10.09375 5.429688 -10.28125 4.390625 -10.28125 L 2.90625 -10.28125 Z M 2.90625 -5.640625 "
           id="path221" />
      </g>
    </g>
  </g>
  <g
     fill="#004aad"
     fill-opacity="1"
     id="g235">
    <g
       transform="translate(233.639339, 364.274976)"
       id="g233">
      <g
         id="g231">
        <path
           d="M 5.28125 -8.71875 C 5.664062 -8.71875 6.007812 -8.6875 6.3125 -8.625 L 6.125 -7.421875 C 5.769531 -7.503906 5.457031 -7.546875 5.1875 -7.546875 C 4.5 -7.546875 3.90625 -7.265625 3.40625 -6.703125 C 2.914062 -6.140625 2.671875 -5.4375 2.671875 -4.59375 L 2.671875 0 L 1.375 0 L 1.375 -8.5625 L 2.453125 -8.5625 L 2.59375 -6.984375 L 2.65625 -6.984375 C 2.976562 -7.535156 3.363281 -7.960938 3.8125 -8.265625 C 4.257812 -8.566406 4.75 -8.71875 5.28125 -8.71875 Z M 5.28125 -8.71875 "
           id="path229" />
      </g>
    </g>
  </g>
  <g
     fill="#004aad"
     fill-opacity="1"
     id="g243">
    <g
       transform="translate(240.168994, 364.274976)"
       id="g241">
      <g
         id="g239">
        <path
           d="M 8.765625 -4.296875 C 8.765625 -2.898438 8.410156 -1.804688 7.703125 -1.015625 C 7.003906 -0.234375 6.035156 0.15625 4.796875 0.15625 C 4.035156 0.15625 3.359375 -0.0195312 2.765625 -0.375 C 2.171875 -0.738281 1.710938 -1.253906 1.390625 -1.921875 C 1.066406 -2.597656 0.90625 -3.390625 0.90625 -4.296875 C 0.90625 -5.691406 1.253906 -6.773438 1.953125 -7.546875 C 2.648438 -8.328125 3.617188 -8.71875 4.859375 -8.71875 C 6.054688 -8.71875 7.003906 -8.316406 7.703125 -7.515625 C 8.410156 -6.722656 8.765625 -5.648438 8.765625 -4.296875 Z M 2.25 -4.296875 C 2.25 -3.203125 2.46875 -2.367188 2.90625 -1.796875 C 3.34375 -1.222656 3.984375 -0.9375 4.828125 -0.9375 C 5.679688 -0.9375 6.328125 -1.21875 6.765625 -1.78125 C 7.203125 -2.351562 7.421875 -3.191406 7.421875 -4.296875 C 7.421875 -5.378906 7.203125 -6.203125 6.765625 -6.765625 C 6.328125 -7.335938 5.675781 -7.625 4.8125 -7.625 C 3.96875 -7.625 3.328125 -7.34375 2.890625 -6.78125 C 2.460938 -6.226562 2.25 -5.398438 2.25 -4.296875 Z M 2.25 -4.296875 "
           id="path237" />
      </g>
    </g>
  </g>
  <g
     fill="#004aad"
     fill-opacity="1"
     id="g251">
    <g
       transform="translate(249.830702, 364.274976)"
       id="g249">
      <g
         id="g247">
        <path
           d="M 3.4375 -4.390625 L 0.46875 -8.5625 L 1.9375 -8.5625 L 4.203125 -5.28125 L 6.453125 -8.5625 L 7.90625 -8.5625 L 4.9375 -4.390625 L 8.0625 0 L 6.59375 0 L 4.203125 -3.46875 L 1.78125 0 L 0.3125 0 Z M 3.4375 -4.390625 "
           id="path245" />
      </g>
    </g>
  </g>
  <g
     fill="#004aad"
     fill-opacity="1"
     id="g259">
    <g
       transform="translate(258.211473, 364.274976)"
       id="g257">
      <g
         id="g255">
        <path
           d="M 0.015625 -8.5625 L 1.40625 -8.5625 L 3.28125 -3.6875 C 3.695312 -2.570312 3.953125 -1.765625 4.046875 -1.265625 L 4.109375 -1.265625 C 4.179688 -1.535156 4.320312 -1.988281 4.53125 -2.625 C 4.75 -3.269531 5.457031 -5.25 6.65625 -8.5625 L 8.046875 -8.5625 L 4.375 1.1875 C 4.007812 2.15625 3.582031 2.835938 3.09375 3.234375 C 2.601562 3.640625 2.003906 3.84375 1.296875 3.84375 C 0.898438 3.84375 0.507812 3.800781 0.125 3.71875 L 0.125 2.671875 C 0.414062 2.734375 0.738281 2.765625 1.09375 2.765625 C 1.976562 2.765625 2.613281 2.265625 3 1.265625 L 3.46875 0.046875 Z M 0.015625 -8.5625 "
           id="path253" />
      </g>
    </g>
  </g>
  <g
     fill="#004aad"
     fill-opacity="1"
     id="g267">
    <g
       transform="translate(266.272004, 364.274976)"
       id="g265">
      <g
         id="g263">
        <path
           d="M 4.09375 -4.390625 C 4.09375 -3.015625 3.890625 -1.734375 3.484375 -0.546875 C 3.085938 0.628906 2.507812 1.65625 1.75 2.53125 L 0.5 2.53125 C 1.21875 1.550781 1.769531 0.460938 2.15625 -0.734375 C 2.539062 -1.929688 2.734375 -3.15625 2.734375 -4.40625 C 2.734375 -5.675781 2.546875 -6.910156 2.171875 -8.109375 C 1.796875 -9.316406 1.234375 -10.421875 0.484375 -11.421875 L 1.75 -11.421875 C 2.507812 -10.515625 3.085938 -9.457031 3.484375 -8.25 C 3.890625 -7.039062 4.09375 -5.753906 4.09375 -4.390625 Z M 4.09375 -4.390625 "
           id="path261" />
      </g>
    </g>
  </g>
</svg>
