<svg xmlns="http://www.w3.org/2000/svg" viewBox="0 0 1000 739.74" width="1000" height="739.74" fill="#FFFFFF" fill-rule="evenodd" role="img" aria-label="UFF Mobile+">
  <title>UFF Mobile+</title>
  <path fill="#FFFFFF" fill-rule="evenodd" d="M 532.04 0.08 c -0.08 0.08 -1.6 0.31 -3.37 0.48 c -8.49 0.82 -15.04 2.11 -23.19 4.55 c -2.56 0.76 -5.2 1.6 -5.9 1.91 c -0.31 0.11 -1.01 0.37 -1.55 0.56 c -1.18 0.42 -2.22 0.82 -2.87 1.15 c -0.28 0.14 -0.62 0.25 -0.79 0.25 c -0.14 0 -1.1 0.37 -2.11 0.84 c -1.01 0.45 -1.91 0.84 -2 0.84 c -0.28 0 -8.43 3.91 -9.81 4.72 c -0.45 0.25 -1.77 1.04 -2.95 1.71 c -2.28 1.32 -5.96 3.68 -6.18 3.93 c -0.08 0.08 -0.96 0.73 -1.97 1.41 c -1.69 1.18 -6.16 4.47 -6.46 4.81 c -0.08 0.08 -0.51 0.45 -0.98 0.82 c -2.75 2.11 -10.74 9.78 -14.08 13.52 c -1.77 2 -6.6 8.12 -8.01 10.12 c -0.7 1.01 -1.71 2.45 -2.25 3.23 c -1.01 1.43 -1.26 1.88 -3.71 6.04 c -1.41 2.42 -3.91 7.25 -4.92 9.56 c -0.9 2.02 -1.71 3.85 -2.28 5.12 c -0.31 0.67 -0.93 2.22 -1.43 3.46 c -0.48 1.24 -1.07 2.61 -1.26 3.09 c -0.2 0.45 -0.51 1.29 -0.67 1.83 c -0.17 0.53 -0.53 1.74 -0.82 2.67 c -0.31 0.93 -0.7 2.25 -0.9 2.95 c -0.2 0.7 -0.45 1.57 -0.56 1.97 c -0.11 0.39 -0.34 1.21 -0.51 1.83 c -0.17 0.62 -0.42 1.63 -0.59 2.25 c -1.24 4.75 -2.3 10.96 -2.84 16.72 c -0.14 1.77 -0.37 3.93 -0.45 4.78 c -0.08 0.84 -0.25 21.98 -0.34 46.94 l -0.2 45.39 l -63.15 0.08 l -63.18 0.06 l 0 86.93 c 0 59.25 -0.08 87.49 -0.28 88.62 c -0.48 2.67 -0.9 4.64 -1.32 6.3 c -0.22 0.84 -0.48 1.83 -0.56 2.19 c -0.08 0.34 -0.25 0.7 -0.39 0.79 c -0.14 0.08 -0.25 0.34 -0.25 0.59 c 0 0.42 -2.02 4.72 -3.01 6.41 c -3.57 6.07 -9.7 11.55 -16.5 14.78 c -3.91 1.83 -5.93 2.5 -12.25 3.93 c -2.02 0.48 -11.55 0.37 -14.33 -0.14 c -3.77 -0.7 -4.5 -0.9 -6.89 -1.71 c -6.86 -2.33 -13.66 -7.25 -18.24 -13.21 c -1.52 -1.94 -4.67 -6.91 -4.67 -7.31 c 0 -0.08 -0.25 -0.76 -0.59 -1.49 c -0.34 -0.73 -0.7 -1.57 -0.84 -1.88 c -0.37 -0.9 -1.29 -4.08 -1.63 -5.62 c -0.17 -0.79 -0.45 -1.97 -0.65 -2.67 c -0.28 -0.98 -0.37 -19.87 -0.42 -88.9 l -0.08 -87.61 l -103.43 0 l -103.43 0 l 0 41.6 l 0 41.6 l 61.66 0 c 46.07 0 61.75 0.08 61.89 0.31 c 0.11 0.2 0.22 21.33 0.25 47.02 c 0.06 46.01 0.14 50.31 1.01 55.23 c 0.14 0.84 0.25 2.02 0.25 2.61 c 0 0.62 0.11 1.63 0.25 2.28 c 0.14 0.65 0.42 2 0.59 3.01 c 0.48 2.67 1.77 8.35 2.25 9.84 c 0.11 0.39 0.37 1.26 0.56 1.97 c 0.2 0.7 0.45 1.52 0.56 1.83 c 0.14 0.31 0.31 0.82 0.37 1.12 c 0.14 0.59 1.46 4.33 1.88 5.34 c 0.76 1.88 1.41 3.63 1.41 3.82 c 0 0.14 0.25 0.87 0.59 1.6 c 0.34 0.73 0.7 1.57 0.82 1.88 c 1.32 3.2 5.42 11.05 8.15 15.6 c 7.14 11.92 18.63 24.79 29.76 33.33 c 3.37 2.59 10.26 7.08 13.94 9.13 c 0.79 0.42 2.22 1.21 3.23 1.77 c 1.83 1.01 6.32 3.26 8.71 4.33 c 6.04 2.73 16.78 6.27 23.19 7.67 c 0.79 0.17 1.91 0.42 2.53 0.56 c 13.58 3.09 33.81 3.18 49.33 0.22 c 2.89 -0.56 8.26 -1.8 9.56 -2.22 c 0.39 -0.11 1.26 -0.37 1.97 -0.56 c 1.57 -0.45 4.47 -1.38 5.2 -1.69 c 1.8 -0.73 3.63 -1.41 3.82 -1.41 c 0.14 0 0.87 -0.28 1.6 -0.59 c 0.73 -0.34 1.71 -0.76 2.16 -0.96 c 3.32 -1.41 8.63 -3.99 10.54 -5.12 c 0.7 -0.39 1.69 -0.96 2.19 -1.24 c 2.11 -1.21 2.84 -1.66 4.69 -2.78 c 2.16 -1.32 7.48 -4.86 8.23 -5.48 c 0.25 -0.22 1.55 -1.24 2.87 -2.28 c 5.28 -4.19 13.01 -11.61 17.62 -16.89 c 5.28 -6.04 11.1 -14.45 15.09 -21.73 c 1.66 -3.01 5.23 -10.43 5.23 -10.82 c 0 -0.06 0.39 -0.96 0.84 -1.97 c 0.48 -1.01 0.84 -1.97 0.84 -2.11 c 0 -0.17 0.11 -0.51 0.28 -0.79 c 0.42 -0.76 2.56 -7.39 3.09 -9.61 c 0.14 -0.53 0.39 -1.49 0.53 -2.11 c 0.17 -0.62 0.45 -1.69 0.62 -2.39 c 0.14 -0.7 0.39 -1.77 0.56 -2.39 c 0.48 -2.08 1.35 -6.77 1.66 -9.13 c 1.49 -11.21 1.46 -10.01 1.66 -59.44 l 0.17 -46.66 l 20.63 -0.08 c 16.16 -0.06 20.71 0.03 21.05 0.28 c 0.37 0.31 0.39 1.63 0.31 9.64 c -0.06 5.09 -0.08 52.75 -0.03 105.9 l 0.06 96.6 l 41.4 -0.06 l 41.37 -0.08 l 0.03 -105.82 c 0.03 -58.21 0.06 -105.99 0.08 -106.18 c 0.03 -0.28 16.81 -0.34 83.45 -0.28 l 83.39 0.08 l 0.14 106.1 l 0.14 106.1 l 41.65 0.08 l 41.68 0.06 l 0.06 -106.16 l 0.08 -106.18 l 125.24 -0.08 l 125.24 -0.06 l -0.03 -41.54 l -0.03 -41.51 l -125.04 -0.08 c -81.96 -0.03 -125.13 -0.14 -125.24 -0.34 c -0.25 -0.39 -0.14 -84.37 0.11 -86.42 c 0.11 -0.93 0.31 -2.19 0.45 -2.81 c 0.11 -0.62 0.39 -1.88 0.59 -2.81 c 1.1 -5.4 3.77 -11.24 7.53 -16.44 c 1.57 -2.19 6.07 -6.83 8.04 -8.32 c 4.05 -3.06 8.74 -5.45 13.01 -6.6 c 0.48 -0.14 1.38 -0.39 1.97 -0.53 c 2.78 -0.76 6.1 -1.15 9.89 -1.18 c 3.93 0 5.42 0.17 9.13 1.1 c 0.93 0.22 2 0.48 2.39 0.56 c 0.39 0.08 0.84 0.25 0.98 0.37 c 0.17 0.08 0.84 0.37 1.55 0.56 c 2.39 0.73 9.5 4.58 10.4 5.59 c 0.08 0.11 0.65 0.56 1.26 1.01 c 1.83 1.38 5.54 5.2 7.2 7.45 c 4.3 5.87 6.55 11.33 7.93 19.25 c 0.17 1.01 0.34 10.99 0.45 24.73 l 0.17 23.05 l 41.43 0.08 c 24.62 0.03 41.51 -0.06 41.6 -0.2 c 0.08 -0.14 0.17 -11.44 0.17 -25.1 c 0 -23.36 -0.11 -27.6 -0.82 -32.27 c -0.08 -0.39 -0.2 -1.26 -0.31 -1.97 c -0.22 -1.77 -0.7 -4.44 -0.98 -5.76 c -0.14 -0.62 -0.39 -1.94 -0.56 -2.95 c -0.2 -1.01 -0.45 -2.22 -0.59 -2.67 c -0.25 -0.87 -0.98 -3.77 -1.38 -5.48 c -0.96 -4.1 -4.5 -13.88 -6.8 -18.83 c -2.5 -5.37 -5.06 -10.31 -6.1 -11.78 c -0.34 -0.45 -0.59 -0.96 -0.59 -1.12 c 0 -0.17 -0.11 -0.31 -0.25 -0.31 c -0.14 0 -0.37 -0.25 -0.45 -0.56 c -0.08 -0.31 -0.34 -0.73 -0.53 -0.9 c -0.59 -0.62 -2.14 -2.98 -2.14 -3.26 c 0 -0.17 -0.11 -0.34 -0.22 -0.39 c -0.14 -0.06 -0.79 -0.9 -1.46 -1.88 c -0.65 -0.98 -1.38 -2 -1.57 -2.25 c -0.2 -0.25 -1.71 -2.16 -3.4 -4.24 c -3.09 -3.88 -11.47 -12.56 -15.04 -15.6 c -1.07 -0.93 -2.42 -2.11 -2.98 -2.61 c -0.59 -0.53 -2.3 -1.88 -3.85 -3.06 c -1.55 -1.15 -3.01 -2.25 -3.26 -2.47 c -1.12 -0.87 -4.75 -3.23 -5.03 -3.23 c -0.14 0 -0.28 -0.14 -0.28 -0.28 c 0 -0.17 -0.14 -0.28 -0.31 -0.28 c -0.17 0 -0.65 -0.25 -1.1 -0.56 c -1.94 -1.38 -10.06 -5.48 -15.23 -7.7 c -2.75 -1.18 -3.23 -1.38 -3.79 -1.6 c -0.37 -0.14 -0.93 -0.37 -1.26 -0.51 c -1.29 -0.53 -3.2 -1.21 -4.44 -1.6 c -0.7 -0.22 -1.52 -0.53 -1.83 -0.67 c -0.31 -0.11 -0.87 -0.31 -1.26 -0.42 c -0.76 -0.2 -2.16 -0.59 -3.51 -0.98 c -2.02 -0.59 -5.45 -1.46 -6.89 -1.71 c -0.84 -0.17 -2.11 -0.42 -2.81 -0.56 c -10.62 -2.14 -30.02 -2.84 -39.07 -1.38 c -0.84 0.14 -2.67 0.39 -4.08 0.56 c -1.38 0.17 -3.04 0.42 -3.65 0.56 c -0.62 0.11 -1.88 0.39 -2.81 0.56 c -2.39 0.45 -4.83 1.07 -7.87 1.97 c -1.07 0.31 -2.47 0.7 -3.09 0.87 c -0.62 0.17 -1.38 0.42 -1.69 0.53 c -0.31 0.11 -1.12 0.39 -1.83 0.59 c -0.7 0.2 -1.38 0.42 -1.55 0.53 c -0.14 0.08 -0.79 0.34 -1.41 0.53 c -0.62 0.2 -1.38 0.45 -1.69 0.59 c -1.07 0.45 -2.53 1.07 -3.93 1.69 c -0.76 0.34 -1.97 0.87 -2.67 1.18 c -5.85 2.56 -11.69 5.76 -17.28 9.5 c -10.37 6.91 -17.26 12.9 -25.21 21.92 c -7.56 8.6 -12.03 15.35 -17.09 25.72 c -3.34 6.86 -5.45 11.89 -6.91 16.44 c -0.37 1.15 -0.93 2.89 -1.24 3.82 c -0.31 0.96 -0.56 1.94 -0.56 2.19 c 0 0.25 -0.11 0.67 -0.25 0.96 c -0.34 0.59 -1.07 3.43 -2 7.64 c -0.2 0.84 -0.45 2.05 -0.59 2.67 c -1.07 4.69 -1.85 11.61 -2.14 18.47 c -0.17 4.19 -0.65 5.85 -0.65 2.22 c 0 -3.6 -0.65 -10.82 -1.43 -16.19 c -0.45 -2.95 -1.24 -7.14 -1.66 -8.85 c -0.14 -0.53 -0.59 -2.39 -1.01 -4.08 c -0.39 -1.71 -0.9 -3.6 -1.1 -4.22 c -0.17 -0.62 -0.51 -1.69 -0.7 -2.39 c -0.2 -0.7 -0.45 -1.52 -0.56 -1.83 c -0.11 -0.31 -0.48 -1.46 -0.82 -2.53 c -0.34 -1.1 -0.73 -2.22 -0.87 -2.53 c -0.11 -0.31 -0.56 -1.46 -0.98 -2.53 c -1.12 -2.95 -1.38 -3.49 -4.24 -9.27 c -2.78 -5.62 -3.6 -7.11 -4.92 -9.05 c -0.45 -0.65 -0.82 -1.26 -0.82 -1.41 c -0.03 -0.11 -0.53 -0.93 -1.15 -1.77 c -0.59 -0.84 -1.74 -2.5 -2.56 -3.65 c -0.79 -1.15 -1.52 -2.16 -1.63 -2.25 c -0.08 -0.08 -0.48 -0.59 -0.84 -1.12 c -3.96 -5.79 -13.18 -15.37 -19.81 -20.6 c -0.31 -0.25 -1.88 -1.49 -3.51 -2.78 c -4.97 -3.96 -8.46 -6.35 -13.63 -9.39 c -2.05 -1.21 -10.82 -5.45 -11.24 -5.45 c -0.08 0 -0.76 -0.25 -1.49 -0.59 c -1.66 -0.73 -2.05 -0.9 -4.13 -1.66 c -0.93 -0.34 -1.94 -0.73 -2.25 -0.84 c -0.7 -0.31 -5 -1.71 -7.59 -2.47 c -2.22 -0.65 -3.26 -0.93 -7.73 -2.02 c -4.47 -1.12 -9.64 -1.88 -17 -2.56 c -3.46 -0.31 -19.87 -0.67 -20.1 -0.45 Z m 12.79 83.7 c 8.83 1.01 16.39 4.16 22.48 9.36 c 2.14 1.8 2.47 2.14 4.36 4.38 c 0.84 1.01 1.63 1.88 1.71 1.97 c 0.48 0.42 2.64 3.91 3.82 6.18 c 2.39 4.58 3.23 7.17 4.61 13.77 c 0.31 1.41 0.39 5.59 0.39 18.69 c 0.03 9.27 0.06 19.81 0.08 23.38 l 0.06 6.55 l 41.88 0 l 41.88 0 l -0.06 20.71 l -0.08 20.74 l -83.39 0.08 c -79.31 0.06 -83.42 0.03 -83.42 -0.42 c -0.08 -6.83 0.06 -85.98 0.17 -86.79 c 0.37 -2.81 1.26 -6.58 2.42 -10.12 c 1.41 -4.38 4.44 -9.95 7.36 -13.49 c 5.76 -7.03 13.72 -12 22.43 -14 c 5.62 -1.32 8.74 -1.55 13.29 -1.01 Z"/>
  <path fill="#FFFFFF" fill-rule="evenodd" d="M 416.1 589.66 c -2.59 0.2 -3.91 0.87 -4.86 2.5 l -0.76 1.29 l 0 55.37 c 0 56.69 0 55.85 1.01 62.25 c 1.1 6.72 3.4 12.62 6.41 16.3 c 3.04 3.77 6.13 5.99 11.83 8.52 c 0.53 0.25 2.56 0.96 4.5 1.57 c 7.17 2.25 7.59 2.28 50.73 2.33 c 41.62 0.08 40.75 0.11 50.31 -1.77 c 5.37 -1.07 9.61 -2.7 13.21 -5.12 c 5.09 -3.4 9.81 -10.4 11.1 -16.5 c 1.94 -9.05 2.25 -13.21 2.25 -30.41 c 0 -17.96 -0.51 -24.03 -2.59 -31.56 c -1.15 -4.19 -3.23 -8.8 -5.17 -11.35 c -3.99 -5.31 -10.31 -9.16 -17.96 -10.99 c -3.51 -0.82 -4.83 -1.04 -10.71 -1.69 c -1.6 -0.17 -17.99 -0.28 -44.32 -0.28 l -41.79 0 l 0 -18.07 c 0 -12.11 -0.11 -18.41 -0.31 -19.17 c -0.34 -1.26 -1.38 -2.47 -2.47 -2.92 c -0.79 -0.31 -16.95 -0.56 -20.4 -0.31 Z m 99.49 64.36 c 5.06 0.42 6.83 0.82 9.89 2.3 c 2.95 1.43 5.23 4.16 6.41 7.64 c 1.18 3.54 1.26 5.06 1.26 20.15 c 0 14.42 -0.14 17.12 -1.1 20.77 c -1.52 5.93 -5.2 9.02 -12.2 10.26 c -3.37 0.59 -63.86 0.62 -67.23 0 c -4.64 -0.82 -6.86 -1.77 -8.99 -3.93 c -1.57 -1.57 -2.39 -3.06 -3.18 -5.76 c -1.21 -4.1 -1.26 -4.89 -1.38 -28.75 l -0.14 -22.96 l 36.65 0 c 21.22 0 38.03 0.11 39.99 0.28 Z"/>
  <path fill="#FFFFFF" fill-rule="evenodd" d="M 589.52 589.6 c -1.57 0.28 -2.87 1.12 -3.43 2.3 c -0.45 0.87 -0.51 2.08 -0.59 10.93 c -0.08 10.74 0.03 11.89 1.43 13.15 c 1.38 1.26 1.49 1.29 12.84 1.32 c 11.5 0.03 11.35 0.06 12.87 -1.35 c 1.46 -1.32 1.49 -1.52 1.41 -12.7 c -0.08 -11.64 -0.11 -11.69 -2.14 -13.04 l -1.04 -0.67 l -10.12 -0.06 c -5.56 -0.03 -10.62 0.03 -11.24 0.11 Z"/>
  <path fill="#FFFFFF" fill-rule="evenodd" d="M 915.46 589.63 c -1.52 0.25 -2.53 1.01 -3.26 2.45 c -0.59 1.1 -0.59 1.46 -0.73 29.9 l -0.14 28.81 l -28.95 0.14 l -28.95 0.14 l -1.01 0.62 c -2.02 1.26 -2.22 2.42 -2.22 12.9 c 0 9.22 0.08 9.89 1.32 11.58 c 1.52 2.02 -0.76 1.88 31.23 1.97 l 28.72 0.08 l 0 28.44 c 0 29.23 0 29.12 1.07 31.03 c 0.2 0.34 0.9 0.96 1.57 1.35 l 1.21 0.7 l 9.7 0 c 10.4 0 10.93 -0.06 12.2 -1.46 c 1.43 -1.57 1.38 -0.06 1.46 -30.97 c 0.03 -15.94 0.11 -29.01 0.2 -29.06 c 0.06 -0.06 13.04 -0.14 28.86 -0.17 l 28.75 -0.06 l 1.21 -0.67 c 1.46 -0.84 1.88 -1.43 2.25 -3.37 c 0.37 -1.77 0.28 -18.49 -0.08 -19.81 c -0.37 -1.32 -0.98 -2.08 -2.14 -2.7 c -1.04 -0.51 -1.91 -0.53 -29.9 -0.53 c -24.03 0 -28.84 -0.06 -28.98 -0.39 c -0.08 -0.2 -0.17 -13.13 -0.2 -28.72 l -0.06 -28.36 l -0.7 -1.26 c -0.48 -0.82 -1.15 -1.49 -1.97 -1.97 l -1.26 -0.7 l -8.99 -0.06 c -4.95 0 -9.53 0.06 -10.2 0.17 Z"/>
  <path fill="#FFFFFF" fill-rule="evenodd" d="M 642.36 589.99 c -1.1 0.59 -1.91 1.49 -2.42 2.7 c -0.51 1.18 -0.53 3.34 -0.53 71.53 c 0 47.33 0.11 70.74 0.31 71.59 c 0.14 0.67 0.59 1.66 0.98 2.16 c 1.29 1.69 1.57 1.74 13.13 1.83 c 11.72 0.08 11.47 0.11 13.04 -1.94 l 0.79 -1.01 l 0.17 -12.82 c 0.25 -16.58 0.25 -83.59 0 -110.34 l -0.17 -20.8 l -0.67 -1.01 c -0.39 -0.53 -1.1 -1.26 -1.63 -1.6 c -0.9 -0.62 -1.1 -0.62 -11.66 -0.62 c -7.34 0.03 -10.93 0.11 -11.33 0.34 Z"/>
  <path fill="#FFFFFF" fill-rule="evenodd" d="M 12.65 600.06 c -0.39 0.11 -1.26 0.37 -1.97 0.56 c -4.67 1.35 -8.4 4.92 -9.5 9.13 c -0.17 0.62 -0.48 1.74 -0.67 2.53 c -0.31 1.15 -0.37 13.04 -0.37 62.96 c 0 61.52 0 61.55 0.56 62.54 c 1.15 1.94 1.35 1.97 13.83 2.05 c 10.85 0.06 11.21 0.03 12.17 -0.53 c 0.53 -0.31 1.26 -0.98 1.6 -1.52 l 0.65 -0.93 l 0.06 -49.21 c 0.06 -27.07 0.08 -51.12 0.08 -53.46 c 0 -5.14 0.03 -5.17 2.59 -5.17 c 2.3 0 3.04 0.48 4.02 2.64 c 0.42 0.96 1.12 2.45 1.52 3.32 c 0.39 0.9 1.04 2.3 1.41 3.09 c 0.37 0.82 0.96 2.11 1.29 2.89 c 0.34 0.76 0.98 2.16 1.41 3.09 c 0.42 0.93 1.07 2.3 1.41 3.09 c 0.34 0.76 0.87 1.97 1.18 2.67 c 0.79 1.74 1.52 3.43 2.22 4.97 c 0.34 0.76 0.96 2.14 1.41 3.09 c 0.45 0.98 1.18 2.56 1.63 3.51 c 0.45 0.98 1.1 2.39 1.43 3.18 c 0.34 0.76 0.93 2.08 1.29 2.89 c 0.37 0.82 0.67 1.52 0.67 1.57 c 0 0.06 0.51 1.24 1.15 2.61 c 0.62 1.35 1.29 2.84 1.52 3.32 c 1.21 2.75 1.69 3.82 2.28 5.14 c 0.37 0.82 0.67 1.55 0.67 1.63 c 0 0.06 0.56 1.29 1.24 2.73 c 1.18 2.53 1.88 4.08 3.04 6.66 c 0.31 0.7 0.93 2.02 1.35 2.95 c 0.42 0.93 1.12 2.42 1.52 3.29 c 0.39 0.9 1.07 2.36 1.46 3.23 c 0.39 0.9 1.1 2.39 1.52 3.32 c 0.42 0.93 1.04 2.25 1.35 2.95 c 0.62 1.41 1.38 3.12 2.3 5.2 c 1.66 3.71 2.7 6.1 3.29 7.45 c 1.46 3.32 4.02 8.29 5.17 10.03 c 2.45 3.6 6.01 6.91 9.02 8.32 c 3.77 1.77 5.23 1.94 16.1 1.97 c 10.74 0 13.04 -0.28 16.84 -2.14 c 3.2 -1.55 5.34 -3.23 7.28 -5.79 c 0.65 -0.87 1.24 -1.63 1.32 -1.71 c 0.48 -0.45 2.73 -4.55 4.24 -7.73 c 3.51 -7.42 4.13 -8.74 4.75 -10.12 c 0.34 -0.79 0.93 -2.08 1.29 -2.89 c 0.37 -0.79 0.98 -2.14 1.35 -2.95 c 0.37 -0.79 0.93 -2.02 1.24 -2.73 c 0.31 -0.7 0.82 -1.83 1.12 -2.53 c 0.31 -0.7 0.82 -1.83 1.12 -2.53 c 2.11 -4.72 2.87 -6.46 3.99 -8.85 c 0.42 -0.93 0.96 -2.14 1.21 -2.67 c 0.96 -2.19 1.71 -3.91 2.61 -5.85 c 0.53 -1.1 1.38 -2.95 1.91 -4.08 c 0.53 -1.1 1.21 -2.61 1.55 -3.37 c 1.01 -2.3 1.63 -3.65 2.25 -5.06 c 0.31 -0.73 0.87 -1.91 1.18 -2.67 c 0.7 -1.57 1.57 -3.46 2.75 -6.04 c 0.48 -1.04 0.87 -1.94 0.87 -2 c 0 -0.06 0.51 -1.24 1.15 -2.61 c 0.62 -1.35 1.32 -2.92 1.57 -3.46 c 0.22 -0.53 0.79 -1.74 1.21 -2.67 c 0.42 -0.93 1.12 -2.42 1.52 -3.32 c 0.39 -0.87 1.07 -2.33 1.46 -3.23 c 0.39 -0.87 1.1 -2.36 1.52 -3.29 c 0.42 -0.93 1.07 -2.33 1.41 -3.09 c 2.7 -6.1 3.06 -6.77 3.82 -7.14 c 0.39 -0.17 1.46 -0.31 2.36 -0.31 c 1.35 0 1.71 0.11 1.97 0.53 c 0.2 0.37 0.28 17.73 0.28 53.34 c 0 29.03 0.08 53.09 0.2 53.49 c 0.08 0.39 0.48 1.12 0.84 1.63 c 1.29 1.74 1.15 1.71 13.55 1.74 c 11.94 0.03 11.8 0.06 13.32 -1.38 c 1.71 -1.57 1.6 2.61 1.6 -60.29 c 0 -39.99 -0.08 -58.71 -0.31 -61.16 c -0.65 -7.31 -1.46 -9.67 -4.33 -12.56 c -2.64 -2.64 -5.42 -3.79 -10.31 -4.3 c -3.71 -0.39 -28.41 -0.37 -30.35 0.03 c -3.23 0.65 -6.1 2.05 -8.32 4.08 c -1.66 1.52 -3.71 4.3 -4.61 6.3 c -1.6 3.51 -1.91 4.24 -1.91 4.36 c 0 0.06 -0.37 0.96 -0.84 1.97 c -0.45 1.01 -0.84 1.91 -0.84 1.97 c 0 0.08 -0.28 0.76 -0.59 1.49 c -0.34 0.73 -0.76 1.69 -0.96 2.16 c -0.2 0.45 -0.62 1.43 -0.93 2.14 c -0.34 0.7 -0.84 1.97 -1.18 2.78 c -0.34 0.82 -0.82 2.02 -1.12 2.64 c -0.28 0.65 -1.46 3.37 -2.61 6.07 c -1.97 4.58 -3.46 7.98 -4.97 11.38 c -0.34 0.76 -0.79 1.77 -0.98 2.25 c -0.2 0.45 -0.7 1.57 -1.1 2.47 c -0.39 0.9 -0.73 1.69 -0.73 1.77 c 0 0.06 -0.51 1.21 -1.12 2.53 c -0.62 1.32 -1.12 2.47 -1.12 2.53 c 0 0.06 -0.31 0.76 -0.67 1.57 c -1.57 3.49 -1.85 4.13 -2.42 5.59 c -0.62 1.57 -0.93 2.3 -1.94 4.53 c -0.31 0.73 -0.59 1.41 -0.59 1.49 c 0 0.06 -0.37 0.96 -0.84 1.97 c -0.45 1.01 -0.84 1.91 -0.84 1.97 c 0 0.06 -0.31 0.82 -0.7 1.69 c -0.39 0.84 -1.01 2.25 -1.41 3.09 c -0.39 0.87 -0.7 1.63 -0.7 1.69 c 0 0.06 -0.31 0.79 -0.67 1.6 c -0.37 0.82 -0.96 2.11 -1.29 2.89 c -0.34 0.76 -0.93 2.08 -1.29 2.89 c -0.37 0.82 -0.67 1.55 -0.67 1.6 c 0 0.06 -0.31 0.79 -0.67 1.6 c -0.39 0.84 -0.96 2.19 -1.29 3.04 c -0.34 0.84 -0.9 2.19 -1.29 3.04 c -0.37 0.82 -0.67 1.55 -0.67 1.6 c 0 0.08 -0.28 0.76 -0.59 1.49 c -0.34 0.73 -0.76 1.69 -0.96 2.16 c -2.25 5.28 -3.49 7.67 -4.27 8.29 c -0.53 0.42 -1.12 0.56 -2.39 0.56 c -3.2 0 -4.27 -1.15 -6.69 -7.31 c -0.34 -0.84 -0.9 -2.19 -1.29 -3.04 c -0.37 -0.82 -0.67 -1.55 -0.67 -1.6 c 0 -0.06 -0.31 -0.79 -0.67 -1.6 c -0.87 -1.97 -1.83 -4.1 -2.28 -5.14 c -0.2 -0.48 -0.62 -1.43 -0.96 -2.16 c -0.31 -0.73 -0.59 -1.41 -0.59 -1.49 c 0 -0.06 -0.31 -0.79 -0.67 -1.6 c -0.39 -0.84 -0.96 -2.19 -1.29 -3.04 c -0.34 -0.84 -0.9 -2.19 -1.29 -3.04 c -0.37 -0.82 -0.67 -1.55 -0.67 -1.6 c 0 -0.06 -0.37 -0.96 -0.84 -1.97 c -0.45 -1.01 -0.84 -1.91 -0.84 -1.97 c 0 -0.06 -0.37 -0.96 -0.84 -1.97 c -0.45 -1.01 -0.84 -1.91 -0.84 -1.97 c 0 -0.06 -0.37 -0.96 -0.84 -1.97 c -0.45 -1.01 -0.84 -1.91 -0.84 -1.97 c 0 -0.06 -0.37 -0.96 -0.84 -1.97 c -0.45 -1.01 -0.84 -1.91 -0.84 -1.97 c 0 -0.06 -0.37 -0.96 -0.84 -1.97 c -0.45 -1.01 -0.84 -1.91 -0.84 -1.97 c 0 -0.06 -0.31 -0.79 -0.67 -1.6 c -1.38 -3.06 -2.5 -5.62 -2.98 -6.83 c -0.11 -0.31 -0.48 -1.15 -0.82 -1.88 c -0.34 -0.73 -0.59 -1.41 -0.59 -1.49 c 0 -0.06 -0.31 -0.79 -0.67 -1.6 c -0.39 -0.84 -0.96 -2.19 -1.29 -3.01 c -0.31 -0.84 -0.84 -2.08 -1.15 -2.75 c -0.9 -2 -1.55 -3.49 -2.5 -5.71 c -1.01 -2.39 -1.71 -3.96 -2.7 -6.13 c -0.37 -0.82 -0.67 -1.52 -0.67 -1.57 c 0 -0.06 -0.51 -1.24 -1.15 -2.61 c -1.74 -3.79 -1.85 -4.05 -2.5 -5.68 c -0.31 -0.84 -0.82 -2.05 -1.1 -2.67 c -0.76 -1.69 -1.57 -3.51 -2.28 -5.09 c -1.01 -2.33 -2.53 -5.26 -3.37 -6.46 c -2.16 -3.09 -5.14 -5.42 -8.15 -6.3 c -0.7 -0.2 -1.63 -0.48 -2.08 -0.62 c -1.01 -0.31 -32.94 -0.28 -33.9 0.03 Z"/>
  <path fill="#FFFFFF" fill-rule="evenodd" d="M 271.5 630.44 c -9.95 1.15 -12.9 1.91 -18.77 4.86 c -7.62 3.79 -12.62 10.6 -14.92 20.26 c -0.2 0.76 -0.45 1.85 -0.59 2.39 c -0.25 1.07 -0.7 4.3 -1.1 8.29 c -0.37 3.63 -0.39 32.77 -0.03 36.82 c 0.67 7.76 1.24 10.93 2.87 16.02 c 1.18 3.65 3.4 7.39 6.04 10.12 c 2.84 2.95 4.61 4.22 8.23 5.99 c 5.03 2.42 7.11 2.92 16.58 4.27 c 3.12 0.45 78.81 0.48 82.35 0.03 c 3.6 -0.45 6.41 -0.87 7.59 -1.15 c 0.53 -0.14 1.63 -0.39 2.39 -0.59 c 5.12 -1.18 10.43 -3.4 13.27 -5.51 c 4.67 -3.46 8.66 -9.42 10.15 -15.12 c 1.77 -6.69 2.22 -12.34 2.39 -30.49 c 0.17 -16.19 -0.34 -25.21 -1.77 -30.72 c -1.41 -5.34 -2.02 -7.08 -3.63 -9.89 c -2.7 -4.72 -6.55 -8.35 -11.27 -10.65 c -2.05 -1.01 -3.29 -1.46 -7.31 -2.7 c -0.39 -0.11 -1.46 -0.37 -2.39 -0.53 c -0.93 -0.2 -2.25 -0.45 -2.95 -0.59 c -1.57 -0.31 -5.65 -0.76 -9.7 -1.1 c -3.99 -0.31 -74.65 -0.31 -77.43 0 Z m 74.06 23.75 c 3.37 0.59 4.24 0.84 5.9 1.66 c 3.4 1.66 5.79 4.81 6.94 9.13 c 0.82 3.15 1.07 7.48 1.07 18.83 c 0 19.39 -0.76 23.86 -4.75 27.82 c -2.33 2.3 -5.12 3.54 -9.58 4.22 c -2.36 0.34 -65.71 0.25 -67.45 -0.11 c -7.76 -1.57 -11.05 -4.81 -12.31 -12.11 c -0.17 -0.93 -0.39 -3.34 -0.48 -5.34 c -0.25 -5.17 -0.28 -24.76 -0.03 -27.97 c 0.67 -9.25 3.09 -13.1 9.58 -15.32 c 4.16 -1.41 6.1 -1.49 39.49 -1.35 c 23.83 0.08 29.79 0.2 31.62 0.53 Z"/>
  <path fill="#FFFFFF" fill-rule="evenodd" d="M 587.83 630.49 c -0.98 0.59 -1.77 1.66 -2 2.7 c -0.22 1.24 -0.17 101.24 0.08 102.61 c 0.25 1.38 1.18 2.67 2.39 3.37 c 0.98 0.56 1.49 0.59 11.52 0.65 c 9.53 0.06 10.57 0 11.38 -0.42 c 1.04 -0.59 2.19 -2.02 2.45 -3.09 c 0.08 -0.39 0.22 -23.3 0.31 -50.84 c 0.17 -51.55 0.14 -52.25 -0.93 -53.88 c -0.96 -1.43 -1.12 -1.46 -13.32 -1.43 c -8.23 0 -11.47 0.08 -11.89 0.34 Z"/>
  <path fill="#FFFFFF" fill-rule="evenodd" d="M 722.6 630.58 c -3.6 0.42 -7.39 1.15 -9.7 1.8 c -0.62 0.17 -1.41 0.39 -1.77 0.48 c -0.34 0.08 -0.7 0.25 -0.79 0.39 c -0.08 0.14 -0.37 0.25 -0.62 0.25 c -1.12 0 -6.97 3.43 -9.33 5.45 c -2.14 1.85 -4.47 4.41 -5.65 6.24 c -1.18 1.83 -1.49 2.39 -2.59 4.89 c -1.77 4.08 -3.06 12.17 -3.32 20.66 c -0.25 8.71 -0.08 31.82 0.25 34.71 c 0.76 6.58 1.97 12.56 2.89 14.39 c 0.14 0.28 0.25 0.65 0.25 0.82 c 0 0.56 1.74 4.02 2.89 5.73 c 2.75 4.08 7.14 7.34 13.13 9.72 c 0.84 0.34 1.94 0.7 2.39 0.82 c 3.26 0.87 4.1 1.07 5.48 1.35 c 1.85 0.37 4.67 0.76 8.85 1.21 c 2.25 0.25 15.94 0.34 50.45 0.37 c 44.6 0.03 47.41 0 48.26 -0.45 c 0.51 -0.28 1.26 -0.98 1.69 -1.55 l 0.79 -1.01 l 0 -9.3 c 0 -10.54 0.06 -10.31 -2.28 -11.38 c -1.24 -0.59 -1.24 -0.59 -46.26 -0.59 c -38.53 0 -45.39 -0.06 -47.3 -0.42 c -3.37 -0.62 -4.13 -0.84 -5.82 -1.66 c -5.06 -2.47 -6.94 -6.69 -7.05 -15.77 l -0.06 -4.22 l 49.18 -0.03 c 27.07 -0.03 50.45 -0.14 52 -0.22 c 6.24 -0.39 9.36 -2.42 10.51 -6.77 c 0.39 -1.49 0.42 -27.35 0.03 -31 c -0.93 -8.46 -3.26 -14.17 -7.36 -17.9 c -2.08 -1.91 -2.3 -2.08 -4.89 -3.54 c -2.84 -1.57 -7.81 -2.78 -14.45 -3.49 c -5.26 -0.56 -75.27 -0.53 -79.82 0.03 Z m 56.63 21.75 l 14.61 0.2 l 1.94 0.76 c 2.53 0.96 3.34 1.63 4.36 3.54 c 0.98 1.91 1.29 4.36 1.29 10.54 c 0 5.65 -0.03 5.93 -0.62 6.77 c -0.34 0.48 -0.98 1.01 -1.41 1.21 c -0.59 0.22 -11.44 0.31 -41.4 0.25 l -40.61 -0.08 l 0.08 -4.64 c 0.11 -6.1 0.56 -8.57 2.08 -11.47 c 1.57 -3.04 4.61 -5.12 9.11 -6.27 c 2.28 -0.56 3.4 -0.65 12.9 -0.82 c 14.73 -0.25 21.05 -0.25 37.66 0 Z"/>
</svg>
