<svg version="1.0" xmlns="http://www.w3.org/2000/svg" width="40.3" height="40.3" viewBox="22 -0.00791168212890625 368 496.00787353515625"><path d="M186.1 1.6c-16.6 2.8-37 11.3-50.1 21-32.2 23.6-50 59.1-50 99.7 0 11.5-.1 11.9-2.9 15.5-1.6 2-3.4 5.2-4 7.1-1.4 4.4-1.5 41.3 0 46.5 1.2 4.2 7.7 11.9 12 14.1 1.5.8 4.5 1.7 6.8 2.1l4.1.7v9.6c0 13 1.1 16.5 7.4 22.7 6.4 6.5 9.5 7.4 26 7.4h13l4.6 3.9c5.3 4.5 16.3 11.7 19.1 12.6 1.7.6 1.9 1.7 1.9 12.8v12.2l-56.3 11.8c-52.1 10.9-56.8 12-64.6 15.8-10.4 5.1-19.1 13.5-24.4 23.6-6.7 12.8-6.7 12.4-6.7 85.1v65.3l2.5 2.4 2.4 2.5h358.2l2.4-2.5 2.5-2.4v-65.3c0-72.7 0-72.3-6.7-85.1-5.3-10.1-14-18.5-24.4-23.6-7.6-3.7-12.5-4.9-51.2-13.1-23.5-4.9-48.8-10.2-56.2-11.7l-13.5-2.8v-12.2c0-11.2.2-12.2 2-12.8 4-1.3 17-10.5 22.5-16 9.8-9.8 19-25.9 21-36.8l.7-3.7h14.7c8 0 16.4-.5 18.6-1.1 5.4-1.5 13.9-10 15.4-15.4 1.5-5.3 1.5-42.1 0-46.6-.6-1.9-2.4-5.1-4-7.1-2.8-3.6-2.9-4-2.9-15.5 0-21.2-4.4-39.5-13.7-57.5C288.6 18.9 237-6.9 186.1 1.6m45.1 17.8c17.6 4.5 32.7 12.8 45.7 25.1 20.2 19.1 31.3 43.5 32.8 71.7l.6 11.8H302v-8.8c0-17.6-5.9-36.6-15.9-51.8-29.3-44.3-88.6-56.6-132.7-27.5-26.6 17.6-43.3 48.2-43.4 79.3v8.8h-8.3l.6-11.8c1.1-21.1 8.7-42.7 20.5-58.2 6.1-8.1 17.9-19.3 25.5-24.3 12.1-8 28.4-14.3 43.3-16.7 9.9-1.5 28.6-.4 39.6 2.4M218 41.1c17.7 2.8 31.3 9.9 44.5 23.3 7.2 7.2 10 10.9 13.7 18.1 4.3 8.4 7.8 18 7.8 21.3 0 .8-1.6-1.7-3.5-5.5-6-12.1-17.6-21.3-31.2-24.8-8.4-2.2-78.2-2.2-86.6 0-13.6 3.5-25.2 12.7-31.2 24.8-3.8 7.6-4.4 7.1-1.9-1.4 4.8-16.1 18-33.8 32.6-43.5C178.5 42.6 199.1 38 218 41.1m28.6 48.4c10.9 3.2 18.8 11.2 22.1 22.4l1.5 5.5-5.8 11.8c-3.2 6.5-6.3 11.8-6.9 11.8s-8.4-2.9-17.3-6.5-17.3-6.5-18.6-6.5-3.4.9-4.7 1.9c-2.1 1.7-2.5 3-2.9 11.5l-.5 9.6-5.1-2.4c-10.1-4.7-16.5-14.1-18.2-26.6-1-7.2-3.4-10-8.4-10-5.7 0-7.1 2.9-10.8 21.8-1.9 9.5-3.9 17.2-4.5 17.2-.5 0-3.3-1.1-6.1-2.4-13.6-6.3-21.2-22.6-17.1-36.7 3.2-11 10.2-18.3 21-22 4.6-1.6 9.2-1.8 41.3-1.9 29 0 37 .3 41 1.5M126 168v24h-12.5c-13.4 0-16.6-.8-18.4-4.7-1.5-3.2-1.5-35.4 0-38.7 1.8-3.8 4.5-4.5 18.2-4.5l12.7-.1zm187.3-22.9c4.1 1.9 4.7 4.9 4.7 22.9 0 10.3-.4 17.9-1.1 19.3-1.8 3.9-5 4.7-18.4 4.7H286v-48h12.5c6.9 0 13.5.5 14.8 1.1m-62.1 11.3c10.3 4.2 13 4.4 16.3 1.1l2.5-2.4v21c0 29.8-2.5 40-13.3 54.6-11.2 15-31.8 25.3-50.7 25.3-7 0-19.1-2.6-25.3-5.5l-5.2-2.3 15.3-.1 15.2-.1v-16h-50l-4-6.2c-2.2-3.4-5.2-9.8-6.7-14.2-2.5-7.7-2.7-9.4-3.1-31.8l-.4-23.8 5.1 3.4c6.9 4.7 15.3 7.6 23.3 8.3 6.1.5 6.8.4 9.1-1.9 1.6-1.6 2.8-4.5 3.7-9.1l1.2-6.8 5.3 5c8.5 8 20.7 13.1 31.6 13.1 2.9 0 4.7-.7 6.4-2.5 2.2-2.1 2.5-3.3 2.5-9.9v-7.5l6.3 2.3c3.4 1.3 10.1 4 14.9 6m-122.8 55.1c.6 2.9 3.4 10.5 7.3 19.2.4 1-1 1.3-5 1.3-10.7 0-12.7-2.5-12.7-15.5V208h4.9c4.8 0 4.9.1 5.5 3.5m93.4 69.4-.3 9.5-7.7 2.5-7.8 2.5-7.7-2.5-7.8-2.5-.3-9.5-.3-9.4h32.2zm-36.5 45.9 2.8 3-5.5 11.1L177 352h-51.3c-34.2 0-52.5.4-55.2 1.1-5.4 1.5-13.9 10-15.4 15.4-.7 2.7-1.1 21.6-1.1 57.7V480H38v-58c0-39 .4-59.6 1.1-63.2 2.5-11.5 10-21.6 20.1-26.8 5.4-2.7 14.9-5 64.3-15.4l58-12.2.5 9.7c.5 9 .7 10 3.3 12.7m104.9-9.8c42.6 8.9 57.9 12.5 61.8 14.5 10.3 5.2 18.4 15.8 20.9 27.3.7 3.6 1.1 24.2 1.1 63.2v58h-16v-53.8c0-36.1-.4-55-1.1-57.7-1.5-5.4-10-13.9-15.4-15.4-2.7-.7-21-1.1-55.2-1.1H235l-5.5-11.1-5.6-11 3.1-3.5c2.9-3.3 3-3.8 3-12.8 0-8.5.2-9.4 1.8-9 .9.2 27.2 5.8 58.4 12.4m-84.2-5.5c1.9 0 4.5-.4 5.8-.8 2-.8 2.2-.5 2.2 2.4 0 4.8-2.4 6.9-7.8 6.9-5.7 0-8.2-2.1-8.2-6.7 0-3.1.2-3.4 2.3-2.6 1.2.4 3.8.8 5.7.8m7 32.5 4 8h-22l4-8c3.7-7.3 4.3-8 7-8s3.3.7 7 8m124.3 25.1c1.4.6 3 2.2 3.6 3.6.8 1.6 1.1 18.5 1.1 54.8V480H70v-52.5c0-36.4.3-53.2 1.1-54.9.6-1.3 2.1-2.9 3.3-3.4 3.1-1.5 259.6-1.6 262.9-.1"/><path d="M197.5 401.5c-5.2 1.9-13 10-14.4 15.1-2.7 9.6-.7 17.1 6.3 24 7 7 14.4 9 24.1 6.3 5.4-1.5 13.9-10 15.4-15.4 2.7-9.7.7-17.1-6.3-24.1-7.2-7.2-15.7-9.2-25.1-5.9m11.9 15.6c5.8 2.7 5.5 11.5-.5 13.9-6.3 2.6-12.5-3.6-10-9.9 1.9-4.4 6-6 10.5-4"/></svg>