<?xml version="1.0" encoding="UTF-8" standalone="no"?>
<!-- Generator: Adobe Illustrator 23.0.1, SVG Export Plug-In . SVG Version: 6.00 Build 0)  -->

<svg
   xmlns:dc="http://purl.org/dc/elements/1.1/"
   xmlns:cc="http://creativecommons.org/ns#"
   xmlns:rdf="http://www.w3.org/1999/02/22-rdf-syntax-ns#"
   xmlns:svg="http://www.w3.org/2000/svg"
   xmlns="http://www.w3.org/2000/svg"
   xmlns:sodipodi="http://sodipodi.sourceforge.net/DTD/sodipodi-0.dtd"
   xmlns:inkscape="http://www.inkscape.org/namespaces/inkscape"
   version="1.1"
   id="Layer_1"
   x="0px"
   y="0px"
   viewBox="0 0 38.400002 38.4"
   xml:space="preserve"
   sodipodi:docname="biblioteca.svg"
   width="38.400002"
   height="38.400002"
   inkscape:version="0.92.4 (unknown)"><metadata
   id="metadata15"><rdf:RDF><cc:Work
       rdf:about=""><dc:format>image/svg+xml</dc:format><dc:type
         rdf:resource="http://purl.org/dc/dcmitype/StillImage" /><dc:title></dc:title></cc:Work></rdf:RDF></metadata><defs
   id="defs13" /><sodipodi:namedview
   pagecolor="#ffffff"
   bordercolor="#666666"
   borderopacity="1"
   objecttolerance="10"
   gridtolerance="10"
   guidetolerance="10"
   inkscape:pageopacity="0"
   inkscape:pageshadow="2"
   inkscape:window-width="640"
   inkscape:window-height="480"
   id="namedview11"
   showgrid="false"
   inkscape:zoom="6.1458331"
   inkscape:cx="18"
   inkscape:cy="19.200001"
   inkscape:window-x="0"
   inkscape:window-y="24"
   inkscape:window-maximized="0"
   inkscape:current-layer="Layer_1" />
<g
   id="noun_books_1036278"
   transform="translate(-11.998305,-11.081)">
	<path
   id="Caminho_27"
   d="m 45.6,35.4 c -0.9,0 -1.7,0.8 -1.7,1.7 0,0.9 0.8,1.7 1.7,1.7 0.9,0 1.7,-0.8 1.7,-1.7 0,0 0,0 0,0 0,-1 -0.8,-1.7 -1.7,-1.7 0,0 0,0 0,0 z m 0,2.3 c -0.4,0 -0.7,-0.3 -0.7,-0.7 0,-0.4 0.3,-0.7 0.7,-0.7 0.4,0 0.7,0.3 0.7,0.7 0,0 0,0 0,0 0,0.4 -0.3,0.7 -0.7,0.7 z"
   inkscape:connector-curvature="0" />
	<path
   id="Caminho_28"
   d="m 37.1,35.4 c -0.9,0 -1.7,0.8 -1.7,1.7 0,0.9 0.8,1.7 1.7,1.7 0.9,0 1.7,-0.8 1.7,-1.7 0,-1 -0.7,-1.7 -1.7,-1.7 z m 0,2.3 c -0.4,0 -0.7,-0.3 -0.7,-0.7 0,-0.4 0.3,-0.7 0.7,-0.7 0.4,0 0.7,0.3 0.7,0.7 0,0.4 -0.3,0.7 -0.7,0.7 z"
   inkscape:connector-curvature="0" />
	<path
   id="Caminho_29"
   d="m 16.9,35.4 c -0.9,0 -1.7,0.8 -1.7,1.7 0,0.9 0.8,1.7 1.7,1.7 0.9,0 1.7,-0.7 1.7,-1.6 0,0 0,-0.1 0,-0.1 0,-1 -0.7,-1.7 -1.7,-1.7 0.1,0 0,0 0,0 z m 0,2.3 c -0.4,0 -0.7,-0.3 -0.7,-0.7 0,-0.4 0.3,-0.7 0.7,-0.7 0.4,0 0.7,0.3 0.7,0.7 0.1,0.4 -0.3,0.7 -0.7,0.7 z"
   inkscape:connector-curvature="0" />
	<path
   id="Caminho_30"
   d="m 27.1,35.4 c -0.9,0 -1.7,0.8 -1.7,1.7 0,0.9 0.8,1.7 1.7,1.7 0.9,0 1.7,-0.7 1.7,-1.6 0,0 0,-0.1 0,-0.1 0,-1 -0.7,-1.7 -1.7,-1.7 z m 0,2.3 c -0.4,0 -0.7,-0.3 -0.7,-0.7 0,-0.4 0.3,-0.7 0.7,-0.7 0.4,0 0.7,0.3 0.7,0.7 0,0.4 -0.3,0.7 -0.7,0.7 z"
   inkscape:connector-curvature="0" />
	<path
   id="Caminho_31"
   d="M 48.2,11.3 H 43 c -0.6,0 -1.1,0.6 -1.1,1.5 v 35 c 0,0.9 0.4,1.5 1.1,1.5 h 5.2 c 0.6,0 1.1,-0.6 1.1,-1.5 v -35 c 0,-0.8 -0.5,-1.5 -1.1,-1.5 z m -5.3,8.5 h 5.4 v 21 h -5.4 z m 5.4,-0.9 h -5.4 v -2.1 h 5.4 z m -5.4,22.9 h 5.4 v 2.1 H 42.9 Z M 43,12.3 h 5.1 c 0.1,0.2 0.2,0.3 0.1,0.5 v 3 h -5.4 v -3 c 0.1,-0.2 0.1,-0.4 0.2,-0.5 z m 5.1,36 H 43 C 42.9,48.1 42.8,48 42.9,47.8 v -2.9 h 5.4 v 2.9 c 0,0.2 -0.1,0.4 -0.2,0.5 z"
   inkscape:connector-curvature="0" />
	<path
   id="Caminho_32"
   d="m 39.7,49.3 c 0.6,0 1.1,-0.6 1.1,-1.5 v -35 c 0,-0.9 -0.4,-1.5 -1.1,-1.5 h -5.2 c -0.6,0 -1.1,0.6 -1.1,1.5 v 35 c 0,0.9 0.4,1.5 1.1,1.5 z M 34.4,19.8 h 5.4 v 21 h -5.4 z m 5.4,-0.9 h -5.4 v -2.1 h 5.4 z m -5.4,22.9 h 5.4 v 2.1 h -5.4 z m 0.2,-29.5 h 5.1 c 0.1,0.2 0.2,0.3 0.1,0.5 v 3 h -5.4 v -3 c 0,-0.2 0,-0.4 0.2,-0.5 z m -0.2,32.6 h 5.4 v 2.9 c 0,0.2 0,0.4 -0.1,0.5 H 34.6 C 34.5,48.1 34.4,48 34.5,47.8 Z"
   inkscape:connector-curvature="0" />
	<path
   id="Caminho_33"
   d="M 20.6,47.8 V 17 L 25,48.1 c 0,0.5 0.3,0.9 0.6,1.2 0.1,0.1 0.3,0.2 0.5,0.2 h 0.1 l 5.1,-0.7 c 0.4,-0.1 0.6,-0.3 0.7,-0.7 0.1,-0.3 0.1,-0.6 0.1,-1 L 27.2,12.5 c 0,-0.3 -0.2,-0.7 -0.4,-0.9 -0.2,-0.3 -0.6,-0.5 -0.9,-0.4 l -5.1,0.7 c -0.2,0 -0.4,0.1 -0.5,0.2 -0.1,-0.4 -0.5,-0.7 -0.9,-0.8 h -5.2 c -0.6,0 -1.1,0.6 -1.1,1.5 v 35 c 0,0.9 0.4,1.5 1.1,1.5 h 5.2 c 0.7,0 1.2,-0.7 1.2,-1.5 z m -6.3,-28 h 5.4 v 21 h -5.4 z m 5.4,-0.9 h -5.4 v -2.1 h 5.4 z m -5.4,22.9 h 5.4 v 2.1 h -5.4 z m 16.5,1.6 -5.3,0.8 -0.4,-2.2 5.3,-0.8 z M 25,41.1 22,20.3 l 5.3,-0.8 3,20.8 z M 27.3,18.6 22,19.4 21.7,17.3 27,16.5 Z m 4,29.2 -5,0.7 C 26.1,48.3 26,48.2 26,48 l -0.4,-2.9 5.3,-0.8 0.4,2.9 c 0.1,0.2 0,0.4 0,0.6 z m -10.2,-35 5,-0.7 c 0.1,0.1 0.2,0.3 0.2,0.5 l 0.4,2.9 -5.3,0.8 -0.4,-2.9 c 0,-0.2 0.1,-0.4 0.1,-0.6 z m -6.7,-0.5 h 5.1 c 0.1,0.2 0.2,0.3 0.1,0.5 v 3 h -5.4 v -3 c 0.1,-0.2 0.1,-0.4 0.2,-0.5 z m 0,36 C 14.3,48.1 14.2,48 14.3,47.8 v -2.9 h 5.4 v 2.9 c 0,0.2 0,0.4 -0.1,0.5 z"
   inkscape:connector-curvature="0" />
</g>
</svg>