<?xml version="1.0" standalone="no"?>
<!DOCTYPE svg PUBLIC "-//W3C//DTD SVG 20010904//EN"
 "http://www.w3.org/TR/2001/REC-SVG-20010904/DTD/svg10.dtd">
<svg version="1.0" xmlns="http://www.w3.org/2000/svg"
 width="512.000000pt" height="512.000000pt" viewBox="0 0 512.000000 512.000000"
 preserveAspectRatio="xMidYMid meet">

<g transform="translate(0.000000,512.000000) scale(0.100000,-0.100000)"
fill="#000000" stroke="none">
<path d="M771 5104 c-162 -44 -276 -171 -302 -336 -6 -40 -9 -882 -7 -2253 l3
-2190 23 -58 c45 -110 130 -194 241 -239 l56 -23 1775 0 1775 0 56 23 c111 45
196 129 241 239 l23 58 3 1791 2 1791 -21 26 c-23 31 -72 36 -105 13 -19 -14
-19 -47 -24 -1808 l-5 -1793 -25 -49 c-14 -27 -42 -64 -64 -82 -80 -69 54 -64
-1856 -64 -1910 0 -1776 -5 -1856 64 -22 18 -50 55 -64 82 l-25 49 0 2215 0
2215 25 49 c14 27 42 64 64 82 80 69 -54 64 1856 64 1910 0 1776 5 1856 -64
22 -18 50 -55 64 -82 25 -49 25 -52 30 -377 5 -311 6 -329 24 -343 33 -24 82
-18 106 13 21 27 22 32 18 353 -4 310 -5 328 -27 383 -43 109 -128 194 -240
239 l-56 23 -1755 2 c-1510 2 -1763 0 -1809 -13z"/>
<path d="M872 4753 c-18 -9 -43 -30 -55 -47 l-22 -31 0 -2115 c0 -2055 1
-2116 19 -2146 39 -65 56 -69 316 -72 265 -4 307 3 324 51 15 42 -3 80 -44 94
-23 8 -112 12 -253 12 l-217 1 2 2057 3 2058 1615 0 1615 0 3 -2057 2 -2058
-1269 -2 c-1232 -3 -1270 -4 -1290 -22 -29 -26 -29 -86 0 -112 21 -18 57 -19
1313 -19 1247 0 1292 1 1322 19 17 10 40 33 50 50 18 30 19 91 19 2146 l0
2115 -22 31 c-49 69 86 64 -1745 64 -1502 0 -1656 -2 -1686 -17z"/>
<path d="M1935 4095 c-51 -50 -45 -59 205 -310 164 -165 230 -238 230 -254 0
-14 -23 -47 -62 -87 l-62 -65 -235 235 c-130 128 -246 239 -258 245 -44 22
-103 -22 -103 -77 0 -9 110 -127 245 -262 l246 -246 -65 -62 c-47 -45 -72 -62
-92 -62 -22 0 -69 41 -255 227 -197 195 -232 226 -259 226 -42 0 -70 -28 -70
-72 0 -32 16 -51 223 -258 254 -256 288 -280 383 -270 37 4 70 15 96 32 l41
27 88 -88 89 -88 -205 -206 c-129 -130 -210 -219 -219 -242 -34 -81 -12 -192
50 -250 60 -56 156 -74 232 -43 24 10 111 90 244 223 l208 206 207 -205 c234
-231 257 -247 359 -236 133 14 220 144 184 277 -10 39 -39 72 -223 257 l-211
213 29 32 c16 18 61 66 100 106 67 70 71 73 107 67 116 -20 293 68 398 198
187 231 188 514 3 636 -62 41 -112 55 -203 54 -195 -2 -417 -150 -507 -339
-31 -65 -37 -91 -41 -159 l-4 -83 -99 -98 -99 -99 -90 90 c-79 79 -88 91 -75
105 23 26 55 103 55 136 0 81 -20 109 -268 357 -258 258 -266 264 -317 212z
m1551 -291 c21 -10 45 -34 60 -61 58 -98 9 -274 -110 -394 -99 -100 -160 -122
-304 -109 l-42 4 -128 -127 -128 -127 -49 50 -49 50 124 125 125 125 0 98 c0
89 2 102 30 150 16 30 54 77 85 105 128 118 279 162 386 111z m-246 -1457 c0
-36 -33 -67 -71 -67 -27 0 -82 51 -477 444 l-447 445 50 51 50 50 447 -447
c372 -372 448 -453 448 -476z m-916 133 c-167 -167 -205 -200 -229 -200 -40 0
-65 26 -65 68 0 33 15 51 197 234 l198 198 50 -50 50 -50 -201 -200z"/>
<path d="M1650 1677 c-51 -26 -57 -102 -10 -127 25 -14 1815 -14 1840 0 47 25
41 101 -10 127 -36 18 -1784 18 -1820 0z"/>
<path d="M1630 1310 c-27 -27 -26 -81 1 -106 20 -18 50 -19 929 -19 879 0 909
1 929 19 27 25 28 79 1 106 -20 20 -33 20 -930 20 -897 0 -910 0 -930 -20z"/>
<path d="M2015 955 c-14 -13 -25 -36 -25 -50 0 -14 11 -37 25 -50 l24 -25 521
0 521 0 24 25 c14 13 25 36 25 50 0 14 -11 37 -25 50 l-24 25 -521 0 -521 0
-24 -25z"/>
</g>
</svg>
