<?xml version="1.0" encoding="UTF-8" standalone="no"?>
<!-- Created with Inkscape (http://www.inkscape.org/) -->

<svg
   width="9.260417mm"
   height="5.0677161mm"
   viewBox="0 0 9.2604171 5.0677162"
   version="1.1"
   id="svg315"
   inkscape:version="1.2.1 (9c6d41e410, 2022-07-14)"
   sodipodi:docname="ead.svg"
   xmlns:inkscape="http://www.inkscape.org/namespaces/inkscape"
   xmlns:sodipodi="http://sodipodi.sourceforge.net/DTD/sodipodi-0.dtd"
   xmlns="http://www.w3.org/2000/svg"
   xmlns:svg="http://www.w3.org/2000/svg">
  <sodipodi:namedview
     id="namedview317"
     pagecolor="#ffffff"
     bordercolor="#666666"
     borderopacity="1.0"
     inkscape:showpageshadow="2"
     inkscape:pageopacity="0.0"
     inkscape:pagecheckerboard="0"
     inkscape:deskcolor="#d1d1d1"
     inkscape:document-units="mm"
     showgrid="false"
     inkscape:zoom="0.46769781"
     inkscape:cx="124.0117"
     inkscape:cy="211.67514"
     inkscape:window-width="1366"
     inkscape:window-height="705"
     inkscape:window-x="-8"
     inkscape:window-y="-8"
     inkscape:window-maximized="1"
     inkscape:current-layer="layer1" />
  <defs
     id="defs312" />
  <g
     inkscape:label="Camada 1"
     inkscape:groupmode="layer"
     id="layer1"
     transform="translate(-68.602466,-92.93328)">
    <path
       class="st0"
       d="m 74.518822,95.959289 -0.01583,-0.599925 -0.986562,0.284888 c -0.08893,0.0196 -0.17636,0.02864 -0.262279,0.02864 -0.09195,8.55e-4 -0.18239,-0.0098 -0.272077,-0.02864 l -0.942095,-0.287905 v 0.608217 c 0.02713,0.315792 0.933804,0.413016 1.212664,0.42658 0.223088,0.01054 1.104136,-0.105512 1.219448,-0.287149 0.02487,-0.0407 0.0407,-0.08818 0.04673,-0.144706 z m -5.712863,1.636229 h 1.007664 c -0.07461,-0.01883 -0.130386,-0.08818 -0.130386,-0.168069 v -4.320823 c 0,-0.09496 0.07838,-0.173346 0.173346,-0.173346 h 6.706208 c 0.09496,0 0.173346,0.07838 0.173346,0.173346 v 4.319316 c 0,0.08064 -0.05502,0.149229 -0.130386,0.168069 h 1.053638 c 0.112298,0 0.203494,0.0912 0.203494,0.203494 v 0 c 0,0.112298 -0.0912,0.203491 -0.203494,0.203491 h -8.85343 c -0.112298,0 -0.203493,-0.09119 -0.203493,-0.203491 v 0 c 0,-0.110791 0.09119,-0.201987 0.203493,-0.201987 z m 1.174227,-4.390161 h 6.483874 v 4.17235 h -6.483874 z m 2.967222,4.466283 h 0.571286 c 0.05351,0 0.09798,0.04371 0.09798,0.09723 v 0 c 0,0.05351 -0.04371,0.09798 -0.09798,0.09798 h -0.571286 c -0.05351,0 -0.09798,-0.04371 -0.09798,-0.09798 v 0 c 0,-0.05351 0.04447,-0.09723 0.09798,-0.09723 z m 1.970863,-2.744133 v 0.733326 h 0.02336 c 0.01583,0 0.02864,0.01282 0.02864,0.02864 v 0.196709 c 0,0.01584 -0.01281,0.02864 -0.02864,0.02864 h -0.02336 v 0.06934 c 0.02939,0.0053 0.052,0.03166 0.052,0.06256 v 0 c 0,0.03467 -0.02864,0.06406 -0.06331,0.06406 H 74.79316 c -0.03467,0 -0.06406,-0.02864 -0.06406,-0.06406 v 0 c 0,-0.0309 0.02261,-0.05653 0.052,-0.06256 v -0.06934 h -0.02336 c -0.01583,0 -0.02864,-0.01282 -0.02864,-0.02864 v -0.196709 c 0,-0.01584 0.01281,-0.02864 0.02864,-0.02864 h 0.02336 v -0.690366 l -1.199852,0.373067 c -0.217058,0.05201 -0.434871,0.05502 -0.651929,0 l -1.324209,-0.395679 -0.119835,-0.03618 c -0.149227,-0.06105 -0.111543,-0.204246 0.02638,-0.237407 l 1.498308,-0.447684 c 0.154503,-0.04371 0.309007,-0.0505 0.46351,0 l 1.470422,0.442408 c 0.159779,0.03919 0.191434,0.186911 0.0053,0.247959 z"
       id="path4"
       style="clip-rule:evenodd;fill-rule:evenodd;stroke-width:0.0753675" />
  </g>
</svg>
