<?xml version="1.0" encoding="UTF-8" standalone="no"?>
<!-- Generator: Adobe Illustrator 23.0.1, SVG Export Plug-In . SVG Version: 6.00 Build 0)  -->

<svg
   xmlns:dc="http://purl.org/dc/elements/1.1/"
   xmlns:cc="http://creativecommons.org/ns#"
   xmlns:rdf="http://www.w3.org/1999/02/22-rdf-syntax-ns#"
   xmlns:svg="http://www.w3.org/2000/svg"
   xmlns="http://www.w3.org/2000/svg"
   xmlns:sodipodi="http://sodipodi.sourceforge.net/DTD/sodipodi-0.dtd"
   xmlns:inkscape="http://www.inkscape.org/namespaces/inkscape"
   version="1.1"
   id="Layer_1"
   x="0px"
   y="0px"
   viewBox="0 0 40.099998 40.1"
   xml:space="preserve"
   sodipodi:docname="historico.svg"
   width="40.099998"
   height="40.099998"
   inkscape:version="0.92.4 (unknown)"><metadata
   id="metadata17"><rdf:RDF><cc:Work
       rdf:about=""><dc:format>image/svg+xml</dc:format><dc:type
         rdf:resource="http://purl.org/dc/dcmitype/StillImage" /><dc:title></dc:title></cc:Work></rdf:RDF></metadata><defs
   id="defs15" /><sodipodi:namedview
   pagecolor="#ffffff"
   bordercolor="#666666"
   borderopacity="1"
   objecttolerance="10"
   gridtolerance="10"
   guidetolerance="10"
   inkscape:pageopacity="0"
   inkscape:pageshadow="2"
   inkscape:window-width="640"
   inkscape:window-height="480"
   id="namedview13"
   showgrid="false"
   inkscape:zoom="5.885287"
   inkscape:cx="19.439831"
   inkscape:cy="19.285381"
   inkscape:window-x="0"
   inkscape:window-y="24"
   inkscape:window-maximized="0"
   inkscape:current-layer="Layer_1" />
<g
   id="noun_legal_papers_1689071"
   transform="translate(-56.062339,-41.22)">
	<path
   id="Caminho_7"
   d="m 73.4,43.2 h 19.5 c 1.1,0 2,-0.4 2,-1 0,-0.6 -0.9,-1 -2,-1 H 73.4 c -1.1,0 -2,0.4 -2,1 0,0.6 0.9,1 2,1 z"
   inkscape:connector-curvature="0" />
	<path
   id="Caminho_8"
   d="m 73.4,51.1 h 19.5 c 1.1,0 2,-0.4 2,-1 0,-0.6 -0.9,-1 -2,-1 H 73.4 c -1.1,0 -2,0.4 -2,1 0,0.6 0.9,1 2,1 z"
   inkscape:connector-curvature="0" />
	<path
   id="Caminho_9"
   d="m 57.7,51.1 h 7.8 c 0.6,0 1,-0.4 1,-1 v -7.8 c 0,-0.6 -0.4,-1 -1,-1 h -7.8 c -0.6,0 -1,0.4 -1,1 v 7.8 c 0,0.5 0.5,1 1,1 z m 1,-7.9 h 5.8 V 49 h -5.8 z"
   inkscape:connector-curvature="0" />
	<path
   id="Caminho_10"
   d="m 73.4,58.1 h 19.5 c 1.1,0 2,-0.4 2,-1 0,-0.6 -0.9,-1 -2,-1 H 73.4 c -1.1,0 -2,0.4 -2,1 0,0.6 0.9,1 2,1 z"
   inkscape:connector-curvature="0" />
	<path
   id="Caminho_11"
   d="m 73.4,65.9 h 19.5 c 1.1,0 2,-0.4 2,-1 0,-0.6 -0.9,-1 -2,-1 H 73.4 c -1.1,0 -2,0.4 -2,1 0,0.6 0.9,1 2,1 z"
   inkscape:connector-curvature="0" />
	<path
   id="Caminho_12"
   d="m 57.7,65.9 h 7.8 c 0.6,0 1,-0.4 1,-1 v -7.8 c 0,-0.6 -0.4,-1 -1,-1 h -7.8 c -0.6,0 -1,0.4 -1,1 v 7.8 c 0,0.6 0.5,1 1,1 z m 1,-7.8 h 5.8 v 5.8 h -5.8 z"
   inkscape:connector-curvature="0" />
	<path
   id="Caminho_13"
   d="m 73.4,73.5 h 19.5 c 1.1,0 2,-0.4 2,-1 0,-0.6 -0.9,-1 -2,-1 H 73.4 c -1.1,0 -2,0.4 -2,1 0,0.6 0.9,1 2,1 z"
   inkscape:connector-curvature="0" />
	<path
   id="Caminho_14"
   d="m 73.4,81.3 h 19.5 c 1.1,0 2,-0.4 2,-1 0,-0.6 -0.9,-1 -2,-1 H 73.4 c -1.1,0 -2,0.4 -2,1 0,0.6 0.9,1 2,1 z"
   inkscape:connector-curvature="0" />
	<path
   id="Caminho_15"
   d="m 57.7,81.3 h 7.8 c 0.6,0 1,-0.4 1,-1 v -7.8 c 0,-0.6 -0.4,-1 -1,-1 h -7.8 c -0.6,0 -1,0.4 -1,1 v 7.8 c 0,0.6 0.5,1 1,1 z m 1,-7.8 h 5.8 v 5.8 h -5.8 z"
   inkscape:connector-curvature="0" />
</g>
</svg>