<?xml version="1.0" encoding="utf-8"?>
<!-- Generator: Adobe Illustrator 23.0.1, SVG Export Plug-In . SVG Version: 6.00 Build 0)  -->
<svg version="1.1" id="Layer_1" xmlns="http://www.w3.org/2000/svg" xmlns:xlink="http://www.w3.org/1999/xlink" x="0px" y="0px"
	 viewBox="0 0 36.3 36.3" style="enable-background:new 0 0 36.3 36.3;" xml:space="preserve">
<style type="text/css">
	.st0{stroke:#000000;stroke-width:0.5;}
</style>
<g id="noun_Language_2001997" transform="translate(-4.75 -4.75)">
	<path id="Caminho_1032" class="st0" d="M20.9,18.5c0.1,0,0.1,0,0.2,0c0.2-0.1,0.3-0.3,0.2-0.5c0,0,0,0,0,0l-4.8-8.8l0,0
		c0,0,0,0,0-0.1c0,0,0,0-0.1,0l0,0h0c0,0,0,0-0.1,0H16c0,0,0,0-0.1,0h0l0,0l0,0c0,0,0,0,0,0.1l0,0L11,17.9c-0.1,0.2,0,0.4,0.1,0.5
		c0,0,0,0,0,0c0.1,0,0.2,0,0.2,0c0.1,0,0.3-0.1,0.4-0.2l1.8-3.4h5.2l1.8,3.4C20.6,18.4,20.8,18.5,20.9,18.5z M14,14.2l2.1-3.9
		l2.1,3.9H14z M38.8,19.7H27.3V7c0-1.1-0.9-2-2-2c0,0,0,0,0,0H7C5.9,5,5,5.9,5,7c0,0,0,0,0,0v13.5c0,1.1,0.9,2,2,2c0,0,0,0,0,0h2.4
		v3.2c0,0.2,0.1,0.3,0.2,0.4c0,0,0.1,0,0.2,0c0.1,0,0.2,0,0.3-0.1l3.6-3.5h4.9v12.7c0,1.1,0.9,2,2,2c0,0,0,0,0,0h11.7l3.6,3.5
		c0.1,0.1,0.2,0.1,0.3,0.1c0.1,0,0.1,0,0.2,0c0.1-0.1,0.2-0.2,0.2-0.4v-3.2h2.4c1.1,0,2-0.9,2-2c0,0,0,0,0,0V21.7
		C40.8,20.6,40,19.7,38.8,19.7C38.9,19.7,38.8,19.7,38.8,19.7z M18.5,21.7h-5.1c-0.1,0-0.2,0-0.3,0.1l-3,2.9v-2.6
		c0-0.2-0.2-0.4-0.4-0.4H7c-0.7,0-1.2-0.5-1.2-1.2V7c0-0.6,0.5-1.2,1.2-1.2c0,0,0,0,0,0h18.3c0.6,0,1.2,0.5,1.2,1.2c0,0,0,0,0,0
		v12.7h-6C19.4,19.7,18.5,20.6,18.5,21.7C18.5,21.7,18.5,21.7,18.5,21.7L18.5,21.7z M40,35.2c0,0.7-0.5,1.2-1.2,1.2H36
		c-0.2,0-0.4,0.2-0.4,0.4v2.6l-3-2.9c-0.1-0.1-0.2-0.1-0.3-0.1H20.5c-0.7,0-1.2-0.5-1.2-1.2V21.7c0-0.6,0.5-1.2,1.2-1.2c0,0,0,0,0,0
		h18.3c0.6,0,1.2,0.5,1.2,1.2c0,0,0,0,0,0L40,35.2z M34.5,25.7h-4.4v-1.6c0-0.2-0.2-0.4-0.4-0.4c-0.2,0-0.4,0.2-0.4,0.4v1.6h-4.4
		c-0.2,0-0.4,0.2-0.4,0.4c0,0.2,0.2,0.4,0.4,0.4h2.7c0.3,1.3,0.8,2.5,1.6,3.6c-1.1,1.2-2.5,2-4,2.4c-0.2,0.1-0.3,0.3-0.3,0.5
		c0.1,0.2,0.2,0.3,0.4,0.3h0.1c1.6-0.4,3.1-1.3,4.3-2.5c1.2,1.2,2.6,2.1,4.3,2.5h0.1c0.2,0,0.3-0.1,0.4-0.3c0-0.2-0.1-0.4-0.3-0.5
		c-1.5-0.4-2.9-1.2-4-2.4c0.8-1.1,1.3-2.3,1.6-3.6h2.7c0.2,0,0.4-0.2,0.4-0.4C34.9,25.9,34.7,25.7,34.5,25.7L34.5,25.7z M29.7,29.5
		c-0.6-0.9-1.1-1.9-1.3-3H31C30.8,27.6,30.3,28.6,29.7,29.5L29.7,29.5z"/>
</g>
</svg>
