<?xml version="1.0" standalone="no"?>
<!DOCTYPE svg PUBLIC "-//W3C//DTD SVG 20010904//EN"
 "http://www.w3.org/TR/2001/REC-SVG-20010904/DTD/svg10.dtd">
<svg version="1.0" xmlns="http://www.w3.org/2000/svg"
 width="199.000000pt" height="146.000000pt" viewBox="0 0 199.000000 146.000000"
 preserveAspectRatio="xMidYMid meet">

<g transform="translate(0.000000,146.000000) scale(0.100000,-0.100000)"
fill="#000000" stroke="none">
<path d="M589 1278 c-91 -95 -259 -269 -372 -387 -114 -118 -207 -219 -207
-224 0 -6 51 -63 113 -126 62 -64 203 -209 315 -324 111 -114 207 -207 212
-207 6 0 73 64 148 141 l137 142 143 -147 c78 -81 147 -144 152 -141 17 11
668 677 720 737 17 21 30 44 28 51 -4 20 -620 657 -634 657 -6 0 -73 -65 -148
-144 l-136 -144 -113 117 c-62 64 -124 128 -137 144 -13 15 -31 27 -40 27 -9
0 -90 -78 -181 -172z m379 -207 c-7 -10 -95 -103 -195 -206 -101 -103 -183
-195 -183 -203 0 -8 61 -77 136 -153 l136 -139 -70 -77 c-39 -43 -87 -94 -107
-113 l-36 -35 -82 85 c-311 321 -417 433 -417 439 0 4 100 110 222 236 123
127 261 270 308 318 l85 89 108 -111 c96 -100 106 -113 95 -130z m862 -267
c13 -22 10 -27 -86 -126 -55 -57 -163 -168 -239 -248 -77 -80 -171 -176 -208
-215 l-68 -70 -105 109 c-58 60 -103 115 -102 122 2 7 89 102 193 210 105 108
191 199 193 203 1 4 -61 73 -138 153 l-140 146 107 112 107 112 235 -242 c130
-134 243 -253 251 -266z m-570 -17 c0 -14 -313 -328 -324 -325 -6 2 -55 49
-110 105 l-99 102 164 170 164 170 102 -107 c56 -59 102 -111 103 -115z"/>
</g>
</svg>
