<?xml version="1.0" encoding="UTF-8" standalone="no"?>
<svg
    version="1.1"
    viewBox="0 0 377.95274 377.95275"
    stroke-miterlimit="10"
    id="svg95"
    width="100mm"
    height="100mm"
    style="fill:none;stroke:none;stroke-linecap:square;stroke-miterlimit:10"
    xmlns="http://www.w3.org/2000/svg"
    xmlns:svg="http://www.w3.org/2000/svg"
    xmlns:rdf="http://www.w3.org/1999/02/22-rdf-syntax-ns#"
    xmlns:cc="http://creativecommons.org/ns#"
    xmlns:dc="http://purl.org/dc/elements/1.1/">
  <metadata
      id="metadata101">
    <rdf:RDF>
      <cc:Work
          rdf:about="">
        <dc:format>image/svg+xml</dc:format>
        <dc:type
            rdf:resource="http://purl.org/dc/dcmitype/StillImage" />
      </cc:Work>
    </rdf:RDF>
  </metadata>
  <defs
      id="defs99" />
  <clipPath
      id="g5baad0c9f7_0_604.0">
    <path
        d="M 0,0 H 1280 V 720 H 0 Z"
        id="path2"
        style="clip-rule:nonzero" />
  </clipPath>
  <g
      id="g1091"
      transform="translate(-0.00225748,-81.964652)">
    <g
        id="g1376">
      <g
          id="g518"
          transform="matrix(1.2671476,0,0,1.2671476,0.00225748,81.964653)">
        <path
            d="m 0,149.13527 v 0 C 0,66.77013 66.77014,0 149.13525,0 v 0 c 39.55313,0 77.4863,15.71242 105.45456,43.68071 27.96829,27.96829 43.6807,65.90143 43.6807,105.45456 v 0 c 0,82.36514 -66.77011,149.13525 -149.13526,149.13525 v 0 C 66.77014,298.27052 0,231.50041 0,149.13527 Z m 32.27585,0 v 0 c 0,64.53967 52.31973,116.85941 116.85941,116.85941 64.53967,0 116.85943,-52.31974 116.85943,-116.85941 v 0 c 0,-64.53967 -52.31976,-116.85941 -116.85943,-116.85941 v 0 c -64.53967,0 -116.85941,52.31974 -116.85941,116.85941 z"
            id="path45"
            style="fill:#000000;fill-rule:evenodd" />
        <path
            d="m 28.52447,104.7289 h 241.22351 v 88.80392 H 28.52447 Z"
            id="path89"
            style="fill:#000000;fill-opacity:0;fill-rule:evenodd" />
        <path
            style="fill:#000000;fill-rule:nonzero;stroke-width:1.40534"
            d="m 197.1292,163.33416 15.8101,-1.53709 q 1.4273,7.97093 5.79704,11.70387 4.36973,3.73294 11.76974,3.73294 7.86114,0 11.83561,-3.31573 3.97449,-3.33769 3.97449,-7.7733 0,-2.8546 -1.66884,-4.85282 -1.66884,-2.02018 -5.84095,-3.4914 -2.85461,-0.98813 -13.02139,-3.51336 -13.06528,-3.24985 -18.33532,-7.97092 -7.40001,-6.63146 -7.40001,-16.1834 0,-6.14837 3.46944,-11.50624 3.4914,-5.35787 10.05698,-8.14659 6.56559,-2.81068 15.83207,-2.81068 15.15135,0 22.81485,6.65341 7.66351,6.63146 8.0368,17.72049 l -16.24927,0.72463 q -1.03204,-6.21424 -4.47953,-8.91514 -3.42552,-2.72286 -10.27657,-2.72286 -7.09258,0 -11.08902,2.89852 -2.5911,1.86648 -2.5911,5.00654 0,2.8546 2.41543,4.87478 3.07419,2.5911 14.93176,5.40178 11.85758,2.78873 17.54482,5.77509 5.68725,2.98635 8.89319,8.1905 3.20593,5.1822 3.20593,12.8018 0,6.91691 -3.84274,12.9555 -3.84272,6.03857 -10.86943,8.98101 -7.02672,2.94243 -17.50091,2.94243 -15.26114,0 -23.45165,-7.04866 -8.16856,-7.07063 -9.77152,-20.5751 z"
            id="path420" />
        <path
            id="path416"
            style="fill:#000000;fill-rule:nonzero;stroke-width:1.40534"
            d="m 149.42383,107.66992 c -6.54362,0 -12.32453,1.06095 -17.34571,3.18359 -3.76221,1.58101 -7.23349,4.00309 -10.41015,7.26758 -3.16202,3.24985 -5.65647,6.92452 -7.48633,11.02344 -2.44471,5.56281 -3.66797,12.44281 -3.66797,20.64062 0,12.8091 3.52801,22.86703 10.58399,30.17188 7.07062,7.30485 16.58684,10.95703 28.54687,10.95703 11.82829,0 21.27019,-3.66783 28.32617,-11.00195 7.07063,-7.34877 10.60547,-17.52209 10.60547,-30.52149 0,-13.10188 -3.56418,-23.32701 -10.69336,-30.67578 -7.11454,-7.36339 -16.60142,-11.04492 -28.45898,-11.04492 z m 0.17578,13.89844 c 6.69001,0 12.05534,2.27051 16.0957,6.80859 4.05499,4.53808 6.08203,11.41808 6.08203,20.64063 0,9.32502 -2.07886,16.32236 -6.23633,20.99218 -4.15747,4.66984 -9.47098,7.00391 -15.9414,7.00391 -6.48506,0 -11.83476,-2.34971 -16.05078,-7.04883 -4.20139,-4.71375 -6.30274,-11.62308 -6.30274,-20.72851 0,-9.26647 2.04953,-16.18949 6.14844,-20.77149 4.09891,-4.59664 9.50043,-6.89648 16.20508,-6.89648 z" />
        <path
            style="fill:#000000;fill-rule:nonzero;stroke-width:1.40534"
            d="m 34.691386,163.33416 15.810101,-1.53709 q 1.427294,7.97093 5.797037,11.70387 4.36973,3.73294 11.769742,3.73294 7.861134,0 11.835611,-3.31573 3.974491,-3.33769 3.974491,-7.7733 0,-2.8546 -1.668844,-4.85282 -1.668844,-2.02018 -5.840954,-3.4914 -2.854602,-0.98813 -13.021383,-3.51336 -13.065285,-3.24985 -18.335318,-7.97092 -7.400013,-6.63146 -7.400013,-16.1834 0,-6.14837 3.469439,-11.50624 3.491404,-5.35787 10.056981,-8.14659 6.565591,-2.81068 15.832067,-2.81068 15.151347,0 22.814847,6.65341 7.663515,6.63146 8.036802,17.72049 l -16.249271,0.72463 q -1.032041,-6.21424 -4.479529,-8.91514 -3.425522,-2.72286 -10.276566,-2.72286 -7.09258,0 -11.089022,2.89852 -2.5911,1.86648 -2.5911,5.00654 0,2.8546 2.415432,4.87478 3.074187,2.5911 14.931763,5.40178 11.857576,2.78873 17.544813,5.77509 5.687252,2.98635 8.893189,8.1905 3.205939,5.1822 3.205939,12.8018 0,6.91691 -3.842741,12.9555 -3.842726,6.03857 -10.869438,8.98101 -7.026712,2.94243 -17.500911,2.94243 -15.261132,0 -23.45165,-7.04866 -8.168553,-7.07063 -9.771514,-20.5751 z"
            id="path91" />
      </g>
    </g>
  </g>
</svg>
