<?xml version="1.0" encoding="UTF-8" standalone="no"?>
<!-- Created with Inkscape (http://www.inkscape.org/) -->

<svg
   width="122.77259mm"
   height="122.77197mm"
   viewBox="0 0 122.77259 122.77197"
   version="1.1"
   id="svg245"
   xml:space="preserve"
   sodipodi:docname="icon_uniteve.svg"
   inkscape:version="1.2.1 (9c6d41e410, 2022-07-14)"
   xmlns:inkscape="http://www.inkscape.org/namespaces/inkscape"
   xmlns:sodipodi="http://sodipodi.sourceforge.net/DTD/sodipodi-0.dtd"
   xmlns="http://www.w3.org/2000/svg"
   xmlns:svg="http://www.w3.org/2000/svg"><sodipodi:namedview
     id="namedview247"
     pagecolor="#505050"
     bordercolor="#eeeeee"
     borderopacity="1"
     inkscape:showpageshadow="0"
     inkscape:pageopacity="0"
     inkscape:pagecheckerboard="0"
     inkscape:deskcolor="#505050"
     inkscape:document-units="mm"
     showgrid="false"
     inkscape:zoom="0.80003236"
     inkscape:cx="231.24065"
     inkscape:cy="431.23256"
     inkscape:window-width="1366"
     inkscape:window-height="705"
     inkscape:window-x="-8"
     inkscape:window-y="-8"
     inkscape:window-maximized="1"
     inkscape:current-layer="g10" /><defs
     id="defs242" /><g
     inkscape:label="Layer 1"
     inkscape:groupmode="layer"
     id="layer1"
     transform="translate(-117.82284,-7.817549)"><g
       id="g10"
       transform="matrix(0.03527778,0,0,-0.03527778,115.70893,167.98114)"><path
         id="path26"
         style="fill:#000000;fill-opacity:1;fill-rule:nonzero;stroke:none"
         d="M 1799.995 4540.07 C 838.97485 4540.07 59.921854 3761.0095 59.921854 2799.9822 C 59.921854 1838.9852 838.97485 1059.9237 1799.995 1059.9237 C 2761.022 1059.9237 3540.0828 1838.9852 3540.0828 2799.9822 C 3540.0828 3761.0095 2761.022 4540.07 1799.995 4540.07 z M 587.57319 3354.3963 L 637.72944 3354.3963 L 898.20793 3354.3963 L 898.20793 2715.6072 L 898.20793 2711.3592 L 898.28118 2711.3592 C 900.53515 2628.4495 968.84516 2561.535 1052.2948 2561.535 C 1135.7248 2561.535 1204.8974 2628.4448 1207.1874 2711.3445 L 1207.2167 2711.3592 L 1207.4657 3354.3963 L 1520.2391 3354.3963 L 1521.2352 2707.8875 L 1521.2059 2707.9022 C 1520.7659 2648.1722 1506.6456 2591.0455 1485.5956 2538.5955 C 1485.5756 2538.5355 1485.5324 2538.499 1485.5224 2538.449 C 1470.0824 2500.0693 1449.6968 2464.2073 1425.1268 2431.6473 C 1424.8968 2431.3273 1424.6737 2431.0244 1424.4237 2430.7244 C 1422.3837 2428.0344 1420.2981 2425.3371 1418.1981 2422.6971 C 1418.1481 2422.6471 1418.1163 2422.5767 1418.0663 2422.5067 C 1415.8363 2419.7167 1413.5741 2416.9271 1411.2841 2414.1571 C 1411.0141 2413.8571 1410.7238 2413.5156 1410.4638 2413.1756 C 1408.3138 2410.6356 1406.1645 2408.0977 1403.9745 2405.5877 C 1403.8645 2405.4577 1403.7476 2405.3415 1403.6376 2405.2215 C 1396.3976 2396.9415 1388.879 2388.9141 1381.079 2381.1541 C 1381.039 2381.1341 1381.0165 2381.1109 1380.9765 2381.0809 C 1378.3765 2378.5009 1375.7456 2375.9698 1373.0956 2373.4198 C 1373.0656 2373.3998 1373.0331 2373.3619 1372.9931 2373.3319 C 1364.9631 2365.7319 1356.6793 2358.4129 1348.1493 2351.4032 C 1347.7493 2351.0932 1347.3621 2350.795 1346.9921 2350.495 C 1344.5421 2348.495 1342.0553 2346.503 1339.5653 2344.533 C 1338.9753 2344.063 1338.3829 2343.6254 1337.7929 2343.1854 C 1335.3929 2341.3254 1332.9965 2339.4383 1330.5565 2337.6483 C 1330.2965 2337.4283 1330.0595 2337.2916 1329.8095 2337.0916 C 1327.0495 2335.0716 1324.2845 2333.0565 1321.4745 2331.0565 C 1321.3445 2330.9565 1321.1944 2330.8582 1321.0644 2330.7782 C 1318.1744 2328.7382 1315.2739 2326.713 1312.3339 2324.743 C 1312.0439 2324.523 1311.7303 2324.3378 1311.4403 2324.1278 C 1305.5503 2320.1978 1299.5753 2316.3913 1293.5253 2312.7313 C 1293.0853 2312.4513 1292.6469 2312.2056 1292.2069 2311.9256 C 1289.4469 2310.2756 1286.6966 2308.6323 1283.8866 2307.0623 C 1283.4166 2306.7523 1282.9264 2306.512 1282.4364 2306.242 C 1279.6664 2304.662 1276.8768 2303.0792 1274.0868 2301.5692 C 1273.5068 2301.2492 1272.919 2300.9656 1272.329 2300.6756 C 1269.659 2299.1956 1266.9677 2297.7883 1264.2577 2296.3983 C 1263.3777 2295.9483 1262.4771 2295.4853 1261.5771 2295.0653 C 1259.0971 2293.8053 1256.6403 2292.5739 1254.1503 2291.3739 C 1253.2303 2290.9339 1252.2964 2290.5348 1251.3964 2290.0848 C 1248.9264 2288.9148 1246.4643 2287.7478 1243.9843 2286.6278 C 1242.9643 2286.1578 1241.9035 2285.7255 1240.8935 2285.2655 C 1238.4735 2284.2155 1236.0385 2283.1368 1233.5985 2282.0868 C 1232.5485 2281.6668 1231.4652 2281.233 1230.4052 2280.783 C 1228.0052 2279.793 1225.6086 2278.7787 1223.1689 2277.8387 C 1221.8889 2277.3387 1220.5963 2276.8546 1219.3163 2276.3446 C 1217.0763 2275.5046 1214.8766 2274.6504 1212.6366 2273.8104 C 1211.0966 2273.2704 1209.557 2272.7444 1208.037 2272.1844 C 1205.997 2271.4844 1203.9547 2270.7357 1201.8847 2270.0457 C 1200.4047 2269.5557 1198.883 2269.0716 1197.373 2268.5516 C 1195.273 2267.8816 1193.1895 2267.1855 1191.0595 2266.5155 C 1188.9295 2265.8555 1186.7595 2265.2219 1184.5995 2264.5819 C 1183.1495 2264.1619 1181.6943 2263.7028 1180.2343 2263.2928 C 1177.8743 2262.6328 1175.4905 2261.9792 1173.1005 2261.3592 C 1171.7805 2260.9892 1170.4608 2260.6299 1169.1308 2260.2899 C 1167.0908 2259.7699 1165.0384 2259.2557 1162.9784 2258.7957 C 1161.2884 2258.3557 1159.5908 2257.9406 1157.8808 2257.5506 L 1157.6757 2257.492 C 1154.0757 2256.662 1150.4458 2255.839 1146.8358 2255.119 C 1146.6858 2255.099 1146.5557 2255.0804 1146.4257 2255.0604 C 1144.7557 2254.6904 1143.0859 2254.3843 1141.4159 2254.0643 C 1139.3459 2253.6843 1137.2757 2253.2478 1135.1757 2252.8778 C 1135.1357 2252.8778 1135.1132 2252.8831 1135.0732 2252.8631 C 1131.3832 2252.2031 1127.665 2251.5728 1123.955 2251.0028 C 1123.835 2250.9728 1123.7181 2250.9742 1123.6181 2250.9442 C 1119.8581 2250.3742 1116.1188 2249.8614 1112.3388 2249.3914 C 1109.4288 2249.0314 1106.4944 2248.6961 1103.5644 2248.3661 C 1102.6144 2248.2461 1101.634 2248.1338 1100.664 2248.0438 C 1100.594 2248.0438 1100.5289 2248.0145 1100.4589 2248.0145 C 1096.6289 2247.6345 1092.7659 2247.2945 1088.9159 2246.9745 L 1088.7548 2246.9745 C 1084.8748 2246.6845 1080.9753 2246.4374 1077.0653 2246.2274 C 1077.0253 2246.2274 1076.9928 2246.2127 1076.9628 2246.2127 C 1073.0428 2246.0627 1069.0962 2245.8633 1065.1562 2245.7733 L 1065.0976 2245.7733 C 1061.1276 2245.6733 1057.1344 2245.6268 1053.1444 2245.6268 C 796.6363 2245.6268 587.74897 2454.7715 587.74897 2711.3006 L 587.76362 2711.3592 L 587.76362 3037.4627 L 587.57319 3037.4627 L 587.57319 3354.3963 z M 2702.617 3354.3963 L 3012.4314 3354.3963 L 3012.4314 2260.495 L 2702.617 2260.495 L 2702.617 3354.3963 z M 2105.8836 3352.4187 C 2109.8636 3352.4187 2113.8521 3352.3669 2117.8221 3352.2869 L 2117.8661 3352.2869 C 2121.8161 3352.1669 2125.772 3352.0228 2129.702 3351.8328 L 2129.7752 3351.8328 C 2133.6952 3351.6228 2137.614 3351.3657 2141.494 3351.0857 C 2141.534 3351.0657 2141.5658 3351.0711 2141.6258 3351.0711 C 2145.4858 3350.7811 2149.3434 3350.4557 2153.1834 3350.0457 C 2153.2434 3350.0257 2153.3085 3350.0164 2153.3885 3350.0164 C 2157.1985 3349.6264 2161.0436 3349.198 2164.8436 3348.698 C 2164.9136 3348.698 2164.9833 3348.6687 2165.0633 3348.6687 C 2168.8533 3348.1887 2172.6366 3347.6767 2176.3866 3347.0867 C 2176.4666 3347.0867 2176.5702 3347.0527 2176.6502 3347.0427 C 2180.3702 3346.4827 2184.087 3345.8663 2187.827 3345.2263 C 2187.937 3345.1963 2188.0493 3345.1484 2188.1493 3345.1384 C 2191.8493 3344.4584 2195.4949 3343.7691 2199.1649 3343.0291 C 2199.3149 3342.9991 2199.4157 3342.9812 2199.5457 3342.9412 C 2203.1757 3342.1912 2206.8349 3341.4135 2210.4149 3340.5535 L 2210.4588 3340.5535 C 2212.6088 3340.0635 2214.7264 3339.5107 2216.8162 3339.0007 C 2218.5162 3338.5909 2220.2246 3338.1903 2221.8846 3337.7703 C 2221.9346 3337.7503 2222.0057 3337.7463 2222.0457 3337.7263 C 2225.6057 3336.8163 2229.1312 3335.8406 2232.6512 3334.8406 L 2232.7245 3334.8406 C 2235.6743 3334.0006 2238.6182 3333.0939 2241.5282 3332.2039 C 2242.2382 3331.9839 2242.9761 3331.7847 2243.6961 3331.5447 C 2245.9261 3330.8547 2248.1065 3330.136 2250.3465 3329.406 C 2251.7965 3328.936 2253.2764 3328.4505 2254.7264 3327.9705 C 2256.0964 3327.5305 2257.4726 3326.9949 2258.8426 3326.5349 C 2261.0826 3325.7449 2263.3271 3324.9719 2265.5369 3324.1619 C 2266.5669 3323.7719 2267.6271 3323.3654 2268.6571 3322.9754 C 2271.1671 3322.0454 2273.6824 3321.1089 2276.1424 3320.1189 C 2276.2424 3320.0689 2276.2921 3320.0657 2276.3621 3320.0457 C 2279.6421 3318.7257 2282.9459 3317.3966 2286.2059 3316.0466 C 2286.2259 3316.0266 2286.2638 3315.9934 2286.2938 3315.9734 C 2289.6738 3314.5134 2293.0166 3313.0442 2296.3866 3311.5642 C 2296.4266 3311.5242 2296.493 3311.511 2296.533 3311.491 C 2303.283 3308.451 2309.9242 3305.2463 2316.4842 3301.8963 C 2316.6242 3301.8363 2316.7251 3301.7612 2316.8651 3301.6912 C 2333.3251 3293.2812 2349.2657 3283.8994 2364.5457 3273.6394 C 2364.7357 3273.5294 2364.917 3273.3986 2365.117 3273.2586 C 2368.187 3271.1986 2371.213 3269.0951 2374.243 3266.9451 C 2377.223 3264.8351 2380.1553 3262.7191 2383.1053 3260.5291 C 2383.1453 3260.4891 2383.2457 3260.4226 2383.2957 3260.3826 C 2386.2057 3258.2026 2389.0937 3256.0008 2391.9237 3253.7908 C 2391.9937 3253.7208 2392.0827 3253.6404 2392.1727 3253.6004 C 2395.0727 3251.3304 2397.9413 3249.0456 2400.7713 3246.7156 C 2400.7913 3246.6956 2400.8246 3246.6524 2400.8446 3246.6424 C 2423.8044 3227.7824 2444.9061 3206.8056 2463.9061 3184.0056 C 2463.9461 3183.9656 2463.964 3183.9238 2463.994 3183.8738 C 2530.5238 3103.884 2570.8767 3001.3669 2571.5867 2889.7771 L 2572.6268 2889.7771 L 2572.6268 2259.3963 L 2260.5565 2259.3963 L 2260.5565 2879.9041 C 2260.6465 2882.1541 2260.703 2884.4017 2260.703 2886.6717 C 2260.703 2971.8015 2191.196 3041.2273 2105.9862 3041.2273 C 2020.7664 3041.2273 1950.2147 2970.6396 1950.2147 2885.4998 L 1950.2147 2259.3963 L 1640.4149 2259.3963 L 1640.4149 2883.0682 L 1640.1366 2883.0682 L 1640.1366 2886.7156 C 1640.1366 3143.2252 1849.3442 3352.4187 2105.8836 3352.4187 z " /><path
         d="m 2857.53,3287.82 c -62.74,0 -113.61,-50.86 -113.61,-113.6 0,-62.74 50.87,-113.6 113.61,-113.6 62.75,0 113.6,50.86 113.6,113.6 0,62.74 -50.85,113.6 -113.6,113.6"
         style="fill:#000000;fill-opacity:1;fill-rule:evenodd;stroke:none"
         id="path34" /></g></g></svg>
